M48
; DRILL file {KiCad 9.0.1} date 2025-04-28T16:18:23-0700
; FORMAT={-:-/ absolute / metric / decimal}
; #@! TF.CreationDate,2025-04-28T16:18:23-07:00
; #@! TF.GenerationSoftware,Kicad,Pcbnew,9.0.1
; #@! TF.FileFunction,Plated,1,2,PTH
FMAT,2
METRIC
; #@! TA.AperFunction,Plated,PTH,ComponentDrill
T1C0.700
; #@! TA.AperFunction,Plated,PTH,ComponentDrill
T2C0.800
; #@! TA.AperFunction,Plated,PTH,ComponentDrill
T3C1.000
%
G90
G05
T1
X16.42Y43.0
X16.42Y27.0
X18.089Y11.859
X19.0Y53.08
X19.0Y48.0
X19.5Y36.762
X19.5Y31.682
X19.692Y20.598
X19.692Y15.518
X21.5Y43.0
X21.5Y27.0
X23.0Y48.0
X23.081Y31.762
X23.169Y11.859
X24.582Y15.5
X28.08Y48.0
X28.161Y31.762
X29.662Y15.5
X35.92Y56.5
X41.0Y56.5
T2
X12.5Y52.04
X12.5Y49.5
X12.5Y46.96
X13.14Y35.54
X13.14Y33.0
X13.14Y30.46
X13.14Y19.04
X13.14Y16.5
X13.14Y13.96
X48.845Y57.792
X48.845Y55.252
X48.845Y52.712
X48.845Y50.172
X48.845Y47.632
X48.845Y45.092
X48.845Y42.552
X48.845Y40.012
X48.845Y37.472
X48.845Y34.932
X48.845Y32.392
X48.845Y29.852
X48.845Y27.312
X48.845Y24.772
X48.845Y22.232
X48.845Y19.692
X48.845Y17.152
X48.845Y14.612
X48.845Y12.072
X74.241Y14.615
X74.241Y12.075
X74.245Y57.792
X74.245Y55.252
X74.245Y52.712
X74.245Y50.172
X74.245Y47.632
X74.245Y45.092
X74.245Y42.552
X74.245Y40.012
X74.245Y37.472
X74.245Y34.932
X74.245Y32.392
X74.245Y29.852
X74.245Y27.312
X74.245Y24.772
X74.245Y22.232
X74.245Y19.692
X74.245Y17.152
T3
X4.5Y50.0
X4.5Y47.46
X4.5Y33.04
X4.5Y30.5
X4.5Y16.899
X4.5Y14.359
X28.13Y56.975
X30.67Y56.975
X37.5Y47.62
X37.5Y45.08
X37.5Y42.54
X37.5Y40.0
X52.46Y5.5
X55.0Y5.5
X86.38Y33.0
X88.92Y33.0
X91.46Y33.0
X94.0Y33.0
X96.54Y33.0
X99.08Y33.0
X112.42Y24.0
X114.96Y24.0
X117.5Y24.0
X120.04Y24.0
X122.58Y24.0
X125.12Y24.0
M30
