%TF.GenerationSoftware,KiCad,Pcbnew,9.0.1*%
%TF.CreationDate,2025-04-28T16:18:14-07:00*%
%TF.ProjectId,qtkiln,71746b69-6c6e-42e6-9b69-6361645f7063,rev?*%
%TF.SameCoordinates,PX39b2820PY71f6ce0*%
%TF.FileFunction,Copper,L2,Bot*%
%TF.FilePolarity,Positive*%
%FSLAX46Y46*%
G04 Gerber Fmt 4.6, Leading zero omitted, Abs format (unit mm)*
G04 Created by KiCad (PCBNEW 9.0.1) date 2025-04-28 16:18:14*
%MOMM*%
%LPD*%
G01*
G04 APERTURE LIST*
%TA.AperFunction,ComponentPad*%
%ADD10R,1.500000X1.500000*%
%TD*%
%TA.AperFunction,ComponentPad*%
%ADD11C,1.500000*%
%TD*%
%TA.AperFunction,ComponentPad*%
%ADD12C,1.400000*%
%TD*%
%TA.AperFunction,ComponentPad*%
%ADD13O,1.400000X1.400000*%
%TD*%
%TA.AperFunction,ComponentPad*%
%ADD14R,1.700000X1.700000*%
%TD*%
%TA.AperFunction,ComponentPad*%
%ADD15C,1.700000*%
%TD*%
%TA.AperFunction,ComponentPad*%
%ADD16R,2.000000X1.200000*%
%TD*%
%TA.AperFunction,ComponentPad*%
%ADD17O,2.000000X1.200000*%
%TD*%
%TA.AperFunction,Conductor*%
%ADD18C,0.800000*%
%TD*%
%TA.AperFunction,Conductor*%
%ADD19C,0.650000*%
%TD*%
G04 APERTURE END LIST*
D10*
%TO.P,Q3,1,E*%
%TO.N,GNDREF*%
X13140000Y35540000D03*
D11*
%TO.P,Q3,2,B*%
%TO.N,Net-(Q3-B)*%
X13140000Y33000000D03*
%TO.P,Q3,3,C*%
%TO.N,Net-(J6-Pin_1)*%
X13140000Y30460000D03*
%TD*%
D10*
%TO.P,Q2,1,E*%
%TO.N,GNDREF*%
X13140000Y19040000D03*
D11*
%TO.P,Q2,2,B*%
%TO.N,Net-(Q2-B)*%
X13140000Y16500000D03*
%TO.P,Q2,3,C*%
%TO.N,Net-(J5-Pin_1)*%
X13140000Y13960000D03*
%TD*%
D10*
%TO.P,Q1,1,E*%
%TO.N,GNDREF*%
X12500000Y52040000D03*
D11*
%TO.P,Q1,2,B*%
%TO.N,Net-(Q1-B)*%
X12500000Y49500000D03*
%TO.P,Q1,3,C*%
%TO.N,Net-(J4-Pin_1)*%
X12500000Y46960000D03*
%TD*%
D12*
%TO.P,R6,1*%
%TO.N,+5V*%
X23168760Y11858836D03*
D13*
%TO.P,R6,2*%
%TO.N,Net-(J5-Pin_1)*%
X18088760Y11858836D03*
%TD*%
D14*
%TO.P,J1,1,Pin_1*%
%TO.N,+5V*%
X52460000Y5500000D03*
D15*
%TO.P,J1,2,Pin_2*%
%TO.N,GNDREF*%
X55000000Y5500000D03*
%TD*%
D14*
%TO.P,J8,1,Pin_1*%
%TO.N,+5V*%
X99080000Y33000000D03*
D15*
%TO.P,J8,2,Pin_2*%
%TO.N,unconnected-(J8-Pin_2-Pad2)*%
X96540000Y33000000D03*
%TO.P,J8,3,Pin_3*%
%TO.N,GNDREF*%
X94000000Y33000000D03*
%TO.P,J8,4,Pin_4*%
%TO.N,MAX31855_DO*%
X91460000Y33000000D03*
%TO.P,J8,5,Pin_5*%
%TO.N,MAX31855_CS_KILN*%
X88920000Y33000000D03*
%TO.P,J8,6,Pin_6*%
%TO.N,MAX31855_CLK*%
X86380000Y33000000D03*
%TD*%
D12*
%TO.P,R9,1*%
%TO.N,+5V*%
X21500000Y27000000D03*
D13*
%TO.P,R9,2*%
%TO.N,Net-(J6-Pin_1)*%
X16420000Y27000000D03*
%TD*%
D14*
%TO.P,J4,1,Pin_1*%
%TO.N,Net-(J4-Pin_1)*%
X4500000Y47460000D03*
D15*
%TO.P,J4,2,Pin_2*%
%TO.N,GNDREF*%
X4500000Y50000000D03*
%TD*%
D12*
%TO.P,R3,1*%
%TO.N,+3.3V*%
X19000000Y53080000D03*
D13*
%TO.P,R3,2*%
%TO.N,Net-(Q1-B)*%
X19000000Y48000000D03*
%TD*%
D12*
%TO.P,R4,1*%
%TO.N,+3.3V*%
X19692193Y20597762D03*
D13*
%TO.P,R4,2*%
%TO.N,Net-(Q2-B)*%
X19692193Y15517762D03*
%TD*%
D14*
%TO.P,J7,1,Pin_1*%
%TO.N,LCD_CLK*%
X37500000Y40000000D03*
D15*
%TO.P,J7,2,Pin_2*%
%TO.N,LCD_DO*%
X37500000Y42540000D03*
%TO.P,J7,3,Pin_3*%
%TO.N,+5V*%
X37500000Y45080000D03*
%TO.P,J7,4,Pin_4*%
%TO.N,GNDREF*%
X37500000Y47620000D03*
%TD*%
D14*
%TO.P,J5,1,Pin_1*%
%TO.N,Net-(J5-Pin_1)*%
X4500000Y14358836D03*
D15*
%TO.P,J5,2,Pin_2*%
%TO.N,GNDREF*%
X4500000Y16898836D03*
%TD*%
D14*
%TO.P,J3,1,Pin_1*%
%TO.N,Net-(J3-Pin_1)*%
X30670000Y56975000D03*
D15*
%TO.P,J3,2,Pin_2*%
%TO.N,GNDREF*%
X28130000Y56975000D03*
%TD*%
D12*
%TO.P,R10,1*%
%TO.N,Net-(J3-Pin_1)*%
X35920000Y56500000D03*
D13*
%TO.P,R10,2*%
%TO.N,RESET*%
X41000000Y56500000D03*
%TD*%
D12*
%TO.P,R8,1*%
%TO.N,Net-(Q3-B)*%
X23081061Y31761547D03*
D13*
%TO.P,R8,2*%
%TO.N,ALARM*%
X28161061Y31761547D03*
%TD*%
D12*
%TO.P,R2,1*%
%TO.N,+5V*%
X21500000Y43000000D03*
D13*
%TO.P,R2,2*%
%TO.N,Net-(J4-Pin_1)*%
X16420000Y43000000D03*
%TD*%
D12*
%TO.P,R1,1*%
%TO.N,Net-(Q1-B)*%
X23000000Y48000000D03*
D13*
%TO.P,R1,2*%
%TO.N,SSR40-DA1*%
X28080000Y48000000D03*
%TD*%
D14*
%TO.P,J6,1,Pin_1*%
%TO.N,Net-(J6-Pin_1)*%
X4500000Y30500000D03*
D15*
%TO.P,J6,2,Pin_2*%
%TO.N,GNDREF*%
X4500000Y33040000D03*
%TD*%
D12*
%TO.P,R7,1*%
%TO.N,+3.3V*%
X19500000Y36761547D03*
D13*
%TO.P,R7,2*%
%TO.N,Net-(Q3-B)*%
X19500000Y31681547D03*
%TD*%
D14*
%TO.P,J9,1,Pin_1*%
%TO.N,+5V*%
X125120000Y24000000D03*
D15*
%TO.P,J9,2,Pin_2*%
%TO.N,unconnected-(J9-Pin_2-Pad2)*%
X122580000Y24000000D03*
%TO.P,J9,3,Pin_3*%
%TO.N,GNDREF*%
X120040000Y24000000D03*
%TO.P,J9,4,Pin_4*%
%TO.N,MAX31855_DO*%
X117500000Y24000000D03*
%TO.P,J9,5,Pin_5*%
%TO.N,MAX31855_CS_HSING*%
X114960000Y24000000D03*
%TO.P,J9,6,Pin_6*%
%TO.N,MAX31855_CLK*%
X112420000Y24000000D03*
%TD*%
D12*
%TO.P,R5,1*%
%TO.N,Net-(Q2-B)*%
X24582298Y15500000D03*
D13*
%TO.P,R5,2*%
%TO.N,SSR40-DA2*%
X29662298Y15500000D03*
%TD*%
D16*
%TO.P,J2,1,Pin_1*%
%TO.N,+3.3V*%
X48845000Y57791880D03*
D17*
%TO.P,J2,2,Pin_2*%
%TO.N,RESET*%
X48845000Y55251880D03*
%TO.P,J2,3,Pin_3*%
%TO.N,unconnected-(J2-Pin_3-Pad3)*%
X48845000Y52711880D03*
%TO.P,J2,4,Pin_4*%
%TO.N,unconnected-(J2-Pin_4-Pad4)*%
X48845000Y50171880D03*
%TO.P,J2,5,Pin_5*%
%TO.N,unconnected-(J2-Pin_5-Pad5)*%
X48845000Y47631880D03*
%TO.P,J2,6,Pin_6*%
%TO.N,unconnected-(J2-Pin_6-Pad6)*%
X48845000Y45091880D03*
%TO.P,J2,7,Pin_7*%
%TO.N,LCD_DO*%
X48845000Y42551880D03*
%TO.P,J2,8,Pin_8*%
%TO.N,LCD_CLK*%
X48845000Y40011880D03*
%TO.P,J2,9,Pin_9*%
%TO.N,SSR40-DA1*%
X48845000Y37471880D03*
%TO.P,J2,10,Pin_10*%
%TO.N,ALARM*%
X48845000Y34931880D03*
%TO.P,J2,11,Pin_11*%
%TO.N,SSR40-DA2*%
X48845000Y32391880D03*
%TO.P,J2,12,Pin_12*%
%TO.N,unconnected-(J2-Pin_12-Pad12)*%
X48845000Y29851880D03*
%TO.P,J2,13,Pin_13*%
%TO.N,unconnected-(J2-Pin_13-Pad13)*%
X48845000Y27311880D03*
%TO.P,J2,14,Pin_14*%
%TO.N,GNDREF*%
X48845000Y24771880D03*
%TO.P,J2,15,Pin_15*%
%TO.N,unconnected-(J2-Pin_15-Pad15)*%
X48845000Y22231880D03*
%TO.P,J2,16,Pin_16*%
%TO.N,unconnected-(J2-Pin_16-Pad16)*%
X48845000Y19691880D03*
%TO.P,J2,17,Pin_17*%
%TO.N,unconnected-(J2-Pin_17-Pad17)*%
X48845000Y17151880D03*
%TO.P,J2,18,Pin_18*%
%TO.N,unconnected-(J2-Pin_18-Pad18)*%
X48845000Y14611880D03*
%TO.P,J2,19,Pin_19*%
%TO.N,+5V*%
X48845000Y12071880D03*
%TO.P,J2,20,Pin_20*%
%TO.N,unconnected-(J2-Pin_20-Pad20)*%
X74241320Y12074600D03*
%TO.P,J2,21,Pin_21*%
%TO.N,unconnected-(J2-Pin_21-Pad21)*%
X74241320Y14614600D03*
%TO.P,J2,22,Pin_22*%
%TO.N,unconnected-(J2-Pin_22-Pad22)*%
X74245000Y17151880D03*
%TO.P,J2,23,Pin_23*%
%TO.N,/GPIO15 - ADC13*%
X74245000Y19691880D03*
%TO.P,J2,24,Pin_24*%
%TO.N,/GPIO2 - ADC12*%
X74245000Y22231880D03*
%TO.P,J2,25,Pin_25*%
%TO.N,/GPIO0 - ADC11*%
X74245000Y24771880D03*
%TO.P,J2,26,Pin_26*%
%TO.N,/GPIO4 - ADC10*%
X74245000Y27311880D03*
%TO.P,J2,27,Pin_27*%
%TO.N,MAX31855_CS_HSING*%
X74245000Y29851880D03*
%TO.P,J2,28,Pin_28*%
%TO.N,MAX31855_CS_KILN*%
X74245000Y32391880D03*
%TO.P,J2,29,Pin_29*%
%TO.N,/GPIO5 - VSPI SS*%
X74245000Y34931880D03*
%TO.P,J2,30,Pin_30*%
%TO.N,MAX31855_CLK*%
X74245000Y37471880D03*
%TO.P,J2,31,Pin_31*%
%TO.N,MAX31855_DO*%
X74245000Y40011880D03*
%TO.P,J2,32,Pin_32*%
%TO.N,GNDREF*%
X74245000Y42551880D03*
%TO.P,J2,33,Pin_33*%
%TO.N,unconnected-(J2-Pin_33-Pad33)*%
X74245000Y45091880D03*
%TO.P,J2,34,Pin_34*%
%TO.N,unconnected-(J2-Pin_34-Pad34)*%
X74245000Y47631880D03*
%TO.P,J2,35,Pin_35*%
%TO.N,unconnected-(J2-Pin_35-Pad35)*%
X74245000Y50171880D03*
%TO.P,J2,36,Pin_36*%
%TO.N,unconnected-(J2-Pin_36-Pad36)*%
X74245000Y52711880D03*
%TO.P,J2,37,Pin_37*%
%TO.N,/GPIO23 - VSPI MOSI*%
X74245000Y55251880D03*
%TO.P,J2,38,Pin_38*%
%TO.N,GNDREF*%
X74245000Y57791880D03*
%TD*%
D18*
%TO.N,+3.3V*%
X25000000Y35500000D02*
X25000000Y29500000D01*
X23738453Y36761547D02*
X25000000Y35500000D01*
X19000000Y23500000D02*
X19692193Y22807807D01*
X19692193Y22807807D02*
X19692193Y20597762D01*
X25000000Y29500000D02*
X19000000Y29500000D01*
X19500000Y36761547D02*
X23738453Y36761547D01*
X19000000Y29500000D02*
X19000000Y23500000D01*
%TO.N,SSR40-DA1*%
X53000000Y50000000D02*
X51500000Y51500000D01*
X31580000Y51500000D02*
X28080000Y48000000D01*
X53000000Y38500000D02*
X53000000Y50000000D01*
X51971880Y37471880D02*
X53000000Y38500000D01*
X48845000Y37471880D02*
X51971880Y37471880D01*
X51500000Y51500000D02*
X31580000Y51500000D01*
%TO.N,MAX31855_CLK*%
X71500000Y59500000D02*
X72500000Y60500000D01*
X71528120Y37471880D02*
X71000000Y38000000D01*
X71000000Y59500000D02*
X71500000Y59500000D01*
X71000000Y38000000D02*
X71000000Y59500000D01*
X74245000Y37471880D02*
X71528120Y37471880D01*
%TO.N,MAX31855_CS_KILN*%
X88920000Y52580000D02*
X88920000Y33000000D01*
X71500000Y63500000D02*
X71500000Y64500000D01*
X69000000Y61000000D02*
X71500000Y63500000D01*
X71500000Y64500000D02*
X78000000Y64500000D01*
X69000000Y33500000D02*
X69000000Y61000000D01*
X88500000Y53000000D02*
X88920000Y52580000D01*
X88500000Y54000000D02*
X88500000Y53000000D01*
X70108120Y32391880D02*
X69000000Y33500000D01*
X74245000Y32391880D02*
X70108120Y32391880D01*
X78000000Y64500000D02*
X88500000Y54000000D01*
%TO.N,MAX31855_CS_HSING*%
X113000000Y19500000D02*
X114960000Y21460000D01*
X85000000Y19500000D02*
X113000000Y19500000D01*
X85000000Y22000000D02*
X85000000Y19500000D01*
X77148120Y29851880D02*
X85000000Y22000000D01*
X114960000Y21460000D02*
X114960000Y24000000D01*
X74245000Y29851880D02*
X77148120Y29851880D01*
%TO.N,MAX31855_CLK*%
X86000000Y24000000D02*
X112420000Y24000000D01*
X78000000Y37500000D02*
X78000000Y32000000D01*
X77971880Y37471880D02*
X78000000Y37500000D01*
X78000000Y32000000D02*
X86000000Y24000000D01*
X74245000Y37471880D02*
X77971880Y37471880D01*
D19*
%TO.N,MAX31855_DO*%
X91460000Y30040000D02*
X91500000Y30000000D01*
X91460000Y33000000D02*
X91460000Y30040000D01*
D18*
X91500000Y30000000D02*
X94460000Y30000000D01*
X88460000Y30000000D02*
X91500000Y30000000D01*
X94730000Y29730000D02*
X95460000Y29000000D01*
X94460000Y30000000D02*
X94730000Y29730000D01*
X117500000Y27000000D02*
X117500000Y24000000D01*
X95460000Y29000000D02*
X115500000Y29000000D01*
X115500000Y29000000D02*
X117500000Y27000000D01*
%TO.N,+5V*%
X124500000Y21000000D02*
X125120000Y21620000D01*
X125120000Y21620000D02*
X125120000Y24000000D01*
X109120000Y8000000D02*
X122120000Y21000000D01*
X122120000Y21000000D02*
X124500000Y21000000D01*
X52500000Y8000000D02*
X109120000Y8000000D01*
X52460000Y8040000D02*
X52500000Y8000000D01*
X27000000Y28500000D02*
X26500000Y29000000D01*
X27000000Y28000000D02*
X27000000Y28500000D01*
X26500000Y29000000D02*
X26500000Y43000000D01*
%TO.N,Net-(Q2-B)*%
X18709955Y16500000D02*
X13140000Y16500000D01*
%TO.N,SSR40-DA2*%
X48845000Y32391880D02*
X46554178Y32391880D01*
X46554178Y32391880D02*
X29662298Y15500000D01*
%TO.N,ALARM*%
X31331394Y34931880D02*
X28161061Y31761547D01*
X48845000Y34931880D02*
X31331394Y34931880D01*
%TO.N,Net-(Q2-B)*%
X19692193Y15517762D02*
X18709955Y16500000D01*
%TO.N,Net-(Q1-B)*%
X17500000Y49500000D02*
X12500000Y49500000D01*
X19000000Y48000000D02*
X17500000Y49500000D01*
%TO.N,Net-(Q3-B)*%
X18181547Y33000000D02*
X13140000Y33000000D01*
X19500000Y31681547D02*
X18181547Y33000000D01*
%TO.N,+3.3V*%
X48845000Y57791880D02*
X48845000Y60155000D01*
%TO.N,Net-(J3-Pin_1)*%
X31145000Y56500000D02*
X30670000Y56975000D01*
%TO.N,Net-(J4-Pin_1)*%
X12500000Y47460000D02*
X4500000Y47460000D01*
%TO.N,Net-(J5-Pin_1)*%
X4540000Y14318836D02*
X4500000Y14358836D01*
%TO.N,Net-(J6-Pin_1)*%
X12661061Y30500000D02*
X4500000Y30500000D01*
%TO.N,Net-(Q2-B)*%
X24582298Y15500000D02*
X24564536Y15517762D01*
%TO.N,LCD_DO*%
X48833120Y42540000D02*
X48845000Y42551880D01*
%TO.N,Net-(J6-Pin_1)*%
X12661061Y30500000D02*
X12920000Y30500000D01*
%TO.N,Net-(Q2-B)*%
X24564536Y15517762D02*
X19692193Y15517762D01*
%TO.N,Net-(J5-Pin_1)*%
X15628760Y14318836D02*
X18088760Y11858836D01*
%TO.N,+3.3V*%
X19500000Y36761547D02*
X19500000Y45500000D01*
%TO.N,Net-(J6-Pin_1)*%
X12920000Y30500000D02*
X16420000Y27000000D01*
%TO.N,LCD_DO*%
X37500000Y42540000D02*
X48833120Y42540000D01*
%TO.N,Net-(J3-Pin_1)*%
X35920000Y56500000D02*
X31145000Y56500000D01*
%TO.N,Net-(J4-Pin_1)*%
X12500000Y47460000D02*
X12500000Y46920000D01*
%TO.N,Net-(J5-Pin_1)*%
X13168760Y14318836D02*
X4540000Y14318836D01*
X13168760Y14318836D02*
X15628760Y14318836D01*
%TO.N,Net-(Q1-B)*%
X23000000Y48000000D02*
X19000000Y48000000D01*
%TO.N,Net-(Q3-B)*%
X19580000Y31761547D02*
X19500000Y31681547D01*
%TO.N,Net-(J4-Pin_1)*%
X12500000Y46920000D02*
X16420000Y43000000D01*
%TO.N,Net-(Q3-B)*%
X19500000Y31681547D02*
X19181547Y31681547D01*
X19181547Y31681547D02*
X19093094Y31770000D01*
X23081061Y31761547D02*
X19580000Y31761547D01*
%TO.N,+5V*%
X121000000Y33000000D02*
X125120000Y28880000D01*
%TO.N,MAX31855_CLK*%
X72500000Y60500000D02*
X79000000Y60500000D01*
X79000000Y60500000D02*
X86500000Y53000000D01*
X86500000Y53000000D02*
X86380000Y52880000D01*
%TO.N,+5V*%
X48358836Y11858836D02*
X28000000Y11858836D01*
X26500000Y43000000D02*
X21500000Y43000000D01*
X28000000Y27000000D02*
X27000000Y28000000D01*
X27000000Y43500000D02*
X30500000Y43500000D01*
X28000000Y11858836D02*
X28000000Y27000000D01*
%TO.N,RESET*%
X41000000Y56500000D02*
X42248120Y55251880D01*
%TO.N,+5V*%
X32080000Y45080000D02*
X37500000Y45080000D01*
%TO.N,MAX31855_DO*%
X81471880Y40011880D02*
X81471880Y32028120D01*
%TO.N,MAX31855_CLK*%
X86380000Y52880000D02*
X86380000Y33000000D01*
%TO.N,+5V*%
X52460000Y8040000D02*
X52460000Y5500000D01*
X48845000Y12071880D02*
X48845000Y11655000D01*
X27000000Y43500000D02*
X26500000Y43000000D01*
X28000000Y27000000D02*
X21500000Y27000000D01*
X28000000Y11858836D02*
X23168760Y11858836D01*
%TO.N,MAX31855_DO*%
X74245000Y40011880D02*
X81471880Y40011880D01*
%TO.N,+5V*%
X48845000Y12071880D02*
X48571880Y12071880D01*
X48571880Y12071880D02*
X48358836Y11858836D01*
X30500000Y43500000D02*
X32080000Y45080000D01*
X125120000Y28880000D02*
X125120000Y24000000D01*
X48845000Y11655000D02*
X52460000Y8040000D01*
%TO.N,MAX31855_DO*%
X83500000Y30000000D02*
X88460000Y30000000D01*
X81471880Y32028120D02*
X83500000Y30000000D01*
%TO.N,RESET*%
X42248120Y55251880D02*
X48845000Y55251880D01*
%TO.N,LCD_CLK*%
X48845000Y40011880D02*
X37511880Y40011880D01*
%TO.N,+5V*%
X99080000Y33000000D02*
X121000000Y33000000D01*
%TO.N,LCD_CLK*%
X37511880Y40011880D02*
X37500000Y40000000D01*
%TO.N,+3.3V*%
X25000000Y45500000D02*
X25500000Y46000000D01*
X25500000Y46000000D02*
X25500000Y50500000D01*
X25500000Y50500000D02*
X21580000Y50500000D01*
X48500000Y60500000D02*
X19000000Y60500000D01*
X48845000Y60155000D02*
X48500000Y60500000D01*
X19000000Y60500000D02*
X19000000Y53080000D01*
X19500000Y45500000D02*
X25000000Y45500000D01*
X21580000Y50500000D02*
X19000000Y53080000D01*
%TD*%
%TA.AperFunction,Conductor*%
%TO.N,GNDREF*%
G36*
X95115270Y32238283D02*
G01*
X95115270Y32238284D01*
X95154622Y32292445D01*
X95159232Y32301493D01*
X95207205Y32352291D01*
X95275025Y32369088D01*
X95341161Y32346553D01*
X95380204Y32301496D01*
X95384949Y32292183D01*
X95509890Y32120214D01*
X95660213Y31969891D01*
X95832179Y31844952D01*
X95832181Y31844951D01*
X95832184Y31844949D01*
X96021588Y31748443D01*
X96223757Y31682754D01*
X96433713Y31649500D01*
X96433714Y31649500D01*
X96646286Y31649500D01*
X96646287Y31649500D01*
X96856243Y31682754D01*
X97058412Y31748443D01*
X97247816Y31844949D01*
X97334147Y31907672D01*
X97419784Y31969890D01*
X97419784Y31969891D01*
X97419792Y31969896D01*
X97533329Y32083434D01*
X97594648Y32116916D01*
X97664340Y32111932D01*
X97720274Y32070061D01*
X97737189Y32039083D01*
X97786202Y31907672D01*
X97786206Y31907665D01*
X97872452Y31792456D01*
X97872455Y31792453D01*
X97987664Y31706207D01*
X97987671Y31706203D01*
X98122517Y31655909D01*
X98122516Y31655909D01*
X98129444Y31655165D01*
X98182127Y31649500D01*
X99977872Y31649501D01*
X100037483Y31655909D01*
X100172331Y31706204D01*
X100287546Y31792454D01*
X100373796Y31907669D01*
X100396146Y31967592D01*
X100415258Y32018833D01*
X100457129Y32074767D01*
X100522593Y32099184D01*
X100531440Y32099500D01*
X120575638Y32099500D01*
X120642677Y32079815D01*
X120663319Y32063181D01*
X124183181Y28543319D01*
X124216666Y28481996D01*
X124219500Y28455638D01*
X124219500Y25451440D01*
X124199815Y25384401D01*
X124147011Y25338646D01*
X124138833Y25335258D01*
X124027671Y25293798D01*
X124027664Y25293794D01*
X123912455Y25207548D01*
X123912452Y25207545D01*
X123826206Y25092336D01*
X123826203Y25092331D01*
X123777189Y24960917D01*
X123735317Y24904984D01*
X123669853Y24880567D01*
X123601580Y24895419D01*
X123573326Y24916570D01*
X123459786Y25030110D01*
X123287820Y25155049D01*
X123098414Y25251556D01*
X123098413Y25251557D01*
X123098412Y25251557D01*
X122896243Y25317246D01*
X122896241Y25317247D01*
X122896240Y25317247D01*
X122734957Y25342792D01*
X122686287Y25350500D01*
X122473713Y25350500D01*
X122425042Y25342792D01*
X122263760Y25317247D01*
X122061585Y25251556D01*
X121872179Y25155049D01*
X121700213Y25030110D01*
X121549890Y24879787D01*
X121424949Y24707818D01*
X121420202Y24698501D01*
X121372227Y24647707D01*
X121304405Y24630913D01*
X121238271Y24653452D01*
X121199234Y24698505D01*
X121194626Y24707548D01*
X121155270Y24761718D01*
X121155269Y24761718D01*
X120522962Y24129410D01*
X120505925Y24192993D01*
X120440099Y24307007D01*
X120347007Y24400099D01*
X120232993Y24465925D01*
X120169409Y24482963D01*
X120801716Y25115272D01*
X120747550Y25154625D01*
X120558217Y25251096D01*
X120356129Y25316758D01*
X120146246Y25350000D01*
X119933754Y25350000D01*
X119723872Y25316758D01*
X119723869Y25316758D01*
X119521782Y25251096D01*
X119332439Y25154620D01*
X119278282Y25115273D01*
X119278282Y25115272D01*
X119910591Y24482963D01*
X119847007Y24465925D01*
X119732993Y24400099D01*
X119639901Y24307007D01*
X119574075Y24192993D01*
X119557037Y24129409D01*
X118924728Y24761718D01*
X118924727Y24761718D01*
X118885380Y24707560D01*
X118885376Y24707554D01*
X118880760Y24698495D01*
X118832781Y24647703D01*
X118764959Y24630913D01*
X118698826Y24653457D01*
X118659794Y24698507D01*
X118655051Y24707816D01*
X118655049Y24707819D01*
X118655048Y24707821D01*
X118530109Y24879787D01*
X118436819Y24973077D01*
X118422115Y25000005D01*
X118405523Y25025823D01*
X118404631Y25032024D01*
X118403334Y25034400D01*
X118400500Y25060758D01*
X118400500Y27088693D01*
X118400499Y27088697D01*
X118365895Y27262666D01*
X118331953Y27344607D01*
X118298013Y27426547D01*
X118220761Y27542162D01*
X118220761Y27542163D01*
X118206659Y27563267D01*
X118199464Y27574036D01*
X117139393Y28634107D01*
X116074039Y29699462D01*
X116074031Y29699468D01*
X116009486Y29742596D01*
X116009474Y29742602D01*
X116004548Y29745894D01*
X115926547Y29798013D01*
X115844606Y29831954D01*
X115838846Y29834340D01*
X115838844Y29834341D01*
X115762666Y29865895D01*
X115762658Y29865897D01*
X115588696Y29900500D01*
X115588692Y29900500D01*
X115588691Y29900500D01*
X95884362Y29900500D01*
X95817323Y29920185D01*
X95796681Y29936819D01*
X95299725Y30433776D01*
X95299704Y30433795D01*
X95034036Y30699464D01*
X94954841Y30752380D01*
X94886547Y30798013D01*
X94800207Y30833776D01*
X94771041Y30845857D01*
X94722666Y30865895D01*
X94722658Y30865897D01*
X94548696Y30900500D01*
X94548692Y30900500D01*
X94548691Y30900500D01*
X92409500Y30900500D01*
X92342461Y30920185D01*
X92296706Y30972989D01*
X92285500Y31024500D01*
X92285500Y31867270D01*
X92294526Y31898011D01*
X92302054Y31929168D01*
X92304461Y31931844D01*
X92305185Y31934309D01*
X92323845Y31956932D01*
X92329867Y31962686D01*
X92339792Y31969896D01*
X92490104Y32120208D01*
X92490106Y32120212D01*
X92490109Y32120214D01*
X92575890Y32238283D01*
X92615051Y32292184D01*
X92619793Y32301492D01*
X92667763Y32352289D01*
X92735583Y32369089D01*
X92801719Y32346555D01*
X92840763Y32301500D01*
X92845373Y32292453D01*
X92884728Y32238284D01*
X93517037Y32870592D01*
X93534075Y32807007D01*
X93599901Y32692993D01*
X93692993Y32599901D01*
X93807007Y32534075D01*
X93870590Y32517038D01*
X93238282Y31884731D01*
X93238282Y31884730D01*
X93292449Y31845376D01*
X93481782Y31748905D01*
X93683870Y31683243D01*
X93893754Y31650000D01*
X94106246Y31650000D01*
X94316127Y31683243D01*
X94316130Y31683243D01*
X94518217Y31748905D01*
X94707554Y31845378D01*
X94761716Y31884730D01*
X94761717Y31884730D01*
X94129408Y32517038D01*
X94192993Y32534075D01*
X94307007Y32599901D01*
X94400099Y32692993D01*
X94465925Y32807007D01*
X94482962Y32870592D01*
X95115270Y32238283D01*
G37*
%TD.AperFunction*%
%TA.AperFunction,Conductor*%
G36*
X78642677Y59579815D02*
G01*
X78663319Y59563181D01*
X85443181Y52783320D01*
X85476666Y52721997D01*
X85479500Y52695639D01*
X85479500Y34060758D01*
X85459815Y33993719D01*
X85443181Y33973077D01*
X85349894Y33879791D01*
X85349890Y33879787D01*
X85224951Y33707821D01*
X85128444Y33518415D01*
X85062753Y33316240D01*
X85029900Y33108811D01*
X85029500Y33106287D01*
X85029500Y32893713D01*
X85036030Y32852487D01*
X85062441Y32685729D01*
X85062754Y32683757D01*
X85115970Y32519975D01*
X85128444Y32481586D01*
X85224951Y32292180D01*
X85349890Y32120214D01*
X85500213Y31969891D01*
X85672179Y31844952D01*
X85672181Y31844951D01*
X85672184Y31844949D01*
X85861588Y31748443D01*
X86063757Y31682754D01*
X86273713Y31649500D01*
X86273714Y31649500D01*
X86486286Y31649500D01*
X86486287Y31649500D01*
X86696243Y31682754D01*
X86898412Y31748443D01*
X87087816Y31844949D01*
X87174138Y31907665D01*
X87259786Y31969891D01*
X87259788Y31969894D01*
X87259792Y31969896D01*
X87410104Y32120208D01*
X87410106Y32120212D01*
X87410109Y32120214D01*
X87535048Y32292180D01*
X87535047Y32292180D01*
X87535051Y32292184D01*
X87539514Y32300946D01*
X87587488Y32351741D01*
X87655308Y32368537D01*
X87721444Y32346001D01*
X87760486Y32300944D01*
X87764951Y32292180D01*
X87889890Y32120214D01*
X88040213Y31969891D01*
X88212179Y31844952D01*
X88212181Y31844951D01*
X88212184Y31844949D01*
X88401588Y31748443D01*
X88603757Y31682754D01*
X88813713Y31649500D01*
X88813714Y31649500D01*
X89026286Y31649500D01*
X89026287Y31649500D01*
X89236243Y31682754D01*
X89438412Y31748443D01*
X89627816Y31844949D01*
X89714138Y31907665D01*
X89799786Y31969891D01*
X89799788Y31969894D01*
X89799792Y31969896D01*
X89950104Y32120208D01*
X89950106Y32120212D01*
X89950109Y32120214D01*
X90075048Y32292180D01*
X90075047Y32292180D01*
X90075051Y32292184D01*
X90079514Y32300946D01*
X90127488Y32351741D01*
X90195308Y32368537D01*
X90261444Y32346001D01*
X90300486Y32300944D01*
X90304951Y32292180D01*
X90429890Y32120214D01*
X90429896Y32120208D01*
X90580208Y31969896D01*
X90583380Y31967591D01*
X90626049Y31912264D01*
X90634500Y31867270D01*
X90634500Y31024500D01*
X90614815Y30957461D01*
X90562011Y30911706D01*
X90510500Y30900500D01*
X83924362Y30900500D01*
X83857323Y30920185D01*
X83836681Y30936819D01*
X82408699Y32364801D01*
X82375214Y32426124D01*
X82372380Y32452482D01*
X82372380Y40100574D01*
X82372379Y40100576D01*
X82337776Y40274539D01*
X82337773Y40274548D01*
X82269896Y40438421D01*
X82269889Y40438434D01*
X82171344Y40585915D01*
X82171341Y40585919D01*
X82045918Y40711342D01*
X82045914Y40711345D01*
X81898433Y40809890D01*
X81898420Y40809897D01*
X81734547Y40877774D01*
X81734538Y40877777D01*
X81560574Y40912380D01*
X81560571Y40912380D01*
X75318141Y40912380D01*
X75251102Y40932065D01*
X75245255Y40936062D01*
X75221792Y40953110D01*
X75221789Y40953111D01*
X75221790Y40953111D01*
X75221788Y40953112D01*
X75067445Y41031753D01*
X74902701Y41085282D01*
X74902699Y41085283D01*
X74902698Y41085283D01*
X74771271Y41106099D01*
X74731611Y41112380D01*
X73758389Y41112380D01*
X73718728Y41106099D01*
X73587302Y41085283D01*
X73422552Y41031752D01*
X73268211Y40953112D01*
X73239243Y40932065D01*
X73128072Y40851294D01*
X73128070Y40851292D01*
X73128069Y40851292D01*
X73005588Y40728811D01*
X73005588Y40728810D01*
X73005586Y40728808D01*
X72961859Y40668624D01*
X72903768Y40588669D01*
X72825128Y40434328D01*
X72771597Y40269578D01*
X72744830Y40100576D01*
X72744500Y40098491D01*
X72744500Y39925269D01*
X72771598Y39754179D01*
X72825127Y39589435D01*
X72903768Y39435092D01*
X73005586Y39294952D01*
X73128072Y39172466D01*
X73268212Y39070648D01*
X73422555Y38992007D01*
X73587299Y38938478D01*
X73758389Y38911380D01*
X73758390Y38911380D01*
X74731610Y38911380D01*
X74731611Y38911380D01*
X74902701Y38938478D01*
X75067445Y38992007D01*
X75221788Y39070648D01*
X75245255Y39087699D01*
X75311061Y39111178D01*
X75318141Y39111380D01*
X80447380Y39111380D01*
X80514419Y39091695D01*
X80560174Y39038891D01*
X80571380Y38987380D01*
X80571380Y31939424D01*
X80605983Y31765462D01*
X80605985Y31765454D01*
X80634038Y31697728D01*
X80634041Y31697723D01*
X80636239Y31692416D01*
X80673867Y31601573D01*
X80722009Y31529524D01*
X80725580Y31524179D01*
X80725582Y31524176D01*
X80772414Y31454086D01*
X80772418Y31454081D01*
X82925961Y29300538D01*
X82982642Y29262665D01*
X82982641Y29262665D01*
X83067137Y29206207D01*
X83073453Y29201987D01*
X83121452Y29182105D01*
X83237334Y29134105D01*
X83411303Y29099501D01*
X83411307Y29099500D01*
X83411308Y29099500D01*
X83411309Y29099500D01*
X88371309Y29099500D01*
X91411309Y29099500D01*
X94035638Y29099500D01*
X94102677Y29079815D01*
X94123319Y29063181D01*
X94885958Y28300541D01*
X94885961Y28300538D01*
X94885964Y28300536D01*
X94942641Y28262666D01*
X95033453Y28201987D01*
X95108408Y28170940D01*
X95197334Y28134105D01*
X95371303Y28099501D01*
X95371307Y28099500D01*
X95371308Y28099500D01*
X95371309Y28099500D01*
X115075638Y28099500D01*
X115142677Y28079815D01*
X115163319Y28063181D01*
X116563181Y26663319D01*
X116596666Y26601996D01*
X116599500Y26575638D01*
X116599500Y25060758D01*
X116579815Y24993719D01*
X116563181Y24973077D01*
X116469894Y24879791D01*
X116469890Y24879787D01*
X116344949Y24707818D01*
X116340484Y24699054D01*
X116292509Y24648258D01*
X116224688Y24631464D01*
X116158553Y24654002D01*
X116119516Y24699054D01*
X116115050Y24707818D01*
X115990109Y24879787D01*
X115839786Y25030110D01*
X115667820Y25155049D01*
X115478414Y25251556D01*
X115478413Y25251557D01*
X115478412Y25251557D01*
X115276243Y25317246D01*
X115276241Y25317247D01*
X115276240Y25317247D01*
X115114957Y25342792D01*
X115066287Y25350500D01*
X114853713Y25350500D01*
X114805042Y25342792D01*
X114643760Y25317247D01*
X114441585Y25251556D01*
X114252179Y25155049D01*
X114080213Y25030110D01*
X113929890Y24879787D01*
X113804949Y24707818D01*
X113800484Y24699054D01*
X113752509Y24648258D01*
X113684688Y24631464D01*
X113618553Y24654002D01*
X113579516Y24699054D01*
X113575050Y24707818D01*
X113450109Y24879787D01*
X113299786Y25030110D01*
X113127820Y25155049D01*
X112938414Y25251556D01*
X112938413Y25251557D01*
X112938412Y25251557D01*
X112736243Y25317246D01*
X112736241Y25317247D01*
X112736240Y25317247D01*
X112574957Y25342792D01*
X112526287Y25350500D01*
X112313713Y25350500D01*
X112265042Y25342792D01*
X112103760Y25317247D01*
X111901585Y25251556D01*
X111712179Y25155049D01*
X111540213Y25030110D01*
X111540209Y25030106D01*
X111446923Y24936819D01*
X111385600Y24903334D01*
X111359242Y24900500D01*
X86424361Y24900500D01*
X86357322Y24920185D01*
X86336680Y24936819D01*
X78936819Y32336681D01*
X78903334Y32398004D01*
X78900500Y32424362D01*
X78900500Y37588692D01*
X78900499Y37588693D01*
X78892792Y37627442D01*
X78865895Y37762666D01*
X78798256Y37925961D01*
X78798014Y37926545D01*
X78798009Y37926554D01*
X78699464Y38074036D01*
X78699461Y38074040D01*
X78574039Y38199462D01*
X78574035Y38199465D01*
X78426553Y38298010D01*
X78426544Y38298015D01*
X78262666Y38365895D01*
X78262658Y38365897D01*
X78088696Y38400500D01*
X78088692Y38400500D01*
X77911309Y38400500D01*
X77911304Y38400500D01*
X77781917Y38374763D01*
X77757726Y38372380D01*
X75318141Y38372380D01*
X75251102Y38392065D01*
X75245255Y38396062D01*
X75221792Y38413110D01*
X75221789Y38413111D01*
X75221790Y38413111D01*
X75221788Y38413112D01*
X75067445Y38491753D01*
X74902701Y38545282D01*
X74902699Y38545283D01*
X74902698Y38545283D01*
X74771271Y38566099D01*
X74731611Y38572380D01*
X73758389Y38572380D01*
X73718728Y38566099D01*
X73587302Y38545283D01*
X73422552Y38491752D01*
X73268210Y38413111D01*
X73268207Y38413110D01*
X73244745Y38396062D01*
X73178939Y38372582D01*
X73171859Y38372380D01*
X72024500Y38372380D01*
X71957461Y38392065D01*
X71911706Y38444869D01*
X71900500Y38496380D01*
X71900500Y42801881D01*
X72770884Y42801881D01*
X72770885Y42801880D01*
X73929314Y42801880D01*
X73924920Y42797486D01*
X73872259Y42706274D01*
X73845000Y42604541D01*
X73845000Y42499219D01*
X73872259Y42397486D01*
X73924920Y42306274D01*
X73929314Y42301880D01*
X72770885Y42301880D01*
X72772085Y42294296D01*
X72825591Y42129625D01*
X72904195Y41975356D01*
X73005967Y41835278D01*
X73128397Y41712848D01*
X73268475Y41611076D01*
X73422742Y41532472D01*
X73587415Y41478966D01*
X73758429Y41451880D01*
X73995000Y41451880D01*
X73995000Y42236194D01*
X73999394Y42231800D01*
X74090606Y42179139D01*
X74192339Y42151880D01*
X74297661Y42151880D01*
X74399394Y42179139D01*
X74490606Y42231800D01*
X74495000Y42236194D01*
X74495000Y41451880D01*
X74731571Y41451880D01*
X74902584Y41478966D01*
X75067257Y41532472D01*
X75221524Y41611076D01*
X75361602Y41712848D01*
X75484032Y41835278D01*
X75585804Y41975356D01*
X75664408Y42129625D01*
X75717914Y42294296D01*
X75719115Y42301880D01*
X74560686Y42301880D01*
X74565080Y42306274D01*
X74617741Y42397486D01*
X74645000Y42499219D01*
X74645000Y42604541D01*
X74617741Y42706274D01*
X74565080Y42797486D01*
X74560686Y42801880D01*
X75719115Y42801880D01*
X75719115Y42801881D01*
X75717914Y42809465D01*
X75664408Y42974136D01*
X75585804Y43128405D01*
X75484032Y43268483D01*
X75361602Y43390913D01*
X75221524Y43492685D01*
X75067257Y43571289D01*
X74902584Y43624795D01*
X74731571Y43651880D01*
X74495000Y43651880D01*
X74495000Y42867566D01*
X74490606Y42871960D01*
X74399394Y42924621D01*
X74297661Y42951880D01*
X74192339Y42951880D01*
X74090606Y42924621D01*
X73999394Y42871960D01*
X73995000Y42867566D01*
X73995000Y43651880D01*
X73758429Y43651880D01*
X73587415Y43624795D01*
X73422742Y43571289D01*
X73268475Y43492685D01*
X73128397Y43390913D01*
X73005967Y43268483D01*
X72904195Y43128405D01*
X72825591Y42974136D01*
X72772085Y42809465D01*
X72770884Y42801881D01*
X71900500Y42801881D01*
X71900500Y45178491D01*
X72744500Y45178491D01*
X72744500Y45005269D01*
X72771598Y44834179D01*
X72825127Y44669435D01*
X72903768Y44515092D01*
X73005586Y44374952D01*
X73128072Y44252466D01*
X73268212Y44150648D01*
X73422555Y44072007D01*
X73587299Y44018478D01*
X73758389Y43991380D01*
X73758390Y43991380D01*
X74731610Y43991380D01*
X74731611Y43991380D01*
X74902701Y44018478D01*
X75067445Y44072007D01*
X75221788Y44150648D01*
X75361928Y44252466D01*
X75484414Y44374952D01*
X75586232Y44515092D01*
X75664873Y44669435D01*
X75718402Y44834179D01*
X75745500Y45005269D01*
X75745500Y45178491D01*
X75718402Y45349581D01*
X75664873Y45514325D01*
X75586232Y45668668D01*
X75484414Y45808808D01*
X75361928Y45931294D01*
X75221788Y46033112D01*
X75067445Y46111753D01*
X74902701Y46165282D01*
X74902699Y46165283D01*
X74902698Y46165283D01*
X74771271Y46186099D01*
X74731611Y46192380D01*
X73758389Y46192380D01*
X73718728Y46186099D01*
X73587302Y46165283D01*
X73422552Y46111752D01*
X73268211Y46033112D01*
X73231132Y46006172D01*
X73128072Y45931294D01*
X73128070Y45931292D01*
X73128069Y45931292D01*
X73005588Y45808811D01*
X73005588Y45808810D01*
X73005586Y45808808D01*
X72984266Y45779463D01*
X72903768Y45668669D01*
X72825128Y45514328D01*
X72771597Y45349578D01*
X72745735Y45186287D01*
X72744500Y45178491D01*
X71900500Y45178491D01*
X71900500Y47718491D01*
X72744500Y47718491D01*
X72744500Y47545269D01*
X72771598Y47374179D01*
X72825127Y47209435D01*
X72903768Y47055092D01*
X73005586Y46914952D01*
X73128072Y46792466D01*
X73268212Y46690648D01*
X73422555Y46612007D01*
X73587299Y46558478D01*
X73758389Y46531380D01*
X73758390Y46531380D01*
X74731610Y46531380D01*
X74731611Y46531380D01*
X74902701Y46558478D01*
X75067445Y46612007D01*
X75221788Y46690648D01*
X75361928Y46792466D01*
X75484414Y46914952D01*
X75586232Y47055092D01*
X75664873Y47209435D01*
X75718402Y47374179D01*
X75745500Y47545269D01*
X75745500Y47718491D01*
X75718402Y47889581D01*
X75664873Y48054325D01*
X75586232Y48208668D01*
X75484414Y48348808D01*
X75361928Y48471294D01*
X75221788Y48573112D01*
X75067445Y48651753D01*
X74902701Y48705282D01*
X74902699Y48705283D01*
X74902698Y48705283D01*
X74771271Y48726099D01*
X74731611Y48732380D01*
X73758389Y48732380D01*
X73718728Y48726099D01*
X73587302Y48705283D01*
X73422552Y48651752D01*
X73268211Y48573112D01*
X73231132Y48546172D01*
X73128072Y48471294D01*
X73128070Y48471292D01*
X73128069Y48471292D01*
X73005588Y48348811D01*
X73005588Y48348810D01*
X73005586Y48348808D01*
X72990149Y48327561D01*
X72903768Y48208669D01*
X72825128Y48054328D01*
X72771597Y47889578D01*
X72753394Y47774648D01*
X72744500Y47718491D01*
X71900500Y47718491D01*
X71900500Y50258491D01*
X72744500Y50258491D01*
X72744500Y50085269D01*
X72771598Y49914179D01*
X72825127Y49749435D01*
X72903768Y49595092D01*
X73005586Y49454952D01*
X73128072Y49332466D01*
X73268212Y49230648D01*
X73422555Y49152007D01*
X73587299Y49098478D01*
X73758389Y49071380D01*
X73758390Y49071380D01*
X74731610Y49071380D01*
X74731611Y49071380D01*
X74902701Y49098478D01*
X75067445Y49152007D01*
X75221788Y49230648D01*
X75361928Y49332466D01*
X75484414Y49454952D01*
X75586232Y49595092D01*
X75664873Y49749435D01*
X75718402Y49914179D01*
X75745500Y50085269D01*
X75745500Y50258491D01*
X75744838Y50262668D01*
X75736371Y50316131D01*
X75718402Y50429581D01*
X75664873Y50594325D01*
X75586232Y50748668D01*
X75484414Y50888808D01*
X75361928Y51011294D01*
X75221788Y51113112D01*
X75067445Y51191753D01*
X74902701Y51245282D01*
X74902699Y51245283D01*
X74902698Y51245283D01*
X74771271Y51266099D01*
X74731611Y51272380D01*
X73758389Y51272380D01*
X73718728Y51266099D01*
X73587302Y51245283D01*
X73422552Y51191752D01*
X73268211Y51113112D01*
X73214427Y51074035D01*
X73128072Y51011294D01*
X73128070Y51011292D01*
X73128069Y51011292D01*
X73005588Y50888811D01*
X73005588Y50888810D01*
X73005586Y50888808D01*
X72961859Y50828624D01*
X72903768Y50748669D01*
X72825128Y50594328D01*
X72771597Y50429578D01*
X72745161Y50262666D01*
X72744500Y50258491D01*
X71900500Y50258491D01*
X71900500Y52798491D01*
X72744500Y52798491D01*
X72744500Y52625270D01*
X72768618Y52472989D01*
X72771598Y52454179D01*
X72825127Y52289435D01*
X72903768Y52135092D01*
X73005586Y51994952D01*
X73128072Y51872466D01*
X73268212Y51770648D01*
X73422555Y51692007D01*
X73587299Y51638478D01*
X73758389Y51611380D01*
X73758390Y51611380D01*
X74731610Y51611380D01*
X74731611Y51611380D01*
X74902701Y51638478D01*
X75067445Y51692007D01*
X75221788Y51770648D01*
X75361928Y51872466D01*
X75484414Y51994952D01*
X75586232Y52135092D01*
X75664873Y52289435D01*
X75718402Y52454179D01*
X75745500Y52625269D01*
X75745500Y52798491D01*
X75718402Y52969581D01*
X75664873Y53134325D01*
X75586232Y53288668D01*
X75484414Y53428808D01*
X75361928Y53551294D01*
X75221788Y53653112D01*
X75067447Y53731752D01*
X75067446Y53731753D01*
X75067445Y53731753D01*
X74902701Y53785282D01*
X74902699Y53785283D01*
X74902698Y53785283D01*
X74771271Y53806099D01*
X74731611Y53812380D01*
X73758389Y53812380D01*
X73718728Y53806099D01*
X73587302Y53785283D01*
X73422552Y53731752D01*
X73268211Y53653112D01*
X73232273Y53627001D01*
X73128072Y53551294D01*
X73128070Y53551292D01*
X73128069Y53551292D01*
X73005588Y53428811D01*
X73005588Y53428810D01*
X73005586Y53428808D01*
X72983208Y53398007D01*
X72903768Y53288669D01*
X72825128Y53134328D01*
X72825127Y53134326D01*
X72825127Y53134325D01*
X72798362Y53051953D01*
X72771597Y52969578D01*
X72744500Y52798491D01*
X71900500Y52798491D01*
X71900500Y55338491D01*
X72744500Y55338491D01*
X72744500Y55165269D01*
X72771598Y54994179D01*
X72825127Y54829435D01*
X72903768Y54675092D01*
X73005586Y54534952D01*
X73128072Y54412466D01*
X73268212Y54310648D01*
X73422555Y54232007D01*
X73587299Y54178478D01*
X73758389Y54151380D01*
X73758390Y54151380D01*
X74731610Y54151380D01*
X74731611Y54151380D01*
X74902701Y54178478D01*
X75067445Y54232007D01*
X75221788Y54310648D01*
X75361928Y54412466D01*
X75484414Y54534952D01*
X75586232Y54675092D01*
X75664873Y54829435D01*
X75718402Y54994179D01*
X75745500Y55165269D01*
X75745500Y55338491D01*
X75718402Y55509581D01*
X75664873Y55674325D01*
X75586232Y55828668D01*
X75484414Y55968808D01*
X75361928Y56091294D01*
X75221788Y56193112D01*
X75067445Y56271753D01*
X74902701Y56325282D01*
X74902699Y56325283D01*
X74902698Y56325283D01*
X74771271Y56346099D01*
X74731611Y56352380D01*
X73758389Y56352380D01*
X73718728Y56346099D01*
X73587302Y56325283D01*
X73422552Y56271752D01*
X73268211Y56193112D01*
X73239243Y56172065D01*
X73128072Y56091294D01*
X73128070Y56091292D01*
X73128069Y56091292D01*
X73005588Y55968811D01*
X73005588Y55968810D01*
X73005586Y55968808D01*
X72961859Y55908624D01*
X72903768Y55828669D01*
X72825128Y55674328D01*
X72771597Y55509578D01*
X72765842Y55473241D01*
X72744500Y55338491D01*
X71900500Y55338491D01*
X71900500Y58041881D01*
X72770884Y58041881D01*
X72770885Y58041880D01*
X73929314Y58041880D01*
X73924920Y58037486D01*
X73872259Y57946274D01*
X73845000Y57844541D01*
X73845000Y57739219D01*
X73872259Y57637486D01*
X73924920Y57546274D01*
X73929314Y57541880D01*
X72770885Y57541880D01*
X72772085Y57534296D01*
X72825591Y57369625D01*
X72904195Y57215356D01*
X73005967Y57075278D01*
X73128397Y56952848D01*
X73268475Y56851076D01*
X73422742Y56772472D01*
X73587415Y56718966D01*
X73758429Y56691880D01*
X73995000Y56691880D01*
X73995000Y57476194D01*
X73999394Y57471800D01*
X74090606Y57419139D01*
X74192339Y57391880D01*
X74297661Y57391880D01*
X74399394Y57419139D01*
X74490606Y57471800D01*
X74495000Y57476194D01*
X74495000Y56691880D01*
X74731571Y56691880D01*
X74902584Y56718966D01*
X75067257Y56772472D01*
X75221524Y56851076D01*
X75361602Y56952848D01*
X75484032Y57075278D01*
X75585804Y57215356D01*
X75664408Y57369625D01*
X75717914Y57534296D01*
X75719115Y57541880D01*
X74560686Y57541880D01*
X74565080Y57546274D01*
X74617741Y57637486D01*
X74645000Y57739219D01*
X74645000Y57844541D01*
X74617741Y57946274D01*
X74565080Y58037486D01*
X74560686Y58041880D01*
X75719115Y58041880D01*
X75719115Y58041881D01*
X75717914Y58049465D01*
X75664408Y58214136D01*
X75585804Y58368405D01*
X75484032Y58508483D01*
X75361602Y58630913D01*
X75221524Y58732685D01*
X75067257Y58811289D01*
X74902584Y58864795D01*
X74731571Y58891880D01*
X74495000Y58891880D01*
X74495000Y58107566D01*
X74490606Y58111960D01*
X74399394Y58164621D01*
X74297661Y58191880D01*
X74192339Y58191880D01*
X74090606Y58164621D01*
X73999394Y58111960D01*
X73995000Y58107566D01*
X73995000Y58891880D01*
X73758429Y58891880D01*
X73587415Y58864795D01*
X73422742Y58811289D01*
X73268475Y58732685D01*
X73128397Y58630913D01*
X73005967Y58508483D01*
X72904195Y58368405D01*
X72825591Y58214136D01*
X72772085Y58049465D01*
X72770884Y58041881D01*
X71900500Y58041881D01*
X71900500Y58618305D01*
X71902736Y58625923D01*
X71901467Y58633758D01*
X71912439Y58658967D01*
X71920185Y58685344D01*
X71926894Y58692175D01*
X71929352Y58697821D01*
X71955605Y58721405D01*
X72014959Y58761064D01*
X72074036Y58800536D01*
X72836680Y59563182D01*
X72898003Y59596666D01*
X72924361Y59599500D01*
X78575638Y59599500D01*
X78642677Y59579815D01*
G37*
%TD.AperFunction*%
%TA.AperFunction,Conductor*%
G36*
X120943039Y65979815D02*
G01*
X120988794Y65927011D01*
X121000000Y65875500D01*
X121000000Y55000000D01*
X131875500Y55000000D01*
X131942539Y54980315D01*
X131988294Y54927511D01*
X131999500Y54876000D01*
X131999500Y11624000D01*
X131979815Y11556961D01*
X131927011Y11511206D01*
X131875500Y11500000D01*
X121000000Y11500000D01*
X121000000Y624500D01*
X120980315Y557461D01*
X120927511Y511706D01*
X120876000Y500500D01*
X11624000Y500500D01*
X11556961Y520185D01*
X11511206Y572989D01*
X11500000Y624500D01*
X11500000Y11500000D01*
X624500Y11500000D01*
X557461Y11519685D01*
X511706Y11572489D01*
X500500Y11624000D01*
X500500Y15256701D01*
X3149500Y15256701D01*
X3149500Y13460966D01*
X3149501Y13460960D01*
X3155908Y13401353D01*
X3206202Y13266508D01*
X3206206Y13266501D01*
X3292452Y13151292D01*
X3292455Y13151289D01*
X3407664Y13065043D01*
X3407671Y13065039D01*
X3542517Y13014745D01*
X3542516Y13014745D01*
X3549444Y13014001D01*
X3602127Y13008336D01*
X5397872Y13008337D01*
X5457483Y13014745D01*
X5592331Y13065040D01*
X5707546Y13151290D01*
X5793796Y13266505D01*
X5808003Y13304595D01*
X5820339Y13337669D01*
X5862210Y13393603D01*
X5927675Y13418020D01*
X5936521Y13418336D01*
X11936535Y13418336D01*
X12003574Y13398651D01*
X12047020Y13350630D01*
X12070474Y13304597D01*
X12098148Y13266508D01*
X12186172Y13145354D01*
X12325354Y13006172D01*
X12484595Y12890476D01*
X12567455Y12848257D01*
X12659970Y12801118D01*
X12659972Y12801118D01*
X12659975Y12801116D01*
X12715675Y12783018D01*
X12847173Y12740291D01*
X13041578Y12709500D01*
X13041583Y12709500D01*
X13238422Y12709500D01*
X13432826Y12740291D01*
X13620025Y12801116D01*
X13795405Y12890476D01*
X13954646Y13006172D01*
X14093828Y13145354D01*
X14209524Y13304595D01*
X14232980Y13350631D01*
X14280954Y13401426D01*
X14343465Y13418336D01*
X15204398Y13418336D01*
X15271437Y13398651D01*
X15292079Y13382017D01*
X16855727Y11818370D01*
X16889212Y11757047D01*
X16890519Y11750087D01*
X16917819Y11577718D01*
X16976214Y11398000D01*
X17059171Y11235189D01*
X17062000Y11229637D01*
X17173070Y11076763D01*
X17306687Y10943146D01*
X17459561Y10832076D01*
X17539107Y10791546D01*
X17627923Y10746291D01*
X17627925Y10746291D01*
X17627928Y10746289D01*
X17724257Y10714990D01*
X17807641Y10687896D01*
X17994274Y10658336D01*
X17994279Y10658336D01*
X18183246Y10658336D01*
X18369878Y10687896D01*
X18549592Y10746289D01*
X18717959Y10832076D01*
X18870833Y10943146D01*
X19004450Y11076763D01*
X19115520Y11229637D01*
X19201307Y11398004D01*
X19259700Y11577718D01*
X19271059Y11649438D01*
X19289260Y11764350D01*
X19289260Y11953323D01*
X19259700Y12139955D01*
X19201305Y12319673D01*
X19115519Y12488036D01*
X19110948Y12494328D01*
X19004450Y12640909D01*
X18870833Y12774526D01*
X18717959Y12885596D01*
X18549596Y12971382D01*
X18369878Y13029777D01*
X18197509Y13057077D01*
X18134374Y13087006D01*
X18129226Y13091869D01*
X16202799Y15018298D01*
X16202791Y15018304D01*
X16125973Y15069633D01*
X16125959Y15069640D01*
X16120253Y15073453D01*
X16055307Y15116849D01*
X15958740Y15156848D01*
X15953840Y15158878D01*
X15953828Y15158884D01*
X15891426Y15184731D01*
X15891418Y15184733D01*
X15717456Y15219336D01*
X15717452Y15219336D01*
X15717451Y15219336D01*
X13886429Y15219336D01*
X13857563Y15227812D01*
X13828097Y15233913D01*
X13824380Y15237556D01*
X13819390Y15239021D01*
X13799694Y15261752D01*
X13778198Y15282820D01*
X13777040Y15287895D01*
X13773635Y15291825D01*
X13769353Y15321599D01*
X13762662Y15350941D01*
X13764431Y15355835D01*
X13763691Y15360983D01*
X13776188Y15388349D01*
X13786421Y15416647D01*
X13791356Y15421562D01*
X13792716Y15424539D01*
X13811126Y15441853D01*
X13812316Y15442764D01*
X13954646Y15546172D01*
X13977488Y15569015D01*
X13984033Y15574017D01*
X14009261Y15583716D01*
X14032978Y15596666D01*
X14046818Y15598155D01*
X14049250Y15599089D01*
X14051390Y15598646D01*
X14059336Y15599500D01*
X18285592Y15599500D01*
X18352631Y15579815D01*
X18373273Y15563182D01*
X18459160Y15477296D01*
X18492645Y15415973D01*
X18493952Y15409012D01*
X18521252Y15236644D01*
X18579647Y15056926D01*
X18665433Y14888563D01*
X18776503Y14735689D01*
X18910120Y14602072D01*
X19062994Y14491002D01*
X19121502Y14461191D01*
X19231356Y14405217D01*
X19231358Y14405217D01*
X19231361Y14405215D01*
X19327690Y14373916D01*
X19411074Y14346822D01*
X19597707Y14317262D01*
X19597712Y14317262D01*
X19786679Y14317262D01*
X19973311Y14346822D01*
X19995953Y14354179D01*
X20153025Y14405215D01*
X20321392Y14491002D01*
X20462578Y14593581D01*
X20528383Y14617060D01*
X20535463Y14617262D01*
X23715911Y14617262D01*
X23782950Y14597577D01*
X23796099Y14586981D01*
X23796521Y14587474D01*
X23800216Y14584319D01*
X23800225Y14584310D01*
X23953099Y14473240D01*
X23976747Y14461191D01*
X24121461Y14387455D01*
X24121463Y14387455D01*
X24121466Y14387453D01*
X24215489Y14356903D01*
X24301179Y14329060D01*
X24487812Y14299500D01*
X24487817Y14299500D01*
X24676784Y14299500D01*
X24863416Y14329060D01*
X24918081Y14346822D01*
X25043130Y14387453D01*
X25211497Y14473240D01*
X25364371Y14584310D01*
X25497988Y14717927D01*
X25609058Y14870801D01*
X25694845Y15039168D01*
X25753238Y15218882D01*
X25763365Y15282820D01*
X25782798Y15405514D01*
X25782798Y15594487D01*
X25753238Y15781119D01*
X25694843Y15960837D01*
X25648709Y16051380D01*
X25609058Y16129199D01*
X25497988Y16282073D01*
X25364371Y16415690D01*
X25211497Y16526760D01*
X25043134Y16612546D01*
X24863416Y16670941D01*
X24676784Y16700500D01*
X24676779Y16700500D01*
X24487817Y16700500D01*
X24487812Y16700500D01*
X24301179Y16670941D01*
X24121461Y16612546D01*
X23953095Y16526758D01*
X23836359Y16441944D01*
X23770553Y16418464D01*
X23763474Y16418262D01*
X20535463Y16418262D01*
X20468424Y16437947D01*
X20462590Y16441935D01*
X20321392Y16544522D01*
X20282293Y16564444D01*
X20153029Y16630308D01*
X19973311Y16688703D01*
X19800943Y16716003D01*
X19737808Y16745932D01*
X19732660Y16750795D01*
X19283996Y17199460D01*
X19283993Y17199463D01*
X19227188Y17237419D01*
X19227179Y17237424D01*
X19222469Y17240571D01*
X19136502Y17298013D01*
X19054561Y17331954D01*
X19048554Y17334442D01*
X19048549Y17334445D01*
X18972621Y17365895D01*
X18972613Y17365897D01*
X18798651Y17400500D01*
X18798647Y17400500D01*
X18798646Y17400500D01*
X14059336Y17400500D01*
X14037608Y17406880D01*
X14015030Y17408685D01*
X14001438Y17417501D01*
X13992297Y17420185D01*
X13984196Y17425859D01*
X13977560Y17430914D01*
X13954646Y17453828D01*
X13799556Y17566508D01*
X13798439Y17567359D01*
X13778529Y17594425D01*
X13758028Y17621012D01*
X13757903Y17622465D01*
X13757038Y17623641D01*
X13754921Y17657176D01*
X13752049Y17690626D01*
X13752729Y17691917D01*
X13752638Y17693372D01*
X13768972Y17722699D01*
X13784655Y17752421D01*
X13785926Y17753139D01*
X13786636Y17754413D01*
X13816237Y17770257D01*
X13845494Y17786778D01*
X13847546Y17787014D01*
X13848237Y17787383D01*
X13849728Y17787264D01*
X13873579Y17790000D01*
X13937828Y17790000D01*
X13937844Y17790001D01*
X13997372Y17796402D01*
X13997379Y17796404D01*
X14132086Y17846646D01*
X14132093Y17846650D01*
X14247187Y17932810D01*
X14247190Y17932813D01*
X14333350Y18047907D01*
X14333354Y18047914D01*
X14383596Y18182621D01*
X14383598Y18182628D01*
X14389999Y18242156D01*
X14390000Y18242173D01*
X14390000Y18790000D01*
X13455686Y18790000D01*
X13460080Y18794394D01*
X13512741Y18885606D01*
X13540000Y18987339D01*
X13540000Y19092661D01*
X13512741Y19194394D01*
X13460080Y19285606D01*
X13455686Y19290000D01*
X14390000Y19290000D01*
X14390000Y19837828D01*
X14389999Y19837845D01*
X14383598Y19897373D01*
X14383596Y19897380D01*
X14333354Y20032087D01*
X14333350Y20032094D01*
X14247190Y20147188D01*
X14247187Y20147191D01*
X14132093Y20233351D01*
X14132086Y20233355D01*
X13997379Y20283597D01*
X13997372Y20283599D01*
X13937844Y20290000D01*
X13390000Y20290000D01*
X13390000Y19355686D01*
X13385606Y19360080D01*
X13294394Y19412741D01*
X13192661Y19440000D01*
X13087339Y19440000D01*
X12985606Y19412741D01*
X12894394Y19360080D01*
X12890000Y19355686D01*
X12890000Y20290000D01*
X12342155Y20290000D01*
X12282627Y20283599D01*
X12282620Y20283597D01*
X12147913Y20233355D01*
X12147906Y20233351D01*
X12032812Y20147191D01*
X12032809Y20147188D01*
X11946649Y20032094D01*
X11946645Y20032087D01*
X11896403Y19897380D01*
X11896401Y19897373D01*
X11890000Y19837845D01*
X11890000Y19290000D01*
X12824314Y19290000D01*
X12819920Y19285606D01*
X12767259Y19194394D01*
X12740000Y19092661D01*
X12740000Y18987339D01*
X12767259Y18885606D01*
X12819920Y18794394D01*
X12824314Y18790000D01*
X11890000Y18790000D01*
X11890000Y18242156D01*
X11896401Y18182628D01*
X11896403Y18182621D01*
X11946645Y18047914D01*
X11946649Y18047907D01*
X12032809Y17932813D01*
X12032812Y17932810D01*
X12147906Y17846650D01*
X12147913Y17846646D01*
X12282620Y17796404D01*
X12282627Y17796402D01*
X12342155Y17790001D01*
X12342172Y17790000D01*
X12406421Y17790000D01*
X12473460Y17770315D01*
X12519215Y17717511D01*
X12529159Y17648353D01*
X12500134Y17584797D01*
X12479307Y17565683D01*
X12325354Y17453828D01*
X12325352Y17453826D01*
X12325351Y17453826D01*
X12186174Y17314649D01*
X12186174Y17314648D01*
X12186172Y17314646D01*
X12140940Y17252390D01*
X12070476Y17155406D01*
X11981117Y16980030D01*
X11920290Y16792827D01*
X11889500Y16598423D01*
X11889500Y16401578D01*
X11920290Y16207174D01*
X11981117Y16019971D01*
X12070476Y15844595D01*
X12186172Y15685354D01*
X12325354Y15546172D01*
X12420153Y15477296D01*
X12466457Y15443654D01*
X12509122Y15388323D01*
X12515101Y15318710D01*
X12482495Y15256915D01*
X12421656Y15222558D01*
X12393571Y15219336D01*
X5965122Y15219336D01*
X5898083Y15239021D01*
X5852328Y15291825D01*
X5844445Y15314821D01*
X5844091Y15316315D01*
X5844091Y15316319D01*
X5816144Y15391249D01*
X5793797Y15451165D01*
X5793793Y15451172D01*
X5707547Y15566381D01*
X5707544Y15566384D01*
X5592335Y15652630D01*
X5592328Y15652634D01*
X5457482Y15702928D01*
X5457483Y15702928D01*
X5397883Y15709335D01*
X5397881Y15709336D01*
X5397873Y15709336D01*
X5397865Y15709336D01*
X5387309Y15709336D01*
X5320270Y15729021D01*
X5299628Y15745655D01*
X4629408Y16415874D01*
X4692993Y16432911D01*
X4807007Y16498737D01*
X4900099Y16591829D01*
X4965925Y16705843D01*
X4982962Y16769428D01*
X5615270Y16137119D01*
X5615270Y16137120D01*
X5654622Y16191282D01*
X5751095Y16380619D01*
X5816757Y16582706D01*
X5816757Y16582709D01*
X5850000Y16792590D01*
X5850000Y17005083D01*
X5816757Y17214964D01*
X5816757Y17214967D01*
X5751095Y17417054D01*
X5654624Y17606387D01*
X5615270Y17660554D01*
X5615269Y17660554D01*
X4982962Y17028246D01*
X4965925Y17091829D01*
X4900099Y17205843D01*
X4807007Y17298935D01*
X4692993Y17364761D01*
X4629409Y17381799D01*
X5261716Y18014108D01*
X5207550Y18053461D01*
X5018217Y18149932D01*
X4816129Y18215594D01*
X4606246Y18248836D01*
X4393754Y18248836D01*
X4183872Y18215594D01*
X4183869Y18215594D01*
X3981782Y18149932D01*
X3792439Y18053456D01*
X3738282Y18014109D01*
X3738282Y18014108D01*
X4370591Y17381799D01*
X4307007Y17364761D01*
X4192993Y17298935D01*
X4099901Y17205843D01*
X4034075Y17091829D01*
X4017037Y17028245D01*
X3384728Y17660554D01*
X3384727Y17660554D01*
X3345380Y17606397D01*
X3248904Y17417054D01*
X3183242Y17214967D01*
X3183242Y17214964D01*
X3150000Y17005083D01*
X3150000Y16792590D01*
X3183242Y16582709D01*
X3183242Y16582706D01*
X3248904Y16380619D01*
X3345375Y16191286D01*
X3384728Y16137120D01*
X4017037Y16769428D01*
X4034075Y16705843D01*
X4099901Y16591829D01*
X4192993Y16498737D01*
X4307007Y16432911D01*
X4370590Y16415874D01*
X3700370Y15745655D01*
X3639047Y15712170D01*
X3612698Y15709336D01*
X3602134Y15709336D01*
X3602123Y15709335D01*
X3542516Y15702928D01*
X3407671Y15652634D01*
X3407664Y15652630D01*
X3292455Y15566384D01*
X3292452Y15566381D01*
X3206206Y15451172D01*
X3206202Y15451165D01*
X3155908Y15316319D01*
X3149501Y15256720D01*
X3149500Y15256701D01*
X500500Y15256701D01*
X500500Y31397865D01*
X3149500Y31397865D01*
X3149500Y29602130D01*
X3149501Y29602124D01*
X3155908Y29542517D01*
X3206202Y29407672D01*
X3206206Y29407665D01*
X3292452Y29292456D01*
X3292455Y29292453D01*
X3407664Y29206207D01*
X3407671Y29206203D01*
X3542517Y29155909D01*
X3542516Y29155909D01*
X3549444Y29155165D01*
X3602127Y29149500D01*
X5397872Y29149501D01*
X5457483Y29155909D01*
X5592331Y29206204D01*
X5707546Y29292454D01*
X5793796Y29407669D01*
X5811091Y29454040D01*
X5835258Y29518833D01*
X5877129Y29574767D01*
X5942593Y29599184D01*
X5951440Y29599500D01*
X12180664Y29599500D01*
X12247703Y29579815D01*
X12268345Y29563181D01*
X12325354Y29506172D01*
X12484595Y29390476D01*
X12518894Y29373000D01*
X12659970Y29301118D01*
X12659972Y29301118D01*
X12659975Y29301116D01*
X12847174Y29240291D01*
X12877524Y29235484D01*
X12940659Y29205555D01*
X12945808Y29200692D01*
X14066685Y28079815D01*
X15186967Y26959534D01*
X15220452Y26898211D01*
X15221759Y26891251D01*
X15249059Y26718882D01*
X15307454Y26539164D01*
X15341439Y26472466D01*
X15393240Y26370801D01*
X15504310Y26217927D01*
X15637927Y26084310D01*
X15790801Y25973240D01*
X15870347Y25932710D01*
X15959163Y25887455D01*
X15959165Y25887455D01*
X15959168Y25887453D01*
X16055497Y25856154D01*
X16138881Y25829060D01*
X16325514Y25799500D01*
X16325519Y25799500D01*
X16514486Y25799500D01*
X16701118Y25829060D01*
X16880832Y25887453D01*
X17049199Y25973240D01*
X17202073Y26084310D01*
X17335690Y26217927D01*
X17446760Y26370801D01*
X17532547Y26539168D01*
X17590940Y26718882D01*
X17593507Y26735092D01*
X17620500Y26905514D01*
X17620500Y27094487D01*
X17590940Y27281119D01*
X17545516Y27420917D01*
X17532547Y27460832D01*
X17532545Y27460835D01*
X17532545Y27460837D01*
X17446759Y27629200D01*
X17335690Y27782073D01*
X17202073Y27915690D01*
X17049199Y28026760D01*
X16977719Y28063181D01*
X16880836Y28112546D01*
X16701118Y28170941D01*
X16528749Y28198241D01*
X16465614Y28228170D01*
X16460466Y28233033D01*
X14426647Y30266853D01*
X14393162Y30328176D01*
X14391228Y30356711D01*
X14390500Y30356711D01*
X14390500Y30558423D01*
X14359709Y30752827D01*
X14322970Y30865897D01*
X14298884Y30940025D01*
X14298882Y30940028D01*
X14298882Y30940030D01*
X14209523Y31115406D01*
X14093828Y31274646D01*
X13954646Y31413828D01*
X13851806Y31488546D01*
X13795403Y31529526D01*
X13618787Y31619515D01*
X13567990Y31667489D01*
X13551195Y31735310D01*
X13573732Y31801445D01*
X13618787Y31840485D01*
X13795403Y31930475D01*
X13795402Y31930475D01*
X13795405Y31930476D01*
X13954646Y32046172D01*
X13971655Y32063181D01*
X14032978Y32096666D01*
X14059336Y32099500D01*
X17757185Y32099500D01*
X17824224Y32079815D01*
X17844866Y32063181D01*
X18157517Y31750530D01*
X18191002Y31689207D01*
X18191453Y31687040D01*
X18227197Y31507342D01*
X18227199Y31507334D01*
X18295082Y31343452D01*
X18393628Y31195966D01*
X18397499Y31191249D01*
X18397088Y31190912D01*
X18415662Y31165350D01*
X18473240Y31052348D01*
X18584310Y30899474D01*
X18717927Y30765857D01*
X18830821Y30683834D01*
X18870802Y30654786D01*
X18922502Y30628444D01*
X18973299Y30580470D01*
X18990094Y30512649D01*
X18967557Y30446514D01*
X18912842Y30403062D01*
X18890400Y30396342D01*
X18737340Y30365896D01*
X18737332Y30365894D01*
X18573459Y30298017D01*
X18573446Y30298010D01*
X18425965Y30199465D01*
X18425961Y30199462D01*
X18300538Y30074039D01*
X18300535Y30074035D01*
X18201990Y29926554D01*
X18201983Y29926541D01*
X18134106Y29762668D01*
X18134103Y29762659D01*
X18099500Y29588696D01*
X18099500Y23411304D01*
X18131237Y23251752D01*
X18134105Y23237334D01*
X18160707Y23173112D01*
X18201987Y23073453D01*
X18251401Y22999500D01*
X18255073Y22994004D01*
X18255076Y22993999D01*
X18300537Y22925962D01*
X18300538Y22925961D01*
X18755374Y22471127D01*
X18788859Y22409804D01*
X18791693Y22383446D01*
X18791693Y21441032D01*
X18772008Y21373993D01*
X18768020Y21368160D01*
X18721754Y21304481D01*
X18665433Y21226962D01*
X18579647Y21058599D01*
X18521252Y20878881D01*
X18491693Y20692249D01*
X18491693Y20503276D01*
X18521252Y20316644D01*
X18579647Y20136926D01*
X18633062Y20032094D01*
X18665433Y19968563D01*
X18776503Y19815689D01*
X18910120Y19682072D01*
X19062994Y19571002D01*
X19142540Y19530472D01*
X19231356Y19485217D01*
X19231358Y19485217D01*
X19231361Y19485215D01*
X19327690Y19453916D01*
X19411074Y19426822D01*
X19597707Y19397262D01*
X19597712Y19397262D01*
X19786679Y19397262D01*
X19973311Y19426822D01*
X19995953Y19434179D01*
X20153025Y19485215D01*
X20321392Y19571002D01*
X20474266Y19682072D01*
X20607883Y19815689D01*
X20718953Y19968563D01*
X20804740Y20136930D01*
X20863133Y20316644D01*
X20892693Y20503276D01*
X20892693Y20692249D01*
X20863133Y20878881D01*
X20808845Y21045959D01*
X20804740Y21058594D01*
X20804738Y21058597D01*
X20804738Y21058599D01*
X20736026Y21193453D01*
X20718953Y21226961D01*
X20616374Y21368148D01*
X20592895Y21433952D01*
X20592693Y21441032D01*
X20592693Y22896499D01*
X20592692Y22896500D01*
X20582288Y22948808D01*
X20582288Y22948810D01*
X20582288Y22948812D01*
X20558089Y23070466D01*
X20558088Y23070473D01*
X20503612Y23201988D01*
X20490206Y23234354D01*
X20490204Y23234356D01*
X20490204Y23234358D01*
X20391658Y23381841D01*
X20347534Y23425965D01*
X20266228Y23507271D01*
X20101619Y23671880D01*
X19936819Y23836681D01*
X19903334Y23898004D01*
X19900500Y23924362D01*
X19900500Y28475500D01*
X19920185Y28542539D01*
X19972989Y28588294D01*
X20024500Y28599500D01*
X25088693Y28599500D01*
X25088694Y28599501D01*
X25146682Y28611036D01*
X25262658Y28634104D01*
X25262661Y28634106D01*
X25262666Y28634106D01*
X25426547Y28701987D01*
X25474949Y28734329D01*
X25541624Y28755207D01*
X25609005Y28736724D01*
X25655696Y28684746D01*
X25658401Y28678679D01*
X25701984Y28573458D01*
X25701985Y28573456D01*
X25761063Y28485040D01*
X25780709Y28455638D01*
X25800536Y28425964D01*
X26063182Y28163319D01*
X26077888Y28136388D01*
X26094477Y28110574D01*
X26095368Y28104375D01*
X26096666Y28101998D01*
X26099500Y28075639D01*
X26099500Y28024500D01*
X26079815Y27957461D01*
X26027011Y27911706D01*
X25975500Y27900500D01*
X22343270Y27900500D01*
X22276231Y27920185D01*
X22270397Y27924173D01*
X22129199Y28026760D01*
X22057719Y28063181D01*
X21960836Y28112546D01*
X21781118Y28170941D01*
X21594486Y28200500D01*
X21594481Y28200500D01*
X21405519Y28200500D01*
X21405514Y28200500D01*
X21218881Y28170941D01*
X21039163Y28112546D01*
X20870800Y28026760D01*
X20783579Y27963390D01*
X20717927Y27915690D01*
X20717925Y27915688D01*
X20717924Y27915688D01*
X20584312Y27782076D01*
X20584312Y27782075D01*
X20584310Y27782073D01*
X20549621Y27734328D01*
X20473240Y27629200D01*
X20387454Y27460837D01*
X20329059Y27281119D01*
X20299500Y27094487D01*
X20299500Y26905514D01*
X20329059Y26718882D01*
X20387454Y26539164D01*
X20421439Y26472466D01*
X20473240Y26370801D01*
X20584310Y26217927D01*
X20717927Y26084310D01*
X20870801Y25973240D01*
X20950347Y25932710D01*
X21039163Y25887455D01*
X21039165Y25887455D01*
X21039168Y25887453D01*
X21135497Y25856154D01*
X21218881Y25829060D01*
X21405514Y25799500D01*
X21405519Y25799500D01*
X21594486Y25799500D01*
X21781118Y25829060D01*
X21960832Y25887453D01*
X22129199Y25973240D01*
X22270385Y26075819D01*
X22336190Y26099298D01*
X22343270Y26099500D01*
X26975500Y26099500D01*
X27042539Y26079815D01*
X27088294Y26027011D01*
X27099500Y25975500D01*
X27099500Y12883336D01*
X27079815Y12816297D01*
X27027011Y12770542D01*
X26975500Y12759336D01*
X24012030Y12759336D01*
X23944991Y12779021D01*
X23939157Y12783009D01*
X23797959Y12885596D01*
X23629596Y12971382D01*
X23449878Y13029777D01*
X23263246Y13059336D01*
X23263241Y13059336D01*
X23074279Y13059336D01*
X23074274Y13059336D01*
X22887641Y13029777D01*
X22707923Y12971382D01*
X22539560Y12885596D01*
X22465552Y12831825D01*
X22386687Y12774526D01*
X22386685Y12774524D01*
X22386684Y12774524D01*
X22253072Y12640912D01*
X22253072Y12640911D01*
X22253070Y12640909D01*
X22205370Y12575257D01*
X22142000Y12488036D01*
X22056214Y12319673D01*
X21997819Y12139955D01*
X21968260Y11953323D01*
X21968260Y11764350D01*
X21997819Y11577718D01*
X22056214Y11398000D01*
X22139171Y11235189D01*
X22142000Y11229637D01*
X22253070Y11076763D01*
X22386687Y10943146D01*
X22539561Y10832076D01*
X22619107Y10791546D01*
X22707923Y10746291D01*
X22707925Y10746291D01*
X22707928Y10746289D01*
X22804257Y10714990D01*
X22887641Y10687896D01*
X23074274Y10658336D01*
X23074279Y10658336D01*
X23263246Y10658336D01*
X23449878Y10687896D01*
X23629592Y10746289D01*
X23797959Y10832076D01*
X23939145Y10934655D01*
X24004950Y10958134D01*
X24012030Y10958336D01*
X27911309Y10958336D01*
X28088691Y10958336D01*
X48216802Y10958336D01*
X48283841Y10938651D01*
X48304483Y10922017D01*
X51523181Y7703319D01*
X51556666Y7641996D01*
X51559500Y7615638D01*
X51559500Y6951440D01*
X51539815Y6884401D01*
X51487011Y6838646D01*
X51478833Y6835258D01*
X51367671Y6793798D01*
X51367664Y6793794D01*
X51252455Y6707548D01*
X51252452Y6707545D01*
X51166206Y6592336D01*
X51166202Y6592329D01*
X51115908Y6457483D01*
X51109501Y6397884D01*
X51109500Y6397865D01*
X51109500Y4602130D01*
X51109501Y4602124D01*
X51115908Y4542517D01*
X51166202Y4407672D01*
X51166206Y4407665D01*
X51252452Y4292456D01*
X51252455Y4292453D01*
X51367664Y4206207D01*
X51367671Y4206203D01*
X51502517Y4155909D01*
X51502516Y4155909D01*
X51509444Y4155165D01*
X51562127Y4149500D01*
X53357872Y4149501D01*
X53417483Y4155909D01*
X53552331Y4206204D01*
X53667546Y4292454D01*
X53753796Y4407669D01*
X53804091Y4542517D01*
X53810500Y4602127D01*
X53810499Y4626021D01*
X53813330Y4639037D01*
X53823940Y4658475D01*
X53830179Y4679725D01*
X53846803Y4700357D01*
X53846808Y4700364D01*
X53846811Y4700366D01*
X53846818Y4700374D01*
X54517037Y5370592D01*
X54534075Y5307007D01*
X54599901Y5192993D01*
X54692993Y5099901D01*
X54807007Y5034075D01*
X54870590Y5017038D01*
X54238282Y4384731D01*
X54238282Y4384730D01*
X54292449Y4345376D01*
X54481782Y4248905D01*
X54683870Y4183243D01*
X54893754Y4150000D01*
X55106246Y4150000D01*
X55316127Y4183243D01*
X55316130Y4183243D01*
X55518217Y4248905D01*
X55707554Y4345378D01*
X55761716Y4384730D01*
X55761717Y4384730D01*
X55129408Y5017038D01*
X55192993Y5034075D01*
X55307007Y5099901D01*
X55400099Y5192993D01*
X55465925Y5307007D01*
X55482962Y5370591D01*
X56115270Y4738283D01*
X56115270Y4738284D01*
X56154622Y4792446D01*
X56251095Y4981783D01*
X56316757Y5183870D01*
X56316757Y5183873D01*
X56350000Y5393754D01*
X56350000Y5606247D01*
X56316757Y5816128D01*
X56316757Y5816131D01*
X56251095Y6018218D01*
X56154624Y6207551D01*
X56115270Y6261718D01*
X56115269Y6261718D01*
X55482962Y5629410D01*
X55465925Y5692993D01*
X55400099Y5807007D01*
X55307007Y5900099D01*
X55192993Y5965925D01*
X55129409Y5982963D01*
X55761716Y6615272D01*
X55707550Y6654625D01*
X55518217Y6751096D01*
X55316129Y6816758D01*
X55106246Y6850000D01*
X54893754Y6850000D01*
X54683872Y6816758D01*
X54683869Y6816758D01*
X54481782Y6751096D01*
X54292439Y6654620D01*
X54238282Y6615273D01*
X54238282Y6615272D01*
X54870591Y5982963D01*
X54807007Y5965925D01*
X54692993Y5900099D01*
X54599901Y5807007D01*
X54534075Y5692993D01*
X54517037Y5629409D01*
X53846818Y6299628D01*
X53813333Y6360951D01*
X53813330Y6360964D01*
X53810499Y6373985D01*
X53810499Y6397872D01*
X53804091Y6457483D01*
X53775926Y6532998D01*
X53753798Y6592327D01*
X53753793Y6592336D01*
X53667547Y6707545D01*
X53667544Y6707548D01*
X53552335Y6793794D01*
X53552329Y6793797D01*
X53441166Y6835259D01*
X53385233Y6877131D01*
X53360816Y6942595D01*
X53360500Y6951441D01*
X53360500Y6975500D01*
X53380185Y7042539D01*
X53432989Y7088294D01*
X53484500Y7099500D01*
X109208693Y7099500D01*
X109208694Y7099501D01*
X109382666Y7134105D01*
X109479233Y7174105D01*
X109546547Y7201987D01*
X109634959Y7261064D01*
X109694036Y7300536D01*
X122456680Y20063182D01*
X122518003Y20096666D01*
X122544361Y20099500D01*
X124588693Y20099500D01*
X124588694Y20099501D01*
X124762666Y20134105D01*
X124852256Y20171215D01*
X124926547Y20201987D01*
X125022221Y20265915D01*
X125074036Y20300536D01*
X125819463Y21045964D01*
X125827902Y21058594D01*
X125918013Y21193453D01*
X125985894Y21357334D01*
X125992883Y21392466D01*
X126020499Y21531305D01*
X126020500Y21531307D01*
X126020500Y22548561D01*
X126040185Y22615600D01*
X126092989Y22661355D01*
X126101168Y22664743D01*
X126212326Y22706202D01*
X126212326Y22706203D01*
X126212331Y22706204D01*
X126327546Y22792454D01*
X126413796Y22907669D01*
X126464091Y23042517D01*
X126470500Y23102127D01*
X126470499Y24897872D01*
X126464091Y24957483D01*
X126462810Y24960917D01*
X126413797Y25092329D01*
X126413793Y25092336D01*
X126327547Y25207545D01*
X126327544Y25207548D01*
X126212335Y25293794D01*
X126212329Y25293797D01*
X126101166Y25335259D01*
X126045233Y25377131D01*
X126020816Y25442595D01*
X126020500Y25451441D01*
X126020500Y28968692D01*
X126011793Y29012468D01*
X126011793Y29012469D01*
X125987598Y29134105D01*
X125985895Y29142666D01*
X125918013Y29306547D01*
X125918012Y29306548D01*
X125918009Y29306554D01*
X125819464Y29454036D01*
X125819461Y29454040D01*
X121574038Y33699463D01*
X121555513Y33711841D01*
X121479447Y33762666D01*
X121426547Y33798013D01*
X121344606Y33831954D01*
X121262666Y33865895D01*
X121262658Y33865897D01*
X121088696Y33900500D01*
X121088692Y33900500D01*
X121088691Y33900500D01*
X100531440Y33900500D01*
X100464401Y33920185D01*
X100418646Y33972989D01*
X100415258Y33981167D01*
X100373797Y34092329D01*
X100373793Y34092336D01*
X100287547Y34207545D01*
X100287544Y34207548D01*
X100172335Y34293794D01*
X100172328Y34293798D01*
X100037482Y34344092D01*
X100037483Y34344092D01*
X99977883Y34350499D01*
X99977881Y34350500D01*
X99977873Y34350500D01*
X99977864Y34350500D01*
X98182129Y34350500D01*
X98182123Y34350499D01*
X98122516Y34344092D01*
X97987671Y34293798D01*
X97987664Y34293794D01*
X97872455Y34207548D01*
X97872452Y34207545D01*
X97786206Y34092336D01*
X97786203Y34092331D01*
X97737189Y33960917D01*
X97695317Y33904984D01*
X97629853Y33880567D01*
X97561580Y33895419D01*
X97533326Y33916570D01*
X97419786Y34030110D01*
X97247820Y34155049D01*
X97058414Y34251556D01*
X97058413Y34251557D01*
X97058412Y34251557D01*
X96856243Y34317246D01*
X96856241Y34317247D01*
X96856240Y34317247D01*
X96694957Y34342792D01*
X96646287Y34350500D01*
X96433713Y34350500D01*
X96385042Y34342792D01*
X96223760Y34317247D01*
X96021585Y34251556D01*
X95832179Y34155049D01*
X95660213Y34030110D01*
X95509890Y33879787D01*
X95384949Y33707818D01*
X95380202Y33698501D01*
X95332227Y33647707D01*
X95264405Y33630913D01*
X95198271Y33653452D01*
X95159234Y33698505D01*
X95154626Y33707548D01*
X95115270Y33761718D01*
X95115269Y33761718D01*
X94482962Y33129410D01*
X94465925Y33192993D01*
X94400099Y33307007D01*
X94307007Y33400099D01*
X94192993Y33465925D01*
X94129409Y33482963D01*
X94761716Y34115272D01*
X94707550Y34154625D01*
X94518217Y34251096D01*
X94316129Y34316758D01*
X94106246Y34350000D01*
X93893754Y34350000D01*
X93683872Y34316758D01*
X93683869Y34316758D01*
X93481782Y34251096D01*
X93292439Y34154620D01*
X93238282Y34115273D01*
X93238282Y34115272D01*
X93870591Y33482963D01*
X93807007Y33465925D01*
X93692993Y33400099D01*
X93599901Y33307007D01*
X93534075Y33192993D01*
X93517037Y33129409D01*
X92884728Y33761718D01*
X92884727Y33761718D01*
X92845380Y33707560D01*
X92845376Y33707554D01*
X92840760Y33698495D01*
X92792781Y33647703D01*
X92724959Y33630913D01*
X92658826Y33653457D01*
X92619794Y33698507D01*
X92615051Y33707816D01*
X92615049Y33707819D01*
X92615048Y33707821D01*
X92490109Y33879787D01*
X92339786Y34030110D01*
X92167820Y34155049D01*
X91978414Y34251556D01*
X91978413Y34251557D01*
X91978412Y34251557D01*
X91776243Y34317246D01*
X91776241Y34317247D01*
X91776240Y34317247D01*
X91614957Y34342792D01*
X91566287Y34350500D01*
X91353713Y34350500D01*
X91305042Y34342792D01*
X91143760Y34317247D01*
X90941585Y34251556D01*
X90752179Y34155049D01*
X90580213Y34030110D01*
X90429890Y33879787D01*
X90304949Y33707818D01*
X90300484Y33699054D01*
X90252509Y33648258D01*
X90184688Y33631464D01*
X90118553Y33654002D01*
X90079516Y33699054D01*
X90075050Y33707818D01*
X89950109Y33879787D01*
X89856819Y33973077D01*
X89823334Y34034400D01*
X89820500Y34060758D01*
X89820500Y52668693D01*
X89815038Y52696149D01*
X89806846Y52737334D01*
X89806844Y52737342D01*
X89786854Y52837845D01*
X89785895Y52842666D01*
X89724325Y52991308D01*
X89718013Y53006547D01*
X89718012Y53006549D01*
X89718011Y53006551D01*
X89619465Y53154034D01*
X89564209Y53209290D01*
X89494035Y53279464D01*
X89436817Y53336683D01*
X89403333Y53398007D01*
X89403333Y53398012D01*
X89400500Y53424363D01*
X89400500Y54088694D01*
X89400499Y54088696D01*
X89365896Y54262659D01*
X89365893Y54262668D01*
X89298016Y54426541D01*
X89298009Y54426554D01*
X89199465Y54574034D01*
X89199464Y54574035D01*
X89074035Y54699464D01*
X78574036Y65199464D01*
X78574035Y65199465D01*
X78574030Y65199469D01*
X78519622Y65235822D01*
X78519616Y65235825D01*
X78514959Y65238937D01*
X78426547Y65298013D01*
X78344606Y65331954D01*
X78262666Y65365895D01*
X78262658Y65365897D01*
X78088696Y65400500D01*
X78088692Y65400500D01*
X78088691Y65400500D01*
X71588691Y65400500D01*
X71411309Y65400500D01*
X71411306Y65400500D01*
X71237341Y65365897D01*
X71237332Y65365894D01*
X71073459Y65298017D01*
X71073446Y65298010D01*
X70925965Y65199465D01*
X70925961Y65199462D01*
X70800538Y65074039D01*
X70800535Y65074035D01*
X70701990Y64926554D01*
X70701983Y64926541D01*
X70634106Y64762668D01*
X70634103Y64762659D01*
X70599500Y64588696D01*
X70599500Y63924363D01*
X70579815Y63857324D01*
X70563181Y63836682D01*
X68300538Y61574040D01*
X68300537Y61574039D01*
X68263742Y61518970D01*
X68261063Y61514960D01*
X68201987Y61426547D01*
X68176864Y61365894D01*
X68174049Y61359100D01*
X68174047Y61359095D01*
X68134106Y61262669D01*
X68134105Y61262666D01*
X68121533Y61199463D01*
X68099500Y61088696D01*
X68099500Y33411304D01*
X68134103Y33237342D01*
X68134105Y33237334D01*
X68153756Y33189893D01*
X68201985Y33073456D01*
X68261063Y32985040D01*
X68300537Y32925962D01*
X68300540Y32925959D01*
X69408656Y31817845D01*
X69475971Y31750530D01*
X69534086Y31692415D01*
X69681566Y31593871D01*
X69681579Y31593864D01*
X69781525Y31552466D01*
X69845454Y31525986D01*
X69888055Y31517512D01*
X70019425Y31491380D01*
X70019428Y31491380D01*
X70019429Y31491380D01*
X73171859Y31491380D01*
X73238898Y31471695D01*
X73244745Y31467698D01*
X73268207Y31450651D01*
X73268208Y31450651D01*
X73268212Y31450648D01*
X73422555Y31372007D01*
X73587299Y31318478D01*
X73758389Y31291380D01*
X73758390Y31291380D01*
X74731610Y31291380D01*
X74731611Y31291380D01*
X74902701Y31318478D01*
X75067445Y31372007D01*
X75221788Y31450648D01*
X75361928Y31552466D01*
X75484414Y31674952D01*
X75586232Y31815092D01*
X75664873Y31969435D01*
X75718402Y32134179D01*
X75745500Y32305269D01*
X75745500Y32478491D01*
X75718402Y32649581D01*
X75664873Y32814325D01*
X75586232Y32968668D01*
X75484414Y33108808D01*
X75361928Y33231294D01*
X75221788Y33333112D01*
X75067445Y33411753D01*
X74902701Y33465282D01*
X74902699Y33465283D01*
X74902698Y33465283D01*
X74771271Y33486099D01*
X74731611Y33492380D01*
X73758389Y33492380D01*
X73718728Y33486099D01*
X73587302Y33465283D01*
X73422552Y33411752D01*
X73268210Y33333111D01*
X73268207Y33333110D01*
X73244745Y33316062D01*
X73178939Y33292582D01*
X73171859Y33292380D01*
X70532481Y33292380D01*
X70465442Y33312065D01*
X70444800Y33328699D01*
X69936819Y33836681D01*
X69903334Y33898004D01*
X69900500Y33924362D01*
X69900500Y35018491D01*
X72744500Y35018491D01*
X72744500Y34845270D01*
X72770259Y34682628D01*
X72771598Y34674179D01*
X72825127Y34509435D01*
X72903768Y34355092D01*
X73005586Y34214952D01*
X73128072Y34092466D01*
X73268212Y33990648D01*
X73422555Y33912007D01*
X73587299Y33858478D01*
X73758389Y33831380D01*
X73758390Y33831380D01*
X74731610Y33831380D01*
X74731611Y33831380D01*
X74902701Y33858478D01*
X75067445Y33912007D01*
X75221788Y33990648D01*
X75361928Y34092466D01*
X75484414Y34214952D01*
X75586232Y34355092D01*
X75664873Y34509435D01*
X75718402Y34674179D01*
X75745500Y34845269D01*
X75745500Y35018491D01*
X75718402Y35189581D01*
X75664873Y35354325D01*
X75586232Y35508668D01*
X75484414Y35648808D01*
X75361928Y35771294D01*
X75221788Y35873112D01*
X75067445Y35951753D01*
X74902701Y36005282D01*
X74902699Y36005283D01*
X74902698Y36005283D01*
X74771271Y36026099D01*
X74731611Y36032380D01*
X73758389Y36032380D01*
X73718728Y36026099D01*
X73587302Y36005283D01*
X73422552Y35951752D01*
X73268211Y35873112D01*
X73212427Y35832582D01*
X73128072Y35771294D01*
X73128070Y35771292D01*
X73128069Y35771292D01*
X73005588Y35648811D01*
X73005588Y35648810D01*
X73005586Y35648808D01*
X72964793Y35592661D01*
X72903768Y35508669D01*
X72825128Y35354328D01*
X72771597Y35189578D01*
X72744500Y35018491D01*
X69900500Y35018491D01*
X69900500Y37677917D01*
X69903674Y37688729D01*
X69902470Y37699934D01*
X69913343Y37721656D01*
X69920185Y37744956D01*
X69928699Y37752335D01*
X69933745Y37762413D01*
X69954636Y37774809D01*
X69972989Y37790711D01*
X69984142Y37792315D01*
X69993834Y37798065D01*
X70018105Y37797199D01*
X70042147Y37800655D01*
X70052398Y37795974D01*
X70063659Y37795571D01*
X70083607Y37781721D01*
X70105703Y37771630D01*
X70113284Y37761116D01*
X70121052Y37755723D01*
X70139061Y37725370D01*
X70168046Y37655394D01*
X70168046Y37655393D01*
X70201984Y37573458D01*
X70201985Y37573456D01*
X70261063Y37485040D01*
X70300537Y37425962D01*
X70300540Y37425959D01*
X70828656Y36897845D01*
X70936501Y36790000D01*
X70954086Y36772415D01*
X71101566Y36673871D01*
X71101579Y36673864D01*
X71201525Y36632466D01*
X71265454Y36605986D01*
X71265456Y36605986D01*
X71265461Y36605984D01*
X71439424Y36571381D01*
X71439427Y36571380D01*
X71439429Y36571380D01*
X73171859Y36571380D01*
X73238898Y36551695D01*
X73244745Y36547698D01*
X73268207Y36530651D01*
X73268208Y36530651D01*
X73268212Y36530648D01*
X73422555Y36452007D01*
X73587299Y36398478D01*
X73758389Y36371380D01*
X73758390Y36371380D01*
X74731610Y36371380D01*
X74731611Y36371380D01*
X74902701Y36398478D01*
X75067445Y36452007D01*
X75221788Y36530648D01*
X75245255Y36547699D01*
X75311061Y36571178D01*
X75318141Y36571380D01*
X76975500Y36571380D01*
X77042539Y36551695D01*
X77088294Y36498891D01*
X77099500Y36447380D01*
X77099500Y31911304D01*
X77131895Y31748443D01*
X77134105Y31737334D01*
X77157312Y31681308D01*
X77201987Y31573453D01*
X77231340Y31529524D01*
X77246167Y31507334D01*
X77300537Y31425962D01*
X77300538Y31425961D01*
X85300536Y23425965D01*
X85366705Y23359796D01*
X85425966Y23300535D01*
X85573446Y23201991D01*
X85573459Y23201984D01*
X85643164Y23173112D01*
X85737334Y23134106D01*
X85737336Y23134106D01*
X85737341Y23134104D01*
X85911304Y23099501D01*
X85911307Y23099500D01*
X85911309Y23099500D01*
X111359242Y23099500D01*
X111426281Y23079815D01*
X111446923Y23063181D01*
X111540213Y22969891D01*
X111712179Y22844952D01*
X111712181Y22844951D01*
X111712184Y22844949D01*
X111901588Y22748443D01*
X112103757Y22682754D01*
X112313713Y22649500D01*
X112313714Y22649500D01*
X112526286Y22649500D01*
X112526287Y22649500D01*
X112736243Y22682754D01*
X112938412Y22748443D01*
X113127816Y22844949D01*
X113198769Y22896499D01*
X113299786Y22969891D01*
X113299788Y22969894D01*
X113299792Y22969896D01*
X113450104Y23120208D01*
X113450106Y23120212D01*
X113450109Y23120214D01*
X113575048Y23292180D01*
X113575047Y23292180D01*
X113575051Y23292184D01*
X113579514Y23300946D01*
X113627488Y23351741D01*
X113695308Y23368537D01*
X113761444Y23346001D01*
X113800484Y23300946D01*
X113800694Y23300535D01*
X113804951Y23292180D01*
X113929890Y23120214D01*
X114023181Y23026923D01*
X114056666Y22965600D01*
X114059500Y22939242D01*
X114059500Y21884362D01*
X114039815Y21817323D01*
X114023181Y21796681D01*
X112663319Y20436819D01*
X112601996Y20403334D01*
X112575638Y20400500D01*
X86024500Y20400500D01*
X85957461Y20420185D01*
X85911706Y20472989D01*
X85900500Y20524500D01*
X85900500Y22088692D01*
X85900499Y22088693D01*
X85889246Y22145269D01*
X85889246Y22145270D01*
X85889246Y22145272D01*
X85865896Y22262659D01*
X85865895Y22262666D01*
X85816771Y22381260D01*
X85798013Y22426547D01*
X85735236Y22520499D01*
X85699464Y22574036D01*
X85699462Y22574038D01*
X85699460Y22574041D01*
X77722158Y30551343D01*
X77651519Y30598542D01*
X77574664Y30649895D01*
X77574662Y30649896D01*
X77492727Y30683834D01*
X77492726Y30683834D01*
X77410786Y30717775D01*
X77410778Y30717777D01*
X77236816Y30752380D01*
X77236812Y30752380D01*
X77236811Y30752380D01*
X75318141Y30752380D01*
X75251102Y30772065D01*
X75245255Y30776062D01*
X75221792Y30793110D01*
X75221789Y30793111D01*
X75221790Y30793111D01*
X75221788Y30793112D01*
X75067445Y30871753D01*
X74902701Y30925282D01*
X74902699Y30925283D01*
X74902698Y30925283D01*
X74771271Y30946099D01*
X74731611Y30952380D01*
X73758389Y30952380D01*
X73718728Y30946099D01*
X73587302Y30925283D01*
X73422552Y30871752D01*
X73268211Y30793112D01*
X73212763Y30752826D01*
X73128072Y30691294D01*
X73128070Y30691292D01*
X73128069Y30691292D01*
X73005588Y30568811D01*
X73005588Y30568810D01*
X73005586Y30568808D01*
X72992898Y30551344D01*
X72903768Y30428669D01*
X72825128Y30274328D01*
X72771597Y30109578D01*
X72765968Y30074035D01*
X72744500Y29938491D01*
X72744500Y29765269D01*
X72747569Y29745894D01*
X72770339Y29602124D01*
X72771598Y29594179D01*
X72825127Y29429435D01*
X72903768Y29275092D01*
X73005586Y29134952D01*
X73128072Y29012466D01*
X73268212Y28910648D01*
X73422555Y28832007D01*
X73587299Y28778478D01*
X73758389Y28751380D01*
X73758390Y28751380D01*
X74731610Y28751380D01*
X74731611Y28751380D01*
X74902701Y28778478D01*
X75067445Y28832007D01*
X75221788Y28910648D01*
X75245255Y28927699D01*
X75311061Y28951178D01*
X75318141Y28951380D01*
X76723758Y28951380D01*
X76790797Y28931695D01*
X76811439Y28915061D01*
X84063181Y21663319D01*
X84096666Y21601996D01*
X84099500Y21575638D01*
X84099500Y19411305D01*
X84134103Y19237342D01*
X84134106Y19237333D01*
X84201983Y19073460D01*
X84201990Y19073447D01*
X84300535Y18925966D01*
X84300538Y18925962D01*
X84425961Y18800539D01*
X84425965Y18800536D01*
X84573446Y18701991D01*
X84573459Y18701984D01*
X84696363Y18651077D01*
X84737334Y18634106D01*
X84737336Y18634106D01*
X84737341Y18634104D01*
X84911304Y18599501D01*
X84911307Y18599500D01*
X84911309Y18599500D01*
X113088693Y18599500D01*
X113088694Y18599501D01*
X113262666Y18634105D01*
X113354168Y18672007D01*
X113426547Y18701987D01*
X113514959Y18761064D01*
X113574036Y18800536D01*
X114616748Y19843250D01*
X115659458Y20885958D01*
X115659460Y20885961D01*
X115659459Y20885961D01*
X115659464Y20885965D01*
X115682564Y20920536D01*
X115758013Y21033453D01*
X115780893Y21088691D01*
X115825895Y21197334D01*
X115860500Y21371309D01*
X115860500Y21548692D01*
X115860500Y22939242D01*
X115880185Y23006281D01*
X115896819Y23026923D01*
X115943349Y23073453D01*
X115990104Y23120208D01*
X115990106Y23120212D01*
X115990109Y23120214D01*
X116115048Y23292180D01*
X116115047Y23292180D01*
X116115051Y23292184D01*
X116119514Y23300946D01*
X116167488Y23351741D01*
X116235308Y23368537D01*
X116301444Y23346001D01*
X116340484Y23300946D01*
X116340694Y23300535D01*
X116344951Y23292180D01*
X116469890Y23120214D01*
X116620213Y22969891D01*
X116792179Y22844952D01*
X116792181Y22844951D01*
X116792184Y22844949D01*
X116981588Y22748443D01*
X117183757Y22682754D01*
X117393713Y22649500D01*
X117393714Y22649500D01*
X117606286Y22649500D01*
X117606287Y22649500D01*
X117816243Y22682754D01*
X118018412Y22748443D01*
X118207816Y22844949D01*
X118278769Y22896499D01*
X118379786Y22969891D01*
X118379788Y22969894D01*
X118379792Y22969896D01*
X118530104Y23120208D01*
X118530106Y23120212D01*
X118530109Y23120214D01*
X118615890Y23238283D01*
X118655051Y23292184D01*
X118659793Y23301492D01*
X118707763Y23352289D01*
X118775583Y23369089D01*
X118841719Y23346555D01*
X118880763Y23301500D01*
X118885373Y23292453D01*
X118924728Y23238284D01*
X119557037Y23870592D01*
X119574075Y23807007D01*
X119639901Y23692993D01*
X119732993Y23599901D01*
X119847007Y23534075D01*
X119910590Y23517038D01*
X119278282Y22884731D01*
X119278282Y22884730D01*
X119332449Y22845376D01*
X119521782Y22748905D01*
X119723870Y22683243D01*
X119933754Y22650000D01*
X120146246Y22650000D01*
X120356127Y22683243D01*
X120356130Y22683243D01*
X120558217Y22748905D01*
X120747554Y22845378D01*
X120801716Y22884730D01*
X120801717Y22884730D01*
X120169408Y23517038D01*
X120232993Y23534075D01*
X120347007Y23599901D01*
X120440099Y23692993D01*
X120505925Y23807007D01*
X120522962Y23870592D01*
X121155270Y23238283D01*
X121155270Y23238284D01*
X121194622Y23292445D01*
X121199232Y23301493D01*
X121247205Y23352291D01*
X121315025Y23369088D01*
X121381161Y23346553D01*
X121420204Y23301496D01*
X121424949Y23292183D01*
X121549890Y23120214D01*
X121700213Y22969891D01*
X121872179Y22844952D01*
X121872181Y22844951D01*
X121872184Y22844949D01*
X122061588Y22748443D01*
X122263757Y22682754D01*
X122473713Y22649500D01*
X122473714Y22649500D01*
X122686286Y22649500D01*
X122686287Y22649500D01*
X122896243Y22682754D01*
X123098412Y22748443D01*
X123287816Y22844949D01*
X123430767Y22948808D01*
X123459784Y22969890D01*
X123459784Y22969891D01*
X123459792Y22969896D01*
X123573329Y23083434D01*
X123634648Y23116916D01*
X123704340Y23111932D01*
X123760274Y23070061D01*
X123777189Y23039083D01*
X123826202Y22907672D01*
X123826206Y22907665D01*
X123912452Y22792456D01*
X123912455Y22792453D01*
X124027664Y22706207D01*
X124027673Y22706202D01*
X124138832Y22664743D01*
X124194766Y22622873D01*
X124219184Y22557408D01*
X124219500Y22548561D01*
X124219500Y22044362D01*
X124210855Y22014922D01*
X124204332Y21984935D01*
X124200577Y21979920D01*
X124199815Y21977323D01*
X124183181Y21956681D01*
X124163319Y21936819D01*
X124101996Y21903334D01*
X124075638Y21900500D01*
X122031306Y21900500D01*
X121941652Y21882666D01*
X121941651Y21882666D01*
X121857341Y21865897D01*
X121857332Y21865894D01*
X121693459Y21798017D01*
X121693446Y21798010D01*
X121545966Y21699466D01*
X121545964Y21699463D01*
X108783319Y8936819D01*
X108721996Y8903334D01*
X108695638Y8900500D01*
X52924362Y8900500D01*
X52857323Y8920185D01*
X52836681Y8936819D01*
X50281048Y11492452D01*
X50247563Y11553775D01*
X50252547Y11623467D01*
X50258237Y11636413D01*
X50264873Y11649435D01*
X50318402Y11814179D01*
X50345500Y11985269D01*
X50345500Y12158491D01*
X50345069Y12161211D01*
X72740820Y12161211D01*
X72740820Y11987989D01*
X72767918Y11816899D01*
X72787365Y11757047D01*
X72821448Y11652153D01*
X72871574Y11553775D01*
X72900088Y11497812D01*
X73001906Y11357672D01*
X73124392Y11235186D01*
X73264532Y11133368D01*
X73418875Y11054727D01*
X73583619Y11001198D01*
X73754709Y10974100D01*
X73754710Y10974100D01*
X74727930Y10974100D01*
X74727931Y10974100D01*
X74899021Y11001198D01*
X75063765Y11054727D01*
X75218108Y11133368D01*
X75358248Y11235186D01*
X75480734Y11357672D01*
X75582552Y11497812D01*
X75661193Y11652155D01*
X75714722Y11816899D01*
X75741820Y11987989D01*
X75741820Y12161211D01*
X75714722Y12332301D01*
X75661193Y12497045D01*
X75582552Y12651388D01*
X75480734Y12791528D01*
X75358248Y12914014D01*
X75218108Y13015832D01*
X75063765Y13094473D01*
X74899021Y13148002D01*
X74899019Y13148003D01*
X74899018Y13148003D01*
X74745104Y13172380D01*
X74727931Y13175100D01*
X73754709Y13175100D01*
X73737536Y13172380D01*
X73583622Y13148003D01*
X73418872Y13094472D01*
X73264531Y13015832D01*
X73203353Y12971383D01*
X73124392Y12914014D01*
X73124390Y12914012D01*
X73124389Y12914012D01*
X73001908Y12791531D01*
X73001908Y12791530D01*
X73001906Y12791528D01*
X72989552Y12774524D01*
X72900088Y12651389D01*
X72821448Y12497048D01*
X72767917Y12332298D01*
X72765917Y12319668D01*
X72740820Y12161211D01*
X50345069Y12161211D01*
X50318402Y12329581D01*
X50264873Y12494325D01*
X50186232Y12648668D01*
X50084414Y12788808D01*
X49961928Y12911294D01*
X49821788Y13013112D01*
X49667445Y13091753D01*
X49502701Y13145282D01*
X49502699Y13145283D01*
X49502698Y13145283D01*
X49371271Y13166099D01*
X49331611Y13172380D01*
X48358389Y13172380D01*
X48318728Y13166099D01*
X48187302Y13145283D01*
X48022552Y13091752D01*
X47868211Y13013112D01*
X47788256Y12955021D01*
X47728072Y12911294D01*
X47728070Y12911292D01*
X47728069Y12911292D01*
X47612433Y12795655D01*
X47551110Y12762170D01*
X47524752Y12759336D01*
X29024500Y12759336D01*
X28957461Y12779021D01*
X28911706Y12831825D01*
X28900500Y12883336D01*
X28900500Y14338453D01*
X28920185Y14405492D01*
X28972989Y14451247D01*
X29042147Y14461191D01*
X29080795Y14448938D01*
X29201461Y14387455D01*
X29201463Y14387455D01*
X29201466Y14387453D01*
X29295489Y14356903D01*
X29381179Y14329060D01*
X29567812Y14299500D01*
X29567817Y14299500D01*
X29756784Y14299500D01*
X29943416Y14329060D01*
X29998081Y14346822D01*
X30123130Y14387453D01*
X30291497Y14473240D01*
X30444371Y14584310D01*
X30558552Y14698491D01*
X47344500Y14698491D01*
X47344500Y14525270D01*
X47371166Y14356903D01*
X47371598Y14354179D01*
X47425127Y14189435D01*
X47503768Y14035092D01*
X47605586Y13894952D01*
X47728072Y13772466D01*
X47868212Y13670648D01*
X48022555Y13592007D01*
X48187299Y13538478D01*
X48358389Y13511380D01*
X48358390Y13511380D01*
X49331610Y13511380D01*
X49331611Y13511380D01*
X49502701Y13538478D01*
X49667445Y13592007D01*
X49821788Y13670648D01*
X49961928Y13772466D01*
X50084414Y13894952D01*
X50186232Y14035092D01*
X50264873Y14189435D01*
X50318402Y14354179D01*
X50345500Y14525269D01*
X50345500Y14698491D01*
X50345069Y14701211D01*
X72740820Y14701211D01*
X72740820Y14527990D01*
X72763078Y14387453D01*
X72767918Y14356899D01*
X72821447Y14192155D01*
X72900088Y14037812D01*
X73001906Y13897672D01*
X73124392Y13775186D01*
X73264532Y13673368D01*
X73418875Y13594727D01*
X73583619Y13541198D01*
X73754709Y13514100D01*
X73754710Y13514100D01*
X74727930Y13514100D01*
X74727931Y13514100D01*
X74899021Y13541198D01*
X75063765Y13594727D01*
X75218108Y13673368D01*
X75358248Y13775186D01*
X75480734Y13897672D01*
X75582552Y14037812D01*
X75661193Y14192155D01*
X75714722Y14356899D01*
X75741820Y14527989D01*
X75741820Y14701211D01*
X75714722Y14872301D01*
X75661193Y15037045D01*
X75582552Y15191388D01*
X75480734Y15331528D01*
X75358248Y15454014D01*
X75218108Y15555832D01*
X75063765Y15634473D01*
X74899021Y15688002D01*
X74899019Y15688003D01*
X74899018Y15688003D01*
X74745104Y15712380D01*
X74727931Y15715100D01*
X73754709Y15715100D01*
X73737536Y15712380D01*
X73583622Y15688003D01*
X73418872Y15634472D01*
X73264531Y15555832D01*
X73184576Y15497741D01*
X73124392Y15454014D01*
X73124390Y15454012D01*
X73124389Y15454012D01*
X73001908Y15331531D01*
X73001908Y15331530D01*
X73001906Y15331528D01*
X72964680Y15280291D01*
X72900088Y15191389D01*
X72821448Y15037048D01*
X72767917Y14872298D01*
X72740820Y14701211D01*
X50345069Y14701211D01*
X50318402Y14869581D01*
X50264873Y15034325D01*
X50186232Y15188668D01*
X50084414Y15328808D01*
X49961928Y15451294D01*
X49821788Y15553112D01*
X49667445Y15631753D01*
X49502701Y15685282D01*
X49502699Y15685283D01*
X49502698Y15685283D01*
X49350830Y15709336D01*
X49331611Y15712380D01*
X48358389Y15712380D01*
X48339170Y15709336D01*
X48187302Y15685283D01*
X48022552Y15631752D01*
X47868211Y15553112D01*
X47788256Y15495021D01*
X47728072Y15451294D01*
X47728070Y15451292D01*
X47728069Y15451292D01*
X47605588Y15328811D01*
X47605588Y15328810D01*
X47605586Y15328808D01*
X47595424Y15314821D01*
X47503768Y15188669D01*
X47425128Y15034328D01*
X47371597Y14869578D01*
X47344500Y14698491D01*
X30558552Y14698491D01*
X30577988Y14717927D01*
X30689058Y14870801D01*
X30774845Y15039168D01*
X30833238Y15218882D01*
X30855744Y15360983D01*
X30860538Y15391249D01*
X30890467Y15454384D01*
X30895312Y15459515D01*
X32674288Y17238491D01*
X47344500Y17238491D01*
X47344500Y17065270D01*
X47360434Y16964662D01*
X47371598Y16894179D01*
X47425127Y16729435D01*
X47503768Y16575092D01*
X47605586Y16434952D01*
X47728072Y16312466D01*
X47868212Y16210648D01*
X48022555Y16132007D01*
X48187299Y16078478D01*
X48358389Y16051380D01*
X48358390Y16051380D01*
X49331610Y16051380D01*
X49331611Y16051380D01*
X49502701Y16078478D01*
X49667445Y16132007D01*
X49821788Y16210648D01*
X49961928Y16312466D01*
X50084414Y16434952D01*
X50186232Y16575092D01*
X50264873Y16729435D01*
X50318402Y16894179D01*
X50345500Y17065269D01*
X50345500Y17238491D01*
X72744500Y17238491D01*
X72744500Y17065270D01*
X72760434Y16964662D01*
X72771598Y16894179D01*
X72825127Y16729435D01*
X72903768Y16575092D01*
X73005586Y16434952D01*
X73128072Y16312466D01*
X73268212Y16210648D01*
X73422555Y16132007D01*
X73587299Y16078478D01*
X73758389Y16051380D01*
X73758390Y16051380D01*
X74731610Y16051380D01*
X74731611Y16051380D01*
X74902701Y16078478D01*
X75067445Y16132007D01*
X75221788Y16210648D01*
X75361928Y16312466D01*
X75484414Y16434952D01*
X75586232Y16575092D01*
X75664873Y16729435D01*
X75718402Y16894179D01*
X75745500Y17065269D01*
X75745500Y17238491D01*
X75718402Y17409581D01*
X75664873Y17574325D01*
X75586232Y17728668D01*
X75484414Y17868808D01*
X75361928Y17991294D01*
X75221788Y18093112D01*
X75067447Y18171752D01*
X75067446Y18171753D01*
X75067445Y18171753D01*
X74902701Y18225282D01*
X74902699Y18225283D01*
X74902698Y18225283D01*
X74771271Y18246099D01*
X74731611Y18252380D01*
X73758389Y18252380D01*
X73718728Y18246099D01*
X73587302Y18225283D01*
X73422552Y18171752D01*
X73268211Y18093112D01*
X73213637Y18053461D01*
X73128072Y17991294D01*
X73128070Y17991292D01*
X73128069Y17991292D01*
X73005588Y17868811D01*
X73005588Y17868810D01*
X73005586Y17868808D01*
X72961859Y17808624D01*
X72903768Y17728669D01*
X72825128Y17574328D01*
X72771597Y17409578D01*
X72744500Y17238491D01*
X50345500Y17238491D01*
X50318402Y17409581D01*
X50264873Y17574325D01*
X50186232Y17728668D01*
X50084414Y17868808D01*
X49961928Y17991294D01*
X49821788Y18093112D01*
X49667447Y18171752D01*
X49667446Y18171753D01*
X49667445Y18171753D01*
X49502701Y18225282D01*
X49502699Y18225283D01*
X49502698Y18225283D01*
X49371271Y18246099D01*
X49331611Y18252380D01*
X48358389Y18252380D01*
X48318728Y18246099D01*
X48187302Y18225283D01*
X48022552Y18171752D01*
X47868211Y18093112D01*
X47813637Y18053461D01*
X47728072Y17991294D01*
X47728070Y17991292D01*
X47728069Y17991292D01*
X47605588Y17868811D01*
X47605588Y17868810D01*
X47605586Y17868808D01*
X47561859Y17808624D01*
X47503768Y17728669D01*
X47425128Y17574328D01*
X47371597Y17409578D01*
X47344500Y17238491D01*
X32674288Y17238491D01*
X35214289Y19778491D01*
X47344500Y19778491D01*
X47344500Y19605270D01*
X47363514Y19485215D01*
X47371598Y19434179D01*
X47425127Y19269435D01*
X47503768Y19115092D01*
X47605586Y18974952D01*
X47728072Y18852466D01*
X47868212Y18750648D01*
X48022555Y18672007D01*
X48187299Y18618478D01*
X48358389Y18591380D01*
X48358390Y18591380D01*
X49331610Y18591380D01*
X49331611Y18591380D01*
X49502701Y18618478D01*
X49667445Y18672007D01*
X49821788Y18750648D01*
X49961928Y18852466D01*
X50084414Y18974952D01*
X50186232Y19115092D01*
X50264873Y19269435D01*
X50318402Y19434179D01*
X50345500Y19605269D01*
X50345500Y19778491D01*
X72744500Y19778491D01*
X72744500Y19605270D01*
X72763514Y19485215D01*
X72771598Y19434179D01*
X72825127Y19269435D01*
X72903768Y19115092D01*
X73005586Y18974952D01*
X73128072Y18852466D01*
X73268212Y18750648D01*
X73422555Y18672007D01*
X73587299Y18618478D01*
X73758389Y18591380D01*
X73758390Y18591380D01*
X74731610Y18591380D01*
X74731611Y18591380D01*
X74902701Y18618478D01*
X75067445Y18672007D01*
X75221788Y18750648D01*
X75361928Y18852466D01*
X75484414Y18974952D01*
X75586232Y19115092D01*
X75664873Y19269435D01*
X75718402Y19434179D01*
X75745500Y19605269D01*
X75745500Y19778491D01*
X75718402Y19949581D01*
X75664873Y20114325D01*
X75586232Y20268668D01*
X75484414Y20408808D01*
X75361928Y20531294D01*
X75221788Y20633112D01*
X75067445Y20711753D01*
X74902701Y20765282D01*
X74902699Y20765283D01*
X74902698Y20765283D01*
X74771271Y20786099D01*
X74731611Y20792380D01*
X73758389Y20792380D01*
X73718728Y20786099D01*
X73587302Y20765283D01*
X73422552Y20711752D01*
X73268211Y20633112D01*
X73188256Y20575021D01*
X73128072Y20531294D01*
X73128070Y20531292D01*
X73128069Y20531292D01*
X73005588Y20408811D01*
X73005588Y20408810D01*
X73005586Y20408808D01*
X73001609Y20403334D01*
X72903768Y20268669D01*
X72825128Y20114328D01*
X72771597Y19949578D01*
X72744500Y19778491D01*
X50345500Y19778491D01*
X50318402Y19949581D01*
X50264873Y20114325D01*
X50186232Y20268668D01*
X50084414Y20408808D01*
X49961928Y20531294D01*
X49821788Y20633112D01*
X49667445Y20711753D01*
X49502701Y20765282D01*
X49502699Y20765283D01*
X49502698Y20765283D01*
X49371271Y20786099D01*
X49331611Y20792380D01*
X48358389Y20792380D01*
X48318728Y20786099D01*
X48187302Y20765283D01*
X48022552Y20711752D01*
X47868211Y20633112D01*
X47788256Y20575021D01*
X47728072Y20531294D01*
X47728070Y20531292D01*
X47728069Y20531292D01*
X47605588Y20408811D01*
X47605588Y20408810D01*
X47605586Y20408808D01*
X47601609Y20403334D01*
X47503768Y20268669D01*
X47425128Y20114328D01*
X47371597Y19949578D01*
X47344500Y19778491D01*
X35214289Y19778491D01*
X37754289Y22318491D01*
X47344500Y22318491D01*
X47344500Y22145270D01*
X47370688Y21979920D01*
X47371598Y21974179D01*
X47425127Y21809435D01*
X47503768Y21655092D01*
X47605586Y21514952D01*
X47728072Y21392466D01*
X47868212Y21290648D01*
X48022555Y21212007D01*
X48187299Y21158478D01*
X48358389Y21131380D01*
X48358390Y21131380D01*
X49331610Y21131380D01*
X49331611Y21131380D01*
X49502701Y21158478D01*
X49667445Y21212007D01*
X49821788Y21290648D01*
X49961928Y21392466D01*
X50084414Y21514952D01*
X50186232Y21655092D01*
X50264873Y21809435D01*
X50318402Y21974179D01*
X50345500Y22145269D01*
X50345500Y22318491D01*
X72744500Y22318491D01*
X72744500Y22145270D01*
X72770688Y21979920D01*
X72771598Y21974179D01*
X72825127Y21809435D01*
X72903768Y21655092D01*
X73005586Y21514952D01*
X73128072Y21392466D01*
X73268212Y21290648D01*
X73422555Y21212007D01*
X73587299Y21158478D01*
X73758389Y21131380D01*
X73758390Y21131380D01*
X74731610Y21131380D01*
X74731611Y21131380D01*
X74902701Y21158478D01*
X75067445Y21212007D01*
X75221788Y21290648D01*
X75361928Y21392466D01*
X75484414Y21514952D01*
X75586232Y21655092D01*
X75664873Y21809435D01*
X75718402Y21974179D01*
X75745500Y22145269D01*
X75745500Y22318491D01*
X75718402Y22489581D01*
X75664873Y22654325D01*
X75586232Y22808668D01*
X75484414Y22948808D01*
X75361928Y23071294D01*
X75221788Y23173112D01*
X75067445Y23251753D01*
X74902701Y23305282D01*
X74902699Y23305283D01*
X74902698Y23305283D01*
X74771271Y23326099D01*
X74731611Y23332380D01*
X73758389Y23332380D01*
X73718728Y23326099D01*
X73587302Y23305283D01*
X73422552Y23251752D01*
X73268211Y23173112D01*
X73214526Y23134107D01*
X73128072Y23071294D01*
X73128070Y23071292D01*
X73128069Y23071292D01*
X73005588Y22948811D01*
X73005588Y22948810D01*
X73005586Y22948808D01*
X72961859Y22888624D01*
X72903768Y22808669D01*
X72825128Y22654328D01*
X72771597Y22489578D01*
X72744500Y22318491D01*
X50345500Y22318491D01*
X50318402Y22489581D01*
X50264873Y22654325D01*
X50186232Y22808668D01*
X50084414Y22948808D01*
X49961928Y23071294D01*
X49821788Y23173112D01*
X49667445Y23251753D01*
X49502701Y23305282D01*
X49502699Y23305283D01*
X49502698Y23305283D01*
X49371271Y23326099D01*
X49331611Y23332380D01*
X48358389Y23332380D01*
X48318728Y23326099D01*
X48187302Y23305283D01*
X48022552Y23251752D01*
X47868211Y23173112D01*
X47814526Y23134107D01*
X47728072Y23071294D01*
X47728070Y23071292D01*
X47728069Y23071292D01*
X47605588Y22948811D01*
X47605588Y22948810D01*
X47605586Y22948808D01*
X47561859Y22888624D01*
X47503768Y22808669D01*
X47425128Y22654328D01*
X47371597Y22489578D01*
X47344500Y22318491D01*
X37754289Y22318491D01*
X40457679Y25021881D01*
X47370884Y25021881D01*
X47370885Y25021880D01*
X48529314Y25021880D01*
X48524920Y25017486D01*
X48472259Y24926274D01*
X48445000Y24824541D01*
X48445000Y24719219D01*
X48472259Y24617486D01*
X48524920Y24526274D01*
X48529314Y24521880D01*
X47370885Y24521880D01*
X47372085Y24514296D01*
X47425591Y24349625D01*
X47504195Y24195356D01*
X47605967Y24055278D01*
X47728397Y23932848D01*
X47868475Y23831076D01*
X48022742Y23752472D01*
X48187415Y23698966D01*
X48358429Y23671880D01*
X48595000Y23671880D01*
X48595000Y24456194D01*
X48599394Y24451800D01*
X48690606Y24399139D01*
X48792339Y24371880D01*
X48897661Y24371880D01*
X48999394Y24399139D01*
X49090606Y24451800D01*
X49095000Y24456194D01*
X49095000Y23671880D01*
X49331571Y23671880D01*
X49502584Y23698966D01*
X49667257Y23752472D01*
X49821524Y23831076D01*
X49961602Y23932848D01*
X50084032Y24055278D01*
X50185804Y24195356D01*
X50264408Y24349625D01*
X50317914Y24514296D01*
X50319115Y24521880D01*
X49160686Y24521880D01*
X49165080Y24526274D01*
X49217741Y24617486D01*
X49245000Y24719219D01*
X49245000Y24824541D01*
X49235903Y24858491D01*
X72744500Y24858491D01*
X72744500Y24685270D01*
X72770927Y24518412D01*
X72771598Y24514179D01*
X72825127Y24349435D01*
X72903768Y24195092D01*
X73005586Y24054952D01*
X73128072Y23932466D01*
X73268212Y23830648D01*
X73422555Y23752007D01*
X73587299Y23698478D01*
X73758389Y23671380D01*
X73758390Y23671380D01*
X74731610Y23671380D01*
X74731611Y23671380D01*
X74902701Y23698478D01*
X75067445Y23752007D01*
X75221788Y23830648D01*
X75361928Y23932466D01*
X75484414Y24054952D01*
X75586232Y24195092D01*
X75664873Y24349435D01*
X75718402Y24514179D01*
X75745500Y24685269D01*
X75745500Y24858491D01*
X75718402Y25029581D01*
X75664873Y25194325D01*
X75586232Y25348668D01*
X75484414Y25488808D01*
X75361928Y25611294D01*
X75221788Y25713112D01*
X75067445Y25791753D01*
X74902701Y25845282D01*
X74902699Y25845283D01*
X74902698Y25845283D01*
X74771271Y25866099D01*
X74731611Y25872380D01*
X73758389Y25872380D01*
X73718728Y25866099D01*
X73587302Y25845283D01*
X73422552Y25791752D01*
X73268211Y25713112D01*
X73188256Y25655021D01*
X73128072Y25611294D01*
X73128070Y25611292D01*
X73128069Y25611292D01*
X73005588Y25488811D01*
X73005588Y25488810D01*
X73005586Y25488808D01*
X72972010Y25442595D01*
X72903768Y25348669D01*
X72825128Y25194328D01*
X72771597Y25029578D01*
X72744500Y24858491D01*
X49235903Y24858491D01*
X49217741Y24926274D01*
X49165080Y25017486D01*
X49160686Y25021880D01*
X50319115Y25021880D01*
X50319115Y25021881D01*
X50317914Y25029465D01*
X50264408Y25194136D01*
X50185804Y25348405D01*
X50084032Y25488483D01*
X49961602Y25610913D01*
X49821524Y25712685D01*
X49667257Y25791289D01*
X49502584Y25844795D01*
X49331571Y25871880D01*
X49095000Y25871880D01*
X49095000Y25087566D01*
X49090606Y25091960D01*
X48999394Y25144621D01*
X48897661Y25171880D01*
X48792339Y25171880D01*
X48690606Y25144621D01*
X48599394Y25091960D01*
X48595000Y25087566D01*
X48595000Y25871880D01*
X48358429Y25871880D01*
X48187415Y25844795D01*
X48022742Y25791289D01*
X47868475Y25712685D01*
X47728397Y25610913D01*
X47605967Y25488483D01*
X47504195Y25348405D01*
X47425591Y25194136D01*
X47372085Y25029465D01*
X47370884Y25021881D01*
X40457679Y25021881D01*
X42834289Y27398491D01*
X47344500Y27398491D01*
X47344500Y27225270D01*
X47366131Y27088692D01*
X47371598Y27054179D01*
X47425127Y26889435D01*
X47503768Y26735092D01*
X47605586Y26594952D01*
X47728072Y26472466D01*
X47868212Y26370648D01*
X48022555Y26292007D01*
X48187299Y26238478D01*
X48358389Y26211380D01*
X48358390Y26211380D01*
X49331610Y26211380D01*
X49331611Y26211380D01*
X49502701Y26238478D01*
X49667445Y26292007D01*
X49821788Y26370648D01*
X49961928Y26472466D01*
X50084414Y26594952D01*
X50186232Y26735092D01*
X50264873Y26889435D01*
X50318402Y27054179D01*
X50345500Y27225269D01*
X50345500Y27398491D01*
X72744500Y27398491D01*
X72744500Y27225270D01*
X72766131Y27088692D01*
X72771598Y27054179D01*
X72825127Y26889435D01*
X72903768Y26735092D01*
X73005586Y26594952D01*
X73128072Y26472466D01*
X73268212Y26370648D01*
X73422555Y26292007D01*
X73587299Y26238478D01*
X73758389Y26211380D01*
X73758390Y26211380D01*
X74731610Y26211380D01*
X74731611Y26211380D01*
X74902701Y26238478D01*
X75067445Y26292007D01*
X75221788Y26370648D01*
X75361928Y26472466D01*
X75484414Y26594952D01*
X75586232Y26735092D01*
X75664873Y26889435D01*
X75718402Y27054179D01*
X75745500Y27225269D01*
X75745500Y27398491D01*
X75718402Y27569581D01*
X75664873Y27734325D01*
X75586232Y27888668D01*
X75484414Y28028808D01*
X75361928Y28151294D01*
X75221788Y28253112D01*
X75067445Y28331753D01*
X74902701Y28385282D01*
X74902699Y28385283D01*
X74902698Y28385283D01*
X74771271Y28406099D01*
X74731611Y28412380D01*
X73758389Y28412380D01*
X73718728Y28406099D01*
X73587302Y28385283D01*
X73422552Y28331752D01*
X73268211Y28253112D01*
X73233882Y28228170D01*
X73128072Y28151294D01*
X73128070Y28151292D01*
X73128069Y28151292D01*
X73005588Y28028811D01*
X73005588Y28028810D01*
X73005586Y28028808D01*
X72961859Y27968624D01*
X72903768Y27888669D01*
X72825128Y27734328D01*
X72771597Y27569578D01*
X72744500Y27398491D01*
X50345500Y27398491D01*
X50318402Y27569581D01*
X50264873Y27734325D01*
X50186232Y27888668D01*
X50084414Y28028808D01*
X49961928Y28151294D01*
X49821788Y28253112D01*
X49667445Y28331753D01*
X49502701Y28385282D01*
X49502699Y28385283D01*
X49502698Y28385283D01*
X49371271Y28406099D01*
X49331611Y28412380D01*
X48358389Y28412380D01*
X48318728Y28406099D01*
X48187302Y28385283D01*
X48022552Y28331752D01*
X47868211Y28253112D01*
X47833882Y28228170D01*
X47728072Y28151294D01*
X47728070Y28151292D01*
X47728069Y28151292D01*
X47605588Y28028811D01*
X47605588Y28028810D01*
X47605586Y28028808D01*
X47561859Y27968624D01*
X47503768Y27888669D01*
X47425128Y27734328D01*
X47371597Y27569578D01*
X47344500Y27398491D01*
X42834289Y27398491D01*
X45374289Y29938491D01*
X47344500Y29938491D01*
X47344500Y29765269D01*
X47347569Y29745894D01*
X47370339Y29602124D01*
X47371598Y29594179D01*
X47425127Y29429435D01*
X47503768Y29275092D01*
X47605586Y29134952D01*
X47728072Y29012466D01*
X47868212Y28910648D01*
X48022555Y28832007D01*
X48187299Y28778478D01*
X48358389Y28751380D01*
X48358390Y28751380D01*
X49331610Y28751380D01*
X49331611Y28751380D01*
X49502701Y28778478D01*
X49667445Y28832007D01*
X49821788Y28910648D01*
X49961928Y29012466D01*
X50084414Y29134952D01*
X50186232Y29275092D01*
X50264873Y29429435D01*
X50318402Y29594179D01*
X50345500Y29765269D01*
X50345500Y29938491D01*
X50318402Y30109581D01*
X50264873Y30274325D01*
X50186232Y30428668D01*
X50084414Y30568808D01*
X49961928Y30691294D01*
X49821788Y30793112D01*
X49667445Y30871753D01*
X49502701Y30925282D01*
X49502699Y30925283D01*
X49502698Y30925283D01*
X49371271Y30946099D01*
X49331611Y30952380D01*
X48358389Y30952380D01*
X48318728Y30946099D01*
X48187302Y30925283D01*
X48022552Y30871752D01*
X47868211Y30793112D01*
X47812763Y30752826D01*
X47728072Y30691294D01*
X47728070Y30691292D01*
X47728069Y30691292D01*
X47605588Y30568811D01*
X47605588Y30568810D01*
X47605586Y30568808D01*
X47592898Y30551344D01*
X47503768Y30428669D01*
X47425128Y30274328D01*
X47371597Y30109578D01*
X47365968Y30074035D01*
X47344500Y29938491D01*
X45374289Y29938491D01*
X46890859Y31455061D01*
X46952182Y31488546D01*
X46978540Y31491380D01*
X47771859Y31491380D01*
X47838898Y31471695D01*
X47844745Y31467698D01*
X47868207Y31450651D01*
X47868208Y31450651D01*
X47868212Y31450648D01*
X48022555Y31372007D01*
X48187299Y31318478D01*
X48358389Y31291380D01*
X48358390Y31291380D01*
X49331610Y31291380D01*
X49331611Y31291380D01*
X49502701Y31318478D01*
X49667445Y31372007D01*
X49821788Y31450648D01*
X49961928Y31552466D01*
X50084414Y31674952D01*
X50186232Y31815092D01*
X50264873Y31969435D01*
X50318402Y32134179D01*
X50345500Y32305269D01*
X50345500Y32478491D01*
X50318402Y32649581D01*
X50264873Y32814325D01*
X50186232Y32968668D01*
X50084414Y33108808D01*
X49961928Y33231294D01*
X49821788Y33333112D01*
X49667445Y33411753D01*
X49502701Y33465282D01*
X49502699Y33465283D01*
X49502698Y33465283D01*
X49371271Y33486099D01*
X49331611Y33492380D01*
X48358389Y33492380D01*
X48318728Y33486099D01*
X48187302Y33465283D01*
X48022552Y33411752D01*
X47868210Y33333111D01*
X47868207Y33333110D01*
X47844745Y33316062D01*
X47778939Y33292582D01*
X47771859Y33292380D01*
X46465481Y33292380D01*
X46291517Y33257777D01*
X46291501Y33257772D01*
X46175631Y33209778D01*
X46175632Y33209777D01*
X46127631Y33189893D01*
X46053886Y33140618D01*
X45980141Y33091345D01*
X45980138Y33091342D01*
X29621830Y16733033D01*
X29560507Y16699548D01*
X29553547Y16698241D01*
X29381179Y16670941D01*
X29201458Y16612545D01*
X29080794Y16551063D01*
X29012125Y16538167D01*
X28947385Y16564444D01*
X28907128Y16621550D01*
X28900500Y16661548D01*
X28900500Y27088690D01*
X28900500Y27088692D01*
X28898350Y27099500D01*
X28865895Y27262666D01*
X28800339Y27420929D01*
X28798695Y27425526D01*
X28699465Y27574034D01*
X28644299Y27629200D01*
X28574035Y27699464D01*
X28316038Y27957461D01*
X27936819Y28336681D01*
X27903334Y28398004D01*
X27900500Y28424362D01*
X27900500Y28588691D01*
X27894803Y28617334D01*
X27894803Y28617336D01*
X27894803Y28617337D01*
X27868140Y28751380D01*
X27865895Y28762666D01*
X27808802Y28900500D01*
X27804598Y28910649D01*
X27798015Y28926543D01*
X27798014Y28926545D01*
X27699465Y29074034D01*
X27638547Y29134952D01*
X27574035Y29199464D01*
X27436817Y29336683D01*
X27403334Y29398004D01*
X27400500Y29424362D01*
X27400500Y30599370D01*
X27420185Y30666409D01*
X27472989Y30712164D01*
X27542147Y30722108D01*
X27580792Y30709856D01*
X27601188Y30699464D01*
X27700224Y30649002D01*
X27700226Y30649002D01*
X27700229Y30649000D01*
X27796558Y30617701D01*
X27879942Y30590607D01*
X28066575Y30561047D01*
X28066580Y30561047D01*
X28255547Y30561047D01*
X28442179Y30590607D01*
X28466600Y30598542D01*
X28621893Y30649000D01*
X28790260Y30734787D01*
X28943134Y30845857D01*
X29076751Y30979474D01*
X29187821Y31132348D01*
X29273608Y31300715D01*
X29332001Y31480429D01*
X29359301Y31652796D01*
X29389230Y31715931D01*
X29394075Y31721062D01*
X31668075Y33995061D01*
X31729398Y34028546D01*
X31755756Y34031380D01*
X47771859Y34031380D01*
X47838898Y34011695D01*
X47844745Y34007698D01*
X47868207Y33990651D01*
X47868208Y33990651D01*
X47868212Y33990648D01*
X48022555Y33912007D01*
X48187299Y33858478D01*
X48358389Y33831380D01*
X48358390Y33831380D01*
X49331610Y33831380D01*
X49331611Y33831380D01*
X49502701Y33858478D01*
X49667445Y33912007D01*
X49821788Y33990648D01*
X49961928Y34092466D01*
X50084414Y34214952D01*
X50186232Y34355092D01*
X50264873Y34509435D01*
X50318402Y34674179D01*
X50345500Y34845269D01*
X50345500Y35018491D01*
X50318402Y35189581D01*
X50264873Y35354325D01*
X50186232Y35508668D01*
X50084414Y35648808D01*
X49961928Y35771294D01*
X49821788Y35873112D01*
X49667445Y35951753D01*
X49502701Y36005282D01*
X49502699Y36005283D01*
X49502698Y36005283D01*
X49371271Y36026099D01*
X49331611Y36032380D01*
X48358389Y36032380D01*
X48318728Y36026099D01*
X48187302Y36005283D01*
X48022552Y35951752D01*
X47868210Y35873111D01*
X47868207Y35873110D01*
X47844745Y35856062D01*
X47778939Y35832582D01*
X47771859Y35832380D01*
X31242697Y35832380D01*
X31068735Y35797777D01*
X31068723Y35797774D01*
X30986786Y35763835D01*
X30986787Y35763834D01*
X30904849Y35729895D01*
X30816434Y35670817D01*
X30816433Y35670816D01*
X30757355Y35631343D01*
X30757354Y35631342D01*
X28120593Y32994580D01*
X28059270Y32961095D01*
X28052310Y32959788D01*
X27879942Y32932488D01*
X27700222Y32874092D01*
X27580794Y32813240D01*
X27512125Y32800344D01*
X27447385Y32826621D01*
X27407128Y32883727D01*
X27400500Y32923725D01*
X27400500Y42475500D01*
X27420185Y42542539D01*
X27472989Y42588294D01*
X27524500Y42599500D01*
X30588693Y42599500D01*
X30588694Y42599501D01*
X30762666Y42634105D01*
X30844606Y42668047D01*
X30926547Y42701987D01*
X31014959Y42761064D01*
X31074036Y42800536D01*
X32416680Y44143182D01*
X32478003Y44176666D01*
X32504361Y44179500D01*
X36439242Y44179500D01*
X36506281Y44159815D01*
X36526923Y44143181D01*
X36620213Y44049891D01*
X36792182Y43924950D01*
X36800946Y43920484D01*
X36851742Y43872509D01*
X36868536Y43804688D01*
X36845998Y43738553D01*
X36800946Y43699516D01*
X36792182Y43695051D01*
X36620213Y43570110D01*
X36469890Y43419787D01*
X36344951Y43247821D01*
X36248444Y43058415D01*
X36182753Y42856240D01*
X36149500Y42646287D01*
X36149500Y42433714D01*
X36171599Y42294183D01*
X36182754Y42223757D01*
X36228063Y42084310D01*
X36248444Y42021586D01*
X36344951Y41832180D01*
X36469890Y41660214D01*
X36583430Y41546674D01*
X36616915Y41485351D01*
X36611931Y41415659D01*
X36570059Y41359726D01*
X36539083Y41342811D01*
X36407669Y41293797D01*
X36407664Y41293794D01*
X36292455Y41207548D01*
X36292452Y41207545D01*
X36206206Y41092336D01*
X36206202Y41092329D01*
X36155908Y40957483D01*
X36149501Y40897884D01*
X36149500Y40897865D01*
X36149500Y39102130D01*
X36149501Y39102124D01*
X36155908Y39042517D01*
X36206202Y38907672D01*
X36206206Y38907665D01*
X36292452Y38792456D01*
X36292455Y38792453D01*
X36407664Y38706207D01*
X36407671Y38706203D01*
X36542517Y38655909D01*
X36542516Y38655909D01*
X36549444Y38655165D01*
X36602127Y38649500D01*
X38397872Y38649501D01*
X38457483Y38655909D01*
X38592331Y38706204D01*
X38707546Y38792454D01*
X38793796Y38907669D01*
X38805287Y38938478D01*
X38839689Y39030713D01*
X38881560Y39086647D01*
X38947025Y39111064D01*
X38955871Y39111380D01*
X47771859Y39111380D01*
X47838898Y39091695D01*
X47844738Y39087703D01*
X47852133Y39082330D01*
X47868207Y39070651D01*
X47868208Y39070651D01*
X47868212Y39070648D01*
X48022555Y38992007D01*
X48187299Y38938478D01*
X48358389Y38911380D01*
X48358390Y38911380D01*
X49331610Y38911380D01*
X49331611Y38911380D01*
X49502701Y38938478D01*
X49667445Y38992007D01*
X49821788Y39070648D01*
X49961928Y39172466D01*
X50084414Y39294952D01*
X50186232Y39435092D01*
X50264873Y39589435D01*
X50318402Y39754179D01*
X50345500Y39925269D01*
X50345500Y40098491D01*
X50318402Y40269581D01*
X50264873Y40434325D01*
X50186232Y40588668D01*
X50084414Y40728808D01*
X49961928Y40851294D01*
X49821788Y40953112D01*
X49667445Y41031753D01*
X49502701Y41085282D01*
X49502699Y41085283D01*
X49502698Y41085283D01*
X49371271Y41106099D01*
X49331611Y41112380D01*
X48358389Y41112380D01*
X48318728Y41106099D01*
X48187302Y41085283D01*
X48022552Y41031752D01*
X47868210Y40953111D01*
X47868207Y40953110D01*
X47844745Y40936062D01*
X47778939Y40912582D01*
X47771859Y40912380D01*
X38947009Y40912380D01*
X38879970Y40932065D01*
X38834215Y40984869D01*
X38830827Y40993047D01*
X38793797Y41092329D01*
X38793793Y41092336D01*
X38707547Y41207545D01*
X38707544Y41207548D01*
X38592335Y41293794D01*
X38592328Y41293798D01*
X38460917Y41342811D01*
X38460915Y41342812D01*
X38404982Y41384683D01*
X38380566Y41450148D01*
X38395418Y41518421D01*
X38416567Y41546672D01*
X38473078Y41603182D01*
X38534401Y41636666D01*
X38560758Y41639500D01*
X47788210Y41639500D01*
X47855249Y41619815D01*
X47861091Y41615822D01*
X47868212Y41610648D01*
X48022555Y41532007D01*
X48187299Y41478478D01*
X48358389Y41451380D01*
X48358390Y41451380D01*
X49331610Y41451380D01*
X49331611Y41451380D01*
X49502701Y41478478D01*
X49667445Y41532007D01*
X49821788Y41610648D01*
X49961928Y41712466D01*
X50084414Y41834952D01*
X50186232Y41975092D01*
X50264873Y42129435D01*
X50318402Y42294179D01*
X50345500Y42465269D01*
X50345500Y42638491D01*
X50318402Y42809581D01*
X50264873Y42974325D01*
X50186232Y43128668D01*
X50084414Y43268808D01*
X49961928Y43391294D01*
X49821788Y43493112D01*
X49667445Y43571753D01*
X49502701Y43625282D01*
X49502699Y43625283D01*
X49502698Y43625283D01*
X49371271Y43646099D01*
X49331611Y43652380D01*
X48358389Y43652380D01*
X48318728Y43646099D01*
X48187302Y43625283D01*
X48022552Y43571752D01*
X47868207Y43493110D01*
X47828392Y43464182D01*
X47762586Y43440702D01*
X47755507Y43440500D01*
X38560758Y43440500D01*
X38493719Y43460185D01*
X38473077Y43476819D01*
X38379786Y43570110D01*
X38207820Y43695049D01*
X38207115Y43695409D01*
X38199054Y43699515D01*
X38148259Y43747488D01*
X38131463Y43815308D01*
X38153999Y43881444D01*
X38199054Y43920485D01*
X38207816Y43924949D01*
X38347948Y44026760D01*
X38379786Y44049891D01*
X38379788Y44049894D01*
X38379792Y44049896D01*
X38530104Y44200208D01*
X38530106Y44200212D01*
X38530109Y44200214D01*
X38655048Y44372180D01*
X38655047Y44372180D01*
X38655051Y44372184D01*
X38751557Y44561588D01*
X38817246Y44763757D01*
X38850500Y44973713D01*
X38850500Y45178491D01*
X47344500Y45178491D01*
X47344500Y45005269D01*
X47371598Y44834179D01*
X47425127Y44669435D01*
X47503768Y44515092D01*
X47605586Y44374952D01*
X47728072Y44252466D01*
X47868212Y44150648D01*
X48022555Y44072007D01*
X48187299Y44018478D01*
X48358389Y43991380D01*
X48358390Y43991380D01*
X49331610Y43991380D01*
X49331611Y43991380D01*
X49502701Y44018478D01*
X49667445Y44072007D01*
X49821788Y44150648D01*
X49961928Y44252466D01*
X50084414Y44374952D01*
X50186232Y44515092D01*
X50264873Y44669435D01*
X50318402Y44834179D01*
X50345500Y45005269D01*
X50345500Y45178491D01*
X50318402Y45349581D01*
X50264873Y45514325D01*
X50186232Y45668668D01*
X50084414Y45808808D01*
X49961928Y45931294D01*
X49821788Y46033112D01*
X49667445Y46111753D01*
X49502701Y46165282D01*
X49502699Y46165283D01*
X49502698Y46165283D01*
X49371271Y46186099D01*
X49331611Y46192380D01*
X48358389Y46192380D01*
X48318728Y46186099D01*
X48187302Y46165283D01*
X48022552Y46111752D01*
X47868211Y46033112D01*
X47831132Y46006172D01*
X47728072Y45931294D01*
X47728070Y45931292D01*
X47728069Y45931292D01*
X47605588Y45808811D01*
X47605588Y45808810D01*
X47605586Y45808808D01*
X47584266Y45779463D01*
X47503768Y45668669D01*
X47425128Y45514328D01*
X47371597Y45349578D01*
X47345735Y45186287D01*
X47344500Y45178491D01*
X38850500Y45178491D01*
X38850500Y45186287D01*
X38817246Y45396243D01*
X38751557Y45598412D01*
X38655051Y45787816D01*
X38655049Y45787819D01*
X38655048Y45787821D01*
X38530109Y45959787D01*
X38379786Y46110110D01*
X38207817Y46235051D01*
X38198504Y46239796D01*
X38147707Y46287770D01*
X38130912Y46355591D01*
X38153449Y46421726D01*
X38198507Y46460768D01*
X38207555Y46465378D01*
X38261716Y46504730D01*
X38261717Y46504730D01*
X37629408Y47137038D01*
X37692993Y47154075D01*
X37807007Y47219901D01*
X37900099Y47312993D01*
X37965925Y47427007D01*
X37982962Y47490591D01*
X38615270Y46858283D01*
X38615270Y46858284D01*
X38654622Y46912446D01*
X38751095Y47101783D01*
X38816757Y47303870D01*
X38816757Y47303873D01*
X38850000Y47513754D01*
X38850000Y47718491D01*
X47344500Y47718491D01*
X47344500Y47545269D01*
X47371598Y47374179D01*
X47425127Y47209435D01*
X47503768Y47055092D01*
X47605586Y46914952D01*
X47728072Y46792466D01*
X47868212Y46690648D01*
X48022555Y46612007D01*
X48187299Y46558478D01*
X48358389Y46531380D01*
X48358390Y46531380D01*
X49331610Y46531380D01*
X49331611Y46531380D01*
X49502701Y46558478D01*
X49667445Y46612007D01*
X49821788Y46690648D01*
X49961928Y46792466D01*
X50084414Y46914952D01*
X50186232Y47055092D01*
X50264873Y47209435D01*
X50318402Y47374179D01*
X50345500Y47545269D01*
X50345500Y47718491D01*
X50318402Y47889581D01*
X50264873Y48054325D01*
X50186232Y48208668D01*
X50084414Y48348808D01*
X49961928Y48471294D01*
X49821788Y48573112D01*
X49667445Y48651753D01*
X49502701Y48705282D01*
X49502699Y48705283D01*
X49502698Y48705283D01*
X49371271Y48726099D01*
X49331611Y48732380D01*
X48358389Y48732380D01*
X48318728Y48726099D01*
X48187302Y48705283D01*
X48022552Y48651752D01*
X47868211Y48573112D01*
X47831132Y48546172D01*
X47728072Y48471294D01*
X47728070Y48471292D01*
X47728069Y48471292D01*
X47605588Y48348811D01*
X47605588Y48348810D01*
X47605586Y48348808D01*
X47590149Y48327561D01*
X47503768Y48208669D01*
X47425128Y48054328D01*
X47371597Y47889578D01*
X47353394Y47774648D01*
X47344500Y47718491D01*
X38850000Y47718491D01*
X38850000Y47726247D01*
X38816757Y47936128D01*
X38816757Y47936131D01*
X38751095Y48138218D01*
X38654624Y48327551D01*
X38615270Y48381718D01*
X38615269Y48381718D01*
X37982962Y47749410D01*
X37965925Y47812993D01*
X37900099Y47927007D01*
X37807007Y48020099D01*
X37692993Y48085925D01*
X37629409Y48102963D01*
X38261716Y48735272D01*
X38207550Y48774625D01*
X38018217Y48871096D01*
X37816129Y48936758D01*
X37606246Y48970000D01*
X37393754Y48970000D01*
X37183872Y48936758D01*
X37183869Y48936758D01*
X36981782Y48871096D01*
X36792439Y48774620D01*
X36738282Y48735273D01*
X36738282Y48735272D01*
X37370591Y48102963D01*
X37307007Y48085925D01*
X37192993Y48020099D01*
X37099901Y47927007D01*
X37034075Y47812993D01*
X37017037Y47749409D01*
X36384728Y48381718D01*
X36384727Y48381718D01*
X36345380Y48327561D01*
X36248904Y48138218D01*
X36183242Y47936131D01*
X36183242Y47936128D01*
X36150000Y47726247D01*
X36150000Y47513754D01*
X36183242Y47303873D01*
X36183242Y47303870D01*
X36248904Y47101783D01*
X36345375Y46912450D01*
X36384728Y46858284D01*
X37017037Y47490592D01*
X37034075Y47427007D01*
X37099901Y47312993D01*
X37192993Y47219901D01*
X37307007Y47154075D01*
X37370590Y47137038D01*
X36738282Y46504731D01*
X36738282Y46504730D01*
X36792452Y46465374D01*
X36792451Y46465374D01*
X36801495Y46460766D01*
X36852292Y46412792D01*
X36869087Y46344971D01*
X36846550Y46278836D01*
X36801499Y46239798D01*
X36792182Y46235051D01*
X36620213Y46110110D01*
X36620209Y46110106D01*
X36526923Y46016819D01*
X36465600Y45983334D01*
X36439242Y45980500D01*
X31991306Y45980500D01*
X31817341Y45945897D01*
X31817332Y45945894D01*
X31653457Y45878016D01*
X31653456Y45878015D01*
X31523745Y45791344D01*
X31523744Y45791343D01*
X31505961Y45779462D01*
X31505960Y45779461D01*
X30163319Y44436819D01*
X30101996Y44403334D01*
X30075638Y44400500D01*
X26911303Y44400500D01*
X26737339Y44365897D01*
X26737323Y44365892D01*
X26621453Y44317898D01*
X26621454Y44317897D01*
X26573453Y44298014D01*
X26555507Y44286022D01*
X26549469Y44281987D01*
X26425965Y44199465D01*
X26425961Y44199462D01*
X26163320Y43936819D01*
X26101997Y43903334D01*
X26075639Y43900500D01*
X22343270Y43900500D01*
X22276231Y43920185D01*
X22270397Y43924173D01*
X22129199Y44026760D01*
X22083792Y44049896D01*
X21960836Y44112546D01*
X21781118Y44170941D01*
X21594486Y44200500D01*
X21594481Y44200500D01*
X21405519Y44200500D01*
X21405514Y44200500D01*
X21218881Y44170941D01*
X21039163Y44112546D01*
X20870800Y44026760D01*
X20783579Y43963390D01*
X20717927Y43915690D01*
X20717925Y43915688D01*
X20717924Y43915688D01*
X20612181Y43809944D01*
X20550858Y43776459D01*
X20481166Y43781443D01*
X20425233Y43823315D01*
X20400816Y43888779D01*
X20400500Y43897625D01*
X20400500Y44475500D01*
X20420185Y44542539D01*
X20472989Y44588294D01*
X20524500Y44599500D01*
X25088693Y44599500D01*
X25088694Y44599501D01*
X25262666Y44634105D01*
X25347959Y44669435D01*
X25426547Y44701987D01*
X25555521Y44788165D01*
X25574036Y44800536D01*
X26199464Y45425965D01*
X26253307Y45506546D01*
X26298013Y45573453D01*
X26337452Y45668668D01*
X26365895Y45737334D01*
X26400500Y45911308D01*
X26400500Y46088692D01*
X26400500Y48094487D01*
X26879500Y48094487D01*
X26879500Y47905514D01*
X26909059Y47718882D01*
X26967454Y47539164D01*
X27051517Y47374183D01*
X27053240Y47370801D01*
X27164310Y47217927D01*
X27297927Y47084310D01*
X27450801Y46973240D01*
X27510151Y46943000D01*
X27619163Y46887455D01*
X27619165Y46887455D01*
X27619168Y46887453D01*
X27715497Y46856154D01*
X27798881Y46829060D01*
X27985514Y46799500D01*
X27985519Y46799500D01*
X28174486Y46799500D01*
X28361118Y46829060D01*
X28540832Y46887453D01*
X28709199Y46973240D01*
X28862073Y47084310D01*
X28995690Y47217927D01*
X29106760Y47370801D01*
X29192547Y47539168D01*
X29250940Y47718882D01*
X29278240Y47891252D01*
X29308169Y47954386D01*
X29313014Y47959516D01*
X31916680Y50563181D01*
X31978003Y50596666D01*
X32004361Y50599500D01*
X47256137Y50599500D01*
X47323176Y50579815D01*
X47368931Y50527011D01*
X47378875Y50457853D01*
X47374068Y50437182D01*
X47371597Y50429579D01*
X47345161Y50262666D01*
X47344500Y50258491D01*
X47344500Y50085269D01*
X47371598Y49914179D01*
X47425127Y49749435D01*
X47503768Y49595092D01*
X47605586Y49454952D01*
X47728072Y49332466D01*
X47868212Y49230648D01*
X48022555Y49152007D01*
X48187299Y49098478D01*
X48358389Y49071380D01*
X48358390Y49071380D01*
X49331610Y49071380D01*
X49331611Y49071380D01*
X49502701Y49098478D01*
X49667445Y49152007D01*
X49821788Y49230648D01*
X49961928Y49332466D01*
X50084414Y49454952D01*
X50186232Y49595092D01*
X50264873Y49749435D01*
X50318402Y49914179D01*
X50345500Y50085269D01*
X50345500Y50258491D01*
X50344838Y50262668D01*
X50328489Y50365895D01*
X50318402Y50429581D01*
X50315931Y50437183D01*
X50313937Y50507024D01*
X50350018Y50566856D01*
X50412719Y50597684D01*
X50433863Y50599500D01*
X51075638Y50599500D01*
X51142677Y50579815D01*
X51163319Y50563181D01*
X52063181Y49663320D01*
X52096666Y49601997D01*
X52099500Y49575639D01*
X52099500Y38924362D01*
X52079815Y38857323D01*
X52063181Y38836681D01*
X51635199Y38408699D01*
X51573876Y38375214D01*
X51547518Y38372380D01*
X49918141Y38372380D01*
X49851102Y38392065D01*
X49845255Y38396062D01*
X49821792Y38413110D01*
X49821789Y38413111D01*
X49821790Y38413111D01*
X49821788Y38413112D01*
X49667445Y38491753D01*
X49502701Y38545282D01*
X49502699Y38545283D01*
X49502698Y38545283D01*
X49371271Y38566099D01*
X49331611Y38572380D01*
X48358389Y38572380D01*
X48318728Y38566099D01*
X48187302Y38545283D01*
X48022552Y38491752D01*
X47868211Y38413112D01*
X47788256Y38355021D01*
X47728072Y38311294D01*
X47728070Y38311292D01*
X47728069Y38311292D01*
X47605588Y38188811D01*
X47605588Y38188810D01*
X47605586Y38188808D01*
X47581309Y38155394D01*
X47503768Y38048669D01*
X47425128Y37894328D01*
X47371597Y37729578D01*
X47346870Y37573456D01*
X47344500Y37558491D01*
X47344500Y37385269D01*
X47371598Y37214179D01*
X47425127Y37049435D01*
X47503768Y36895092D01*
X47605586Y36754952D01*
X47728072Y36632466D01*
X47868212Y36530648D01*
X48022555Y36452007D01*
X48187299Y36398478D01*
X48358389Y36371380D01*
X48358390Y36371380D01*
X49331610Y36371380D01*
X49331611Y36371380D01*
X49502701Y36398478D01*
X49667445Y36452007D01*
X49821788Y36530648D01*
X49845255Y36547699D01*
X49911061Y36571178D01*
X49918141Y36571380D01*
X52060573Y36571380D01*
X52060574Y36571381D01*
X52234546Y36605985D01*
X52316486Y36639927D01*
X52398427Y36673867D01*
X52486839Y36732944D01*
X52545916Y36772416D01*
X53699463Y37925964D01*
X53723573Y37962047D01*
X53798013Y38073453D01*
X53831953Y38155394D01*
X53865895Y38237334D01*
X53900500Y38411308D01*
X53900500Y38588692D01*
X53900500Y50088691D01*
X53900500Y50088694D01*
X53900499Y50088696D01*
X53865896Y50262659D01*
X53865893Y50262668D01*
X53798016Y50426541D01*
X53798009Y50426554D01*
X53699465Y50574034D01*
X53649858Y50623641D01*
X53574035Y50699464D01*
X53199460Y51074039D01*
X52074041Y52199460D01*
X52074040Y52199461D01*
X52070261Y52201986D01*
X52014959Y52238937D01*
X51926547Y52298013D01*
X51844606Y52331954D01*
X51762666Y52365895D01*
X51762658Y52365897D01*
X51588696Y52400500D01*
X51588692Y52400500D01*
X51588691Y52400500D01*
X50455085Y52400500D01*
X50388046Y52420185D01*
X50342291Y52472989D01*
X50332347Y52542147D01*
X50332612Y52543898D01*
X50345500Y52625270D01*
X50345500Y52798491D01*
X50332008Y52883677D01*
X50318402Y52969581D01*
X50264873Y53134325D01*
X50186232Y53288668D01*
X50084414Y53428808D01*
X49961928Y53551294D01*
X49821788Y53653112D01*
X49667447Y53731752D01*
X49667446Y53731753D01*
X49667445Y53731753D01*
X49502701Y53785282D01*
X49502699Y53785283D01*
X49502698Y53785283D01*
X49371271Y53806099D01*
X49331611Y53812380D01*
X48358389Y53812380D01*
X48318728Y53806099D01*
X48187302Y53785283D01*
X48022552Y53731752D01*
X47868211Y53653112D01*
X47832273Y53627001D01*
X47728072Y53551294D01*
X47728070Y53551292D01*
X47728069Y53551292D01*
X47605588Y53428811D01*
X47605588Y53428810D01*
X47605586Y53428808D01*
X47583208Y53398007D01*
X47503768Y53288669D01*
X47425128Y53134328D01*
X47425127Y53134326D01*
X47425127Y53134325D01*
X47398362Y53051953D01*
X47371597Y52969578D01*
X47344500Y52798491D01*
X47344500Y52625270D01*
X47357388Y52543898D01*
X47348433Y52474604D01*
X47303437Y52421152D01*
X47236686Y52400513D01*
X47234915Y52400500D01*
X31491306Y52400500D01*
X31317341Y52365897D01*
X31317332Y52365894D01*
X31153459Y52298017D01*
X31153447Y52298010D01*
X31009739Y52201987D01*
X31009740Y52201986D01*
X31005963Y52199463D01*
X31005957Y52199458D01*
X28039532Y49233033D01*
X27978209Y49199548D01*
X27971249Y49198241D01*
X27798881Y49170941D01*
X27619163Y49112546D01*
X27450800Y49026760D01*
X27372678Y48970000D01*
X27297927Y48915690D01*
X27297925Y48915688D01*
X27297924Y48915688D01*
X27164312Y48782076D01*
X27164312Y48782075D01*
X27164310Y48782073D01*
X27143764Y48753794D01*
X27053240Y48629200D01*
X26967454Y48460837D01*
X26909059Y48281119D01*
X26879500Y48094487D01*
X26400500Y48094487D01*
X26400500Y50588691D01*
X26400500Y50588694D01*
X26400499Y50588696D01*
X26365896Y50762659D01*
X26365893Y50762668D01*
X26298016Y50926541D01*
X26298009Y50926554D01*
X26199464Y51074035D01*
X26199461Y51074039D01*
X26074038Y51199462D01*
X26074034Y51199465D01*
X25926553Y51298010D01*
X25926540Y51298017D01*
X25762667Y51365894D01*
X25762658Y51365897D01*
X25588694Y51400500D01*
X25588691Y51400500D01*
X22004362Y51400500D01*
X21937323Y51420185D01*
X21916681Y51436819D01*
X20233032Y53120468D01*
X20199547Y53181791D01*
X20198240Y53188751D01*
X20184638Y53274631D01*
X20170940Y53361118D01*
X20112547Y53540832D01*
X20112545Y53540835D01*
X20112545Y53540837D01*
X20026759Y53709200D01*
X19951794Y53812380D01*
X19924181Y53850386D01*
X19900702Y53916190D01*
X19900500Y53923270D01*
X19900500Y57081247D01*
X26780000Y57081247D01*
X26780000Y56868754D01*
X26813242Y56658873D01*
X26813242Y56658870D01*
X26878904Y56456783D01*
X26975375Y56267450D01*
X27014728Y56213284D01*
X27647037Y56845592D01*
X27664075Y56782007D01*
X27729901Y56667993D01*
X27822993Y56574901D01*
X27937007Y56509075D01*
X28000590Y56492038D01*
X27368282Y55859731D01*
X27368282Y55859730D01*
X27422449Y55820376D01*
X27611782Y55723905D01*
X27813870Y55658243D01*
X28023754Y55625000D01*
X28236246Y55625000D01*
X28446127Y55658243D01*
X28446130Y55658243D01*
X28648217Y55723905D01*
X28837554Y55820378D01*
X28891716Y55859730D01*
X28891717Y55859730D01*
X28259408Y56492038D01*
X28322993Y56509075D01*
X28437007Y56574901D01*
X28530099Y56667993D01*
X28595925Y56782007D01*
X28612962Y56845591D01*
X29283181Y56175372D01*
X29316666Y56114049D01*
X29319500Y56087700D01*
X29319500Y56077135D01*
X29319501Y56077124D01*
X29325908Y56017517D01*
X29376202Y55882672D01*
X29376206Y55882665D01*
X29462452Y55767456D01*
X29462455Y55767453D01*
X29577664Y55681207D01*
X29577671Y55681203D01*
X29712517Y55630909D01*
X29712516Y55630909D01*
X29719444Y55630165D01*
X29772127Y55624500D01*
X30918410Y55624501D01*
X30942602Y55622118D01*
X31056306Y55599500D01*
X31056309Y55599500D01*
X35076730Y55599500D01*
X35143769Y55579815D01*
X35149602Y55575828D01*
X35290801Y55473240D01*
X35370347Y55432710D01*
X35459163Y55387455D01*
X35459165Y55387455D01*
X35459168Y55387453D01*
X35555497Y55356154D01*
X35638881Y55329060D01*
X35825514Y55299500D01*
X35825519Y55299500D01*
X36014486Y55299500D01*
X36201118Y55329060D01*
X36230143Y55338491D01*
X36380832Y55387453D01*
X36549199Y55473240D01*
X36702073Y55584310D01*
X36835690Y55717927D01*
X36946760Y55870801D01*
X37032547Y56039168D01*
X37090940Y56218882D01*
X37120500Y56405514D01*
X37120500Y56594487D01*
X39799500Y56594487D01*
X39799500Y56405514D01*
X39829059Y56218882D01*
X39887454Y56039164D01*
X39967191Y55882672D01*
X39973240Y55870801D01*
X40084310Y55717927D01*
X40217927Y55584310D01*
X40370801Y55473240D01*
X40450347Y55432710D01*
X40539163Y55387455D01*
X40539165Y55387455D01*
X40539168Y55387453D01*
X40718882Y55329060D01*
X40870428Y55305058D01*
X40891249Y55301760D01*
X40954383Y55271831D01*
X40959532Y55266968D01*
X41674086Y54552414D01*
X41694817Y54538563D01*
X41733160Y54512944D01*
X41821573Y54453867D01*
X41887530Y54426547D01*
X41985454Y54385985D01*
X42159423Y54351381D01*
X42159427Y54351380D01*
X42159428Y54351380D01*
X42159429Y54351380D01*
X47771859Y54351380D01*
X47838898Y54331695D01*
X47844745Y54327698D01*
X47868207Y54310651D01*
X47868208Y54310651D01*
X47868212Y54310648D01*
X48022555Y54232007D01*
X48187299Y54178478D01*
X48358389Y54151380D01*
X48358390Y54151380D01*
X49331610Y54151380D01*
X49331611Y54151380D01*
X49502701Y54178478D01*
X49667445Y54232007D01*
X49821788Y54310648D01*
X49961928Y54412466D01*
X50084414Y54534952D01*
X50186232Y54675092D01*
X50264873Y54829435D01*
X50318402Y54994179D01*
X50345500Y55165269D01*
X50345500Y55338491D01*
X50318402Y55509581D01*
X50264873Y55674325D01*
X50186232Y55828668D01*
X50084414Y55968808D01*
X49961928Y56091294D01*
X49821788Y56193112D01*
X49667445Y56271753D01*
X49502701Y56325282D01*
X49502699Y56325283D01*
X49502698Y56325283D01*
X49371271Y56346099D01*
X49331611Y56352380D01*
X48358389Y56352380D01*
X48318728Y56346099D01*
X48187302Y56325283D01*
X48022552Y56271752D01*
X47868210Y56193111D01*
X47868207Y56193110D01*
X47844745Y56176062D01*
X47778939Y56152582D01*
X47771859Y56152380D01*
X42672482Y56152380D01*
X42605443Y56172065D01*
X42584801Y56188699D01*
X42233032Y56540468D01*
X42199547Y56601791D01*
X42198240Y56608751D01*
X42185153Y56691380D01*
X42170940Y56781118D01*
X42112547Y56960832D01*
X42112545Y56960835D01*
X42112545Y56960837D01*
X42054234Y57075278D01*
X42026760Y57129199D01*
X41915690Y57282073D01*
X41782073Y57415690D01*
X41629199Y57526760D01*
X41614409Y57534296D01*
X41460836Y57612546D01*
X41281118Y57670941D01*
X41094486Y57700500D01*
X41094481Y57700500D01*
X40905519Y57700500D01*
X40905514Y57700500D01*
X40718881Y57670941D01*
X40539163Y57612546D01*
X40370800Y57526760D01*
X40299560Y57475000D01*
X40217927Y57415690D01*
X40217925Y57415688D01*
X40217924Y57415688D01*
X40084312Y57282076D01*
X40084312Y57282075D01*
X40084310Y57282073D01*
X40036610Y57216421D01*
X39973240Y57129200D01*
X39887454Y56960837D01*
X39829059Y56781119D01*
X39799500Y56594487D01*
X37120500Y56594487D01*
X37090940Y56781119D01*
X37032545Y56960837D01*
X36974234Y57075278D01*
X36946760Y57129199D01*
X36835690Y57282073D01*
X36702073Y57415690D01*
X36549199Y57526760D01*
X36534409Y57534296D01*
X36380836Y57612546D01*
X36201118Y57670941D01*
X36014486Y57700500D01*
X36014481Y57700500D01*
X35825519Y57700500D01*
X35825514Y57700500D01*
X35638881Y57670941D01*
X35459163Y57612546D01*
X35290800Y57526760D01*
X35219560Y57475000D01*
X35149614Y57424182D01*
X35083810Y57400702D01*
X35076730Y57400500D01*
X32144499Y57400500D01*
X32077460Y57420185D01*
X32031705Y57472989D01*
X32020499Y57524500D01*
X32020499Y57872871D01*
X32020498Y57872877D01*
X32020497Y57872884D01*
X32014091Y57932483D01*
X32008947Y57946274D01*
X31963797Y58067329D01*
X31963793Y58067336D01*
X31877547Y58182545D01*
X31877544Y58182548D01*
X31762335Y58268794D01*
X31762328Y58268798D01*
X31627482Y58319092D01*
X31627483Y58319092D01*
X31567883Y58325499D01*
X31567881Y58325500D01*
X31567873Y58325500D01*
X31567864Y58325500D01*
X29772129Y58325500D01*
X29772123Y58325499D01*
X29712516Y58319092D01*
X29577671Y58268798D01*
X29577664Y58268794D01*
X29462455Y58182548D01*
X29462452Y58182545D01*
X29376206Y58067336D01*
X29376202Y58067329D01*
X29325908Y57932483D01*
X29319501Y57872884D01*
X29319501Y57872877D01*
X29319500Y57872865D01*
X29319500Y57862310D01*
X29299815Y57795271D01*
X29283181Y57774629D01*
X28612962Y57104410D01*
X28595925Y57167993D01*
X28530099Y57282007D01*
X28437007Y57375099D01*
X28322993Y57440925D01*
X28259409Y57457963D01*
X28891716Y58090272D01*
X28837550Y58129625D01*
X28648217Y58226096D01*
X28446129Y58291758D01*
X28236246Y58325000D01*
X28023754Y58325000D01*
X27813872Y58291758D01*
X27813869Y58291758D01*
X27611782Y58226096D01*
X27422439Y58129620D01*
X27368282Y58090273D01*
X27368282Y58090272D01*
X28000591Y57457963D01*
X27937007Y57440925D01*
X27822993Y57375099D01*
X27729901Y57282007D01*
X27664075Y57167993D01*
X27647037Y57104409D01*
X27014728Y57736718D01*
X27014727Y57736718D01*
X26975380Y57682561D01*
X26878904Y57493218D01*
X26813242Y57291131D01*
X26813242Y57291128D01*
X26780000Y57081247D01*
X19900500Y57081247D01*
X19900500Y59475500D01*
X19920185Y59542539D01*
X19972989Y59588294D01*
X20024500Y59599500D01*
X47820500Y59599500D01*
X47887539Y59579815D01*
X47933294Y59527011D01*
X47944500Y59475500D01*
X47944500Y59016380D01*
X47924815Y58949341D01*
X47872011Y58903586D01*
X47820505Y58892380D01*
X47797132Y58892380D01*
X47797123Y58892379D01*
X47737516Y58885972D01*
X47602671Y58835678D01*
X47602664Y58835674D01*
X47487455Y58749428D01*
X47487452Y58749425D01*
X47401206Y58634216D01*
X47401202Y58634209D01*
X47350908Y58499363D01*
X47344501Y58439764D01*
X47344501Y58439757D01*
X47344500Y58439745D01*
X47344500Y57144010D01*
X47344501Y57144004D01*
X47350908Y57084397D01*
X47401202Y56949552D01*
X47401206Y56949545D01*
X47487452Y56834336D01*
X47487455Y56834333D01*
X47602664Y56748087D01*
X47602671Y56748083D01*
X47737517Y56697789D01*
X47737516Y56697789D01*
X47744444Y56697045D01*
X47797127Y56691380D01*
X49892872Y56691381D01*
X49952483Y56697789D01*
X50087331Y56748084D01*
X50202546Y56834334D01*
X50288796Y56949549D01*
X50339091Y57084397D01*
X50345500Y57144007D01*
X50345499Y58439752D01*
X50339091Y58499363D01*
X50335689Y58508483D01*
X50288797Y58634209D01*
X50288793Y58634216D01*
X50202547Y58749425D01*
X50202544Y58749428D01*
X50087335Y58835674D01*
X50087328Y58835678D01*
X49952482Y58885972D01*
X49952483Y58885972D01*
X49892883Y58892379D01*
X49892881Y58892380D01*
X49892873Y58892380D01*
X49892865Y58892380D01*
X49869500Y58892380D01*
X49802461Y58912065D01*
X49756706Y58964869D01*
X49745500Y59016380D01*
X49745500Y60243692D01*
X49745499Y60243693D01*
X49734193Y60300536D01*
X49710895Y60417666D01*
X49662895Y60533548D01*
X49643013Y60581547D01*
X49544464Y60729035D01*
X49419035Y60854464D01*
X49266396Y61007104D01*
X49266395Y61007105D01*
X49074039Y61199462D01*
X49073725Y61199672D01*
X48979447Y61262666D01*
X48926547Y61298013D01*
X48844606Y61331954D01*
X48762666Y61365895D01*
X48762658Y61365897D01*
X48588696Y61400500D01*
X48588692Y61400500D01*
X48588691Y61400500D01*
X19088691Y61400500D01*
X18911309Y61400500D01*
X18911306Y61400500D01*
X18737341Y61365897D01*
X18737332Y61365894D01*
X18573459Y61298017D01*
X18573446Y61298010D01*
X18425965Y61199465D01*
X18425963Y61199463D01*
X18300538Y61074039D01*
X18300535Y61074035D01*
X18201990Y60926554D01*
X18201983Y60926541D01*
X18134106Y60762668D01*
X18134103Y60762659D01*
X18099500Y60588696D01*
X18099500Y53923270D01*
X18079815Y53856231D01*
X18075827Y53850398D01*
X18048206Y53812380D01*
X17973240Y53709200D01*
X17887454Y53540837D01*
X17829059Y53361119D01*
X17799500Y53174487D01*
X17799500Y52985514D01*
X17829059Y52798882D01*
X17887454Y52619164D01*
X17945133Y52505964D01*
X17973240Y52450801D01*
X18084310Y52297927D01*
X18217927Y52164310D01*
X18370801Y52053240D01*
X18450347Y52012710D01*
X18539163Y51967455D01*
X18539165Y51967455D01*
X18539168Y51967453D01*
X18718882Y51909060D01*
X18866967Y51885606D01*
X18891249Y51881760D01*
X18954383Y51851831D01*
X18959532Y51846968D01*
X21005958Y49800541D01*
X21005961Y49800538D01*
X21005964Y49800536D01*
X21062641Y49762666D01*
X21153453Y49701987D01*
X21235393Y49668047D01*
X21241543Y49665500D01*
X21241546Y49665498D01*
X21265721Y49655485D01*
X21317334Y49634105D01*
X21478755Y49601997D01*
X21491303Y49599501D01*
X21491307Y49599500D01*
X21491308Y49599500D01*
X21491309Y49599500D01*
X24475500Y49599500D01*
X24542539Y49579815D01*
X24588294Y49527011D01*
X24599500Y49475500D01*
X24599500Y46524500D01*
X24579815Y46457461D01*
X24527011Y46411706D01*
X24475500Y46400500D01*
X19411306Y46400500D01*
X19237341Y46365897D01*
X19237332Y46365894D01*
X19073459Y46298017D01*
X19073446Y46298010D01*
X18925965Y46199465D01*
X18925961Y46199462D01*
X18800538Y46074039D01*
X18800535Y46074035D01*
X18701990Y45926554D01*
X18701983Y45926541D01*
X18634106Y45762668D01*
X18634103Y45762659D01*
X18599500Y45588696D01*
X18599500Y37604817D01*
X18579815Y37537778D01*
X18575827Y37531945D01*
X18563698Y37515250D01*
X18473240Y37390747D01*
X18387454Y37222384D01*
X18329059Y37042666D01*
X18299500Y36856034D01*
X18299500Y36667061D01*
X18329059Y36480429D01*
X18387454Y36300711D01*
X18452017Y36174000D01*
X18473240Y36132348D01*
X18584310Y35979474D01*
X18717927Y35845857D01*
X18870801Y35734787D01*
X18950077Y35694394D01*
X19039163Y35649002D01*
X19039165Y35649002D01*
X19039168Y35649000D01*
X19135497Y35617701D01*
X19218881Y35590607D01*
X19405514Y35561047D01*
X19405519Y35561047D01*
X19594486Y35561047D01*
X19781118Y35590607D01*
X19960832Y35649000D01*
X20129199Y35734787D01*
X20270385Y35837366D01*
X20336190Y35860845D01*
X20343270Y35861047D01*
X23314091Y35861047D01*
X23381130Y35841362D01*
X23401772Y35824728D01*
X24063181Y35163319D01*
X24096666Y35101996D01*
X24099500Y35075638D01*
X24099500Y32740233D01*
X24079815Y32673194D01*
X24027011Y32627439D01*
X23957853Y32617495D01*
X23894297Y32646520D01*
X23887819Y32652552D01*
X23863136Y32677235D01*
X23863134Y32677237D01*
X23710260Y32788307D01*
X23686636Y32800344D01*
X23541897Y32874093D01*
X23362179Y32932488D01*
X23175547Y32962047D01*
X23175542Y32962047D01*
X22986580Y32962047D01*
X22986575Y32962047D01*
X22799942Y32932488D01*
X22620224Y32874093D01*
X22451861Y32788307D01*
X22385694Y32740233D01*
X22310675Y32685729D01*
X22244871Y32662249D01*
X22237791Y32662047D01*
X20233161Y32662047D01*
X20166122Y32681732D01*
X20160276Y32685729D01*
X20129202Y32708305D01*
X20129201Y32708306D01*
X20129199Y32708307D01*
X20076620Y32735097D01*
X19960836Y32794093D01*
X19781118Y32852488D01*
X19608750Y32879788D01*
X19545615Y32909717D01*
X19540467Y32914580D01*
X18755586Y33699462D01*
X18755585Y33699463D01*
X18737060Y33711841D01*
X18660994Y33762666D01*
X18608094Y33798013D01*
X18526153Y33831954D01*
X18444213Y33865895D01*
X18444205Y33865897D01*
X18270243Y33900500D01*
X18270239Y33900500D01*
X18270238Y33900500D01*
X14059336Y33900500D01*
X14037608Y33906880D01*
X14015030Y33908685D01*
X14001438Y33917501D01*
X13992297Y33920185D01*
X13984196Y33925859D01*
X13977560Y33930914D01*
X13954646Y33953828D01*
X13799556Y34066508D01*
X13798439Y34067359D01*
X13778529Y34094425D01*
X13758028Y34121012D01*
X13757903Y34122465D01*
X13757038Y34123641D01*
X13754921Y34157176D01*
X13752049Y34190626D01*
X13752729Y34191917D01*
X13752638Y34193372D01*
X13768972Y34222699D01*
X13784655Y34252421D01*
X13785926Y34253139D01*
X13786636Y34254413D01*
X13816237Y34270257D01*
X13845494Y34286778D01*
X13847546Y34287014D01*
X13848237Y34287383D01*
X13849728Y34287264D01*
X13873579Y34290000D01*
X13937828Y34290000D01*
X13937844Y34290001D01*
X13997372Y34296402D01*
X13997379Y34296404D01*
X14132086Y34346646D01*
X14132093Y34346650D01*
X14247187Y34432810D01*
X14247190Y34432813D01*
X14333350Y34547907D01*
X14333354Y34547914D01*
X14383596Y34682621D01*
X14383598Y34682628D01*
X14389999Y34742156D01*
X14390000Y34742173D01*
X14390000Y35290000D01*
X13455686Y35290000D01*
X13460080Y35294394D01*
X13512741Y35385606D01*
X13540000Y35487339D01*
X13540000Y35592661D01*
X13512741Y35694394D01*
X13460080Y35785606D01*
X13455686Y35790000D01*
X14390000Y35790000D01*
X14390000Y36337828D01*
X14389999Y36337845D01*
X14383598Y36397373D01*
X14383596Y36397380D01*
X14333354Y36532087D01*
X14333350Y36532094D01*
X14247190Y36647188D01*
X14247187Y36647191D01*
X14132093Y36733351D01*
X14132086Y36733355D01*
X13997379Y36783597D01*
X13997372Y36783599D01*
X13937844Y36790000D01*
X13390000Y36790000D01*
X13390000Y35855686D01*
X13385606Y35860080D01*
X13294394Y35912741D01*
X13192661Y35940000D01*
X13087339Y35940000D01*
X12985606Y35912741D01*
X12894394Y35860080D01*
X12890000Y35855686D01*
X12890000Y36790000D01*
X12342155Y36790000D01*
X12282627Y36783599D01*
X12282620Y36783597D01*
X12147913Y36733355D01*
X12147906Y36733351D01*
X12032812Y36647191D01*
X12032809Y36647188D01*
X11946649Y36532094D01*
X11946645Y36532087D01*
X11896403Y36397380D01*
X11896401Y36397373D01*
X11890000Y36337845D01*
X11890000Y35790000D01*
X12824314Y35790000D01*
X12819920Y35785606D01*
X12767259Y35694394D01*
X12740000Y35592661D01*
X12740000Y35487339D01*
X12767259Y35385606D01*
X12819920Y35294394D01*
X12824314Y35290000D01*
X11890000Y35290000D01*
X11890000Y34742156D01*
X11896401Y34682628D01*
X11896403Y34682621D01*
X11946645Y34547914D01*
X11946649Y34547907D01*
X12032809Y34432813D01*
X12032812Y34432810D01*
X12147906Y34346650D01*
X12147913Y34346646D01*
X12282620Y34296404D01*
X12282627Y34296402D01*
X12342155Y34290001D01*
X12342172Y34290000D01*
X12406421Y34290000D01*
X12473460Y34270315D01*
X12519215Y34217511D01*
X12529159Y34148353D01*
X12500134Y34084797D01*
X12479307Y34065683D01*
X12325354Y33953828D01*
X12325352Y33953826D01*
X12325351Y33953826D01*
X12186174Y33814649D01*
X12186174Y33814648D01*
X12186172Y33814646D01*
X12148406Y33762666D01*
X12070476Y33655406D01*
X11981117Y33480030D01*
X11920290Y33292827D01*
X11889500Y33098423D01*
X11889500Y32901578D01*
X11920290Y32707174D01*
X11981117Y32519971D01*
X12062731Y32359796D01*
X12070476Y32344595D01*
X12186172Y32185354D01*
X12325354Y32046172D01*
X12484595Y31930476D01*
X12574375Y31884731D01*
X12661213Y31840485D01*
X12712009Y31792511D01*
X12728804Y31724690D01*
X12706267Y31658555D01*
X12661213Y31619515D01*
X12484594Y31529524D01*
X12428194Y31488546D01*
X12339603Y31424182D01*
X12273800Y31400702D01*
X12266720Y31400500D01*
X5951440Y31400500D01*
X5884401Y31420185D01*
X5838646Y31472989D01*
X5835258Y31481167D01*
X5793797Y31592329D01*
X5793793Y31592336D01*
X5707547Y31707545D01*
X5707544Y31707548D01*
X5592335Y31793794D01*
X5592328Y31793798D01*
X5457482Y31844092D01*
X5457483Y31844092D01*
X5397883Y31850499D01*
X5397881Y31850500D01*
X5397873Y31850500D01*
X5397865Y31850500D01*
X5387309Y31850500D01*
X5320270Y31870185D01*
X5299628Y31886819D01*
X4629408Y32557038D01*
X4692993Y32574075D01*
X4807007Y32639901D01*
X4900099Y32732993D01*
X4965925Y32847007D01*
X4982962Y32910592D01*
X5615270Y32278283D01*
X5615270Y32278284D01*
X5654622Y32332446D01*
X5751095Y32521783D01*
X5816757Y32723870D01*
X5816757Y32723873D01*
X5850000Y32933754D01*
X5850000Y33146247D01*
X5816757Y33356128D01*
X5816757Y33356131D01*
X5751095Y33558218D01*
X5654624Y33747551D01*
X5615270Y33801718D01*
X5615269Y33801718D01*
X4982962Y33169410D01*
X4965925Y33232993D01*
X4900099Y33347007D01*
X4807007Y33440099D01*
X4692993Y33505925D01*
X4629409Y33522963D01*
X5261716Y34155272D01*
X5207550Y34194625D01*
X5018217Y34291096D01*
X4816129Y34356758D01*
X4606246Y34390000D01*
X4393754Y34390000D01*
X4183872Y34356758D01*
X4183869Y34356758D01*
X3981782Y34291096D01*
X3792439Y34194620D01*
X3738282Y34155273D01*
X3738282Y34155272D01*
X4370591Y33522963D01*
X4307007Y33505925D01*
X4192993Y33440099D01*
X4099901Y33347007D01*
X4034075Y33232993D01*
X4017037Y33169409D01*
X3384728Y33801718D01*
X3384727Y33801718D01*
X3345380Y33747561D01*
X3248904Y33558218D01*
X3183242Y33356131D01*
X3183242Y33356128D01*
X3150000Y33146247D01*
X3150000Y32933754D01*
X3183242Y32723873D01*
X3183242Y32723870D01*
X3248904Y32521783D01*
X3345375Y32332450D01*
X3384728Y32278284D01*
X4017037Y32910592D01*
X4034075Y32847007D01*
X4099901Y32732993D01*
X4192993Y32639901D01*
X4307007Y32574075D01*
X4370590Y32557038D01*
X3700370Y31886819D01*
X3639047Y31853334D01*
X3612698Y31850500D01*
X3602134Y31850500D01*
X3602123Y31850499D01*
X3542516Y31844092D01*
X3407671Y31793798D01*
X3407664Y31793794D01*
X3292455Y31707548D01*
X3292452Y31707545D01*
X3206206Y31592336D01*
X3206202Y31592329D01*
X3155908Y31457483D01*
X3149501Y31397884D01*
X3149500Y31397865D01*
X500500Y31397865D01*
X500500Y48357865D01*
X3149500Y48357865D01*
X3149500Y46562130D01*
X3149501Y46562124D01*
X3155908Y46502517D01*
X3206202Y46367672D01*
X3206206Y46367665D01*
X3292452Y46252456D01*
X3292455Y46252453D01*
X3407664Y46166207D01*
X3407671Y46166203D01*
X3542517Y46115909D01*
X3542516Y46115909D01*
X3549444Y46115165D01*
X3602127Y46109500D01*
X5397872Y46109501D01*
X5457483Y46115909D01*
X5592331Y46166204D01*
X5707546Y46252454D01*
X5793796Y46367669D01*
X5801149Y46387385D01*
X5835258Y46478833D01*
X5877129Y46534767D01*
X5942593Y46559184D01*
X5951440Y46559500D01*
X11225321Y46559500D01*
X11292360Y46539815D01*
X11338115Y46487011D01*
X11339882Y46482954D01*
X11341116Y46479974D01*
X11416738Y46331557D01*
X11430476Y46304595D01*
X11546172Y46145354D01*
X11685354Y46006172D01*
X11844595Y45890476D01*
X11927455Y45848257D01*
X12019970Y45801118D01*
X12019972Y45801118D01*
X12019975Y45801116D01*
X12086616Y45779463D01*
X12207173Y45740291D01*
X12403872Y45709137D01*
X12467007Y45679208D01*
X12472155Y45674345D01*
X15186967Y42959533D01*
X15220452Y42898210D01*
X15221759Y42891250D01*
X15249059Y42718882D01*
X15307454Y42539164D01*
X15379643Y42397486D01*
X15393240Y42370801D01*
X15504310Y42217927D01*
X15637927Y42084310D01*
X15790801Y41973240D01*
X15870347Y41932710D01*
X15959163Y41887455D01*
X15959165Y41887455D01*
X15959168Y41887453D01*
X16055497Y41856154D01*
X16138881Y41829060D01*
X16325514Y41799500D01*
X16325519Y41799500D01*
X16514486Y41799500D01*
X16701118Y41829060D01*
X16719245Y41834950D01*
X16880832Y41887453D01*
X17049199Y41973240D01*
X17202073Y42084310D01*
X17335690Y42217927D01*
X17446760Y42370801D01*
X17532547Y42539168D01*
X17590940Y42718882D01*
X17598113Y42764171D01*
X17620500Y42905514D01*
X17620500Y43094487D01*
X17590940Y43281119D01*
X17539153Y43440500D01*
X17532547Y43460832D01*
X17532545Y43460835D01*
X17532545Y43460837D01*
X17476867Y43570110D01*
X17446760Y43629199D01*
X17335690Y43782073D01*
X17202073Y43915690D01*
X17049199Y44026760D01*
X17003792Y44049896D01*
X16880836Y44112546D01*
X16701118Y44170941D01*
X16528750Y44198241D01*
X16465615Y44228170D01*
X16460467Y44233033D01*
X13786819Y46906681D01*
X13753334Y46968004D01*
X13750500Y46994362D01*
X13750500Y47058423D01*
X13719709Y47252827D01*
X13658882Y47440030D01*
X13605259Y47545270D01*
X13569524Y47615405D01*
X13453828Y47774646D01*
X13314646Y47913828D01*
X13264804Y47950041D01*
X13234592Y47981463D01*
X13199464Y48034035D01*
X13199460Y48034039D01*
X13199458Y48034042D01*
X13074038Y48159462D01*
X13055028Y48172164D01*
X13010224Y48225777D01*
X13001517Y48295102D01*
X13031672Y48358129D01*
X13067624Y48385750D01*
X13155405Y48430476D01*
X13314646Y48546172D01*
X13331655Y48563181D01*
X13392978Y48596666D01*
X13419336Y48599500D01*
X17075638Y48599500D01*
X17142677Y48579815D01*
X17163319Y48563181D01*
X17766967Y47959534D01*
X17800452Y47898211D01*
X17801759Y47891251D01*
X17829059Y47718882D01*
X17887454Y47539164D01*
X17971517Y47374183D01*
X17973240Y47370801D01*
X18084310Y47217927D01*
X18217927Y47084310D01*
X18370801Y46973240D01*
X18430151Y46943000D01*
X18539163Y46887455D01*
X18539165Y46887455D01*
X18539168Y46887453D01*
X18635497Y46856154D01*
X18718881Y46829060D01*
X18905514Y46799500D01*
X18905519Y46799500D01*
X19094486Y46799500D01*
X19281118Y46829060D01*
X19460832Y46887453D01*
X19629199Y46973240D01*
X19770385Y47075819D01*
X19836190Y47099298D01*
X19843270Y47099500D01*
X22156730Y47099500D01*
X22223769Y47079815D01*
X22229602Y47075828D01*
X22370801Y46973240D01*
X22430151Y46943000D01*
X22539163Y46887455D01*
X22539165Y46887455D01*
X22539168Y46887453D01*
X22635497Y46856154D01*
X22718881Y46829060D01*
X22905514Y46799500D01*
X22905519Y46799500D01*
X23094486Y46799500D01*
X23281118Y46829060D01*
X23460832Y46887453D01*
X23629199Y46973240D01*
X23782073Y47084310D01*
X23915690Y47217927D01*
X24026760Y47370801D01*
X24112547Y47539168D01*
X24170940Y47718882D01*
X24200500Y47905514D01*
X24200500Y48094487D01*
X24170940Y48281119D01*
X24126632Y48417483D01*
X24112547Y48460832D01*
X24112545Y48460835D01*
X24112545Y48460837D01*
X24026759Y48629200D01*
X24010373Y48651753D01*
X23915690Y48782073D01*
X23782073Y48915690D01*
X23629199Y49026760D01*
X23460836Y49112546D01*
X23281118Y49170941D01*
X23094486Y49200500D01*
X23094481Y49200500D01*
X22905519Y49200500D01*
X22905514Y49200500D01*
X22718881Y49170941D01*
X22539163Y49112546D01*
X22370800Y49026760D01*
X22293281Y48970439D01*
X22229614Y48924182D01*
X22163810Y48900702D01*
X22156730Y48900500D01*
X19843270Y48900500D01*
X19776231Y48920185D01*
X19770397Y48924173D01*
X19629199Y49026760D01*
X19460836Y49112546D01*
X19281118Y49170941D01*
X19108749Y49198241D01*
X19045614Y49228170D01*
X19040466Y49233033D01*
X18074041Y50199460D01*
X18074038Y50199463D01*
X17985694Y50258492D01*
X17926544Y50298015D01*
X17926542Y50298016D01*
X17844607Y50331954D01*
X17844606Y50331954D01*
X17762666Y50365895D01*
X17762658Y50365897D01*
X17588696Y50400500D01*
X17588692Y50400500D01*
X17588691Y50400500D01*
X13419336Y50400500D01*
X13397608Y50406880D01*
X13375030Y50408685D01*
X13361438Y50417501D01*
X13352297Y50420185D01*
X13344196Y50425859D01*
X13337560Y50430914D01*
X13314646Y50453828D01*
X13159556Y50566508D01*
X13158439Y50567359D01*
X13138529Y50594425D01*
X13118028Y50621012D01*
X13117903Y50622465D01*
X13117038Y50623641D01*
X13114921Y50657176D01*
X13112049Y50690626D01*
X13112729Y50691917D01*
X13112638Y50693372D01*
X13128972Y50722699D01*
X13144655Y50752421D01*
X13145926Y50753139D01*
X13146636Y50754413D01*
X13176237Y50770257D01*
X13205494Y50786778D01*
X13207546Y50787014D01*
X13208237Y50787383D01*
X13209728Y50787264D01*
X13233579Y50790000D01*
X13297828Y50790000D01*
X13297844Y50790001D01*
X13357372Y50796402D01*
X13357379Y50796404D01*
X13492086Y50846646D01*
X13492093Y50846650D01*
X13607187Y50932810D01*
X13607190Y50932813D01*
X13693350Y51047907D01*
X13693354Y51047914D01*
X13743596Y51182621D01*
X13743598Y51182628D01*
X13749999Y51242156D01*
X13750000Y51242173D01*
X13750000Y51790000D01*
X12815686Y51790000D01*
X12820080Y51794394D01*
X12872741Y51885606D01*
X12900000Y51987339D01*
X12900000Y52092661D01*
X12872741Y52194394D01*
X12820080Y52285606D01*
X12815686Y52290000D01*
X13750000Y52290000D01*
X13750000Y52837828D01*
X13749999Y52837845D01*
X13743598Y52897373D01*
X13743596Y52897380D01*
X13693354Y53032087D01*
X13693350Y53032094D01*
X13607190Y53147188D01*
X13607187Y53147191D01*
X13492093Y53233351D01*
X13492086Y53233355D01*
X13357379Y53283597D01*
X13357372Y53283599D01*
X13297844Y53290000D01*
X12750000Y53290000D01*
X12750000Y52355686D01*
X12745606Y52360080D01*
X12654394Y52412741D01*
X12552661Y52440000D01*
X12447339Y52440000D01*
X12345606Y52412741D01*
X12254394Y52360080D01*
X12250000Y52355686D01*
X12250000Y53290000D01*
X11702155Y53290000D01*
X11642627Y53283599D01*
X11642620Y53283597D01*
X11507913Y53233355D01*
X11507906Y53233351D01*
X11392812Y53147191D01*
X11392809Y53147188D01*
X11306649Y53032094D01*
X11306645Y53032087D01*
X11256403Y52897380D01*
X11256401Y52897373D01*
X11250000Y52837845D01*
X11250000Y52290000D01*
X12184314Y52290000D01*
X12179920Y52285606D01*
X12127259Y52194394D01*
X12100000Y52092661D01*
X12100000Y51987339D01*
X12127259Y51885606D01*
X12179920Y51794394D01*
X12184314Y51790000D01*
X11250000Y51790000D01*
X11250000Y51242156D01*
X11256401Y51182628D01*
X11256403Y51182621D01*
X11306645Y51047914D01*
X11306649Y51047907D01*
X11392809Y50932813D01*
X11392812Y50932810D01*
X11507906Y50846650D01*
X11507913Y50846646D01*
X11642620Y50796404D01*
X11642627Y50796402D01*
X11702155Y50790001D01*
X11702172Y50790000D01*
X11766421Y50790000D01*
X11833460Y50770315D01*
X11879215Y50717511D01*
X11889159Y50648353D01*
X11860134Y50584797D01*
X11839307Y50565683D01*
X11685354Y50453828D01*
X11685352Y50453826D01*
X11685351Y50453826D01*
X11546174Y50314649D01*
X11546174Y50314648D01*
X11546172Y50314646D01*
X11508408Y50262668D01*
X11430476Y50155406D01*
X11341117Y49980030D01*
X11280290Y49792827D01*
X11249500Y49598423D01*
X11249500Y49401578D01*
X11280290Y49207174D01*
X11341117Y49019971D01*
X11401888Y48900702D01*
X11430476Y48844595D01*
X11546172Y48685354D01*
X11546174Y48685352D01*
X11659345Y48572181D01*
X11692830Y48510858D01*
X11687846Y48441166D01*
X11645974Y48385233D01*
X11580510Y48360816D01*
X11571664Y48360500D01*
X5951440Y48360500D01*
X5884401Y48380185D01*
X5838646Y48432989D01*
X5835258Y48441167D01*
X5793797Y48552329D01*
X5793793Y48552336D01*
X5707547Y48667545D01*
X5707544Y48667548D01*
X5592335Y48753794D01*
X5592328Y48753798D01*
X5457482Y48804092D01*
X5457483Y48804092D01*
X5397883Y48810499D01*
X5397881Y48810500D01*
X5397873Y48810500D01*
X5397865Y48810500D01*
X5387309Y48810500D01*
X5320270Y48830185D01*
X5299628Y48846819D01*
X4629408Y49517038D01*
X4692993Y49534075D01*
X4807007Y49599901D01*
X4900099Y49692993D01*
X4965925Y49807007D01*
X4982962Y49870592D01*
X5615270Y49238283D01*
X5615270Y49238284D01*
X5654622Y49292446D01*
X5751095Y49481783D01*
X5816757Y49683870D01*
X5816757Y49683873D01*
X5850000Y49893754D01*
X5850000Y50106247D01*
X5816757Y50316128D01*
X5816757Y50316131D01*
X5751095Y50518218D01*
X5654624Y50707551D01*
X5615270Y50761718D01*
X5615269Y50761718D01*
X4982962Y50129410D01*
X4965925Y50192993D01*
X4900099Y50307007D01*
X4807007Y50400099D01*
X4692993Y50465925D01*
X4629409Y50482963D01*
X5261716Y51115272D01*
X5207550Y51154625D01*
X5018217Y51251096D01*
X4816129Y51316758D01*
X4606246Y51350000D01*
X4393754Y51350000D01*
X4183872Y51316758D01*
X4183869Y51316758D01*
X3981782Y51251096D01*
X3792439Y51154620D01*
X3738282Y51115273D01*
X3738282Y51115272D01*
X4370591Y50482963D01*
X4307007Y50465925D01*
X4192993Y50400099D01*
X4099901Y50307007D01*
X4034075Y50192993D01*
X4017037Y50129409D01*
X3384728Y50761718D01*
X3384727Y50761718D01*
X3345380Y50707561D01*
X3248904Y50518218D01*
X3183242Y50316131D01*
X3183242Y50316128D01*
X3150000Y50106247D01*
X3150000Y49893754D01*
X3183242Y49683873D01*
X3183242Y49683870D01*
X3248904Y49481783D01*
X3345375Y49292450D01*
X3384728Y49238284D01*
X4017037Y49870592D01*
X4034075Y49807007D01*
X4099901Y49692993D01*
X4192993Y49599901D01*
X4307007Y49534075D01*
X4370590Y49517038D01*
X3700370Y48846819D01*
X3639047Y48813334D01*
X3612698Y48810500D01*
X3602134Y48810500D01*
X3602123Y48810499D01*
X3542516Y48804092D01*
X3407671Y48753798D01*
X3407664Y48753794D01*
X3292455Y48667548D01*
X3292452Y48667545D01*
X3206206Y48552336D01*
X3206202Y48552329D01*
X3155908Y48417483D01*
X3149501Y48357884D01*
X3149500Y48357865D01*
X500500Y48357865D01*
X500500Y54876000D01*
X520185Y54943039D01*
X572989Y54988794D01*
X624500Y55000000D01*
X11500000Y55000000D01*
X11500000Y65875500D01*
X11519685Y65942539D01*
X11572489Y65988294D01*
X11624000Y65999500D01*
X120876000Y65999500D01*
X120943039Y65979815D01*
G37*
%TD.AperFunction*%
%TD*%
M02*
